<ttFont>
<head>
    <!-- Most of this table will be recalculated by the compiler -->
    <tableVersion value="1.0"/>
    <fontRevision value="1.0"/>
    <checkSumAdjustment value="0x763e278f"/>
    <magicNumber value="0x5f0f3cf5"/>
    <flags value="00000000 00001011"/>
    <unitsPerEm value="1000"/>
    <created value="Tue Nov 29 18:51:19 2022"/>
    <modified value="Wed Oct 25 10:37:42 2023"/>
    <xMin value="-206"/>
    <yMin value="-308"/>
    <xMax value="747"/>
    <yMax value="1106"/>
    <macStyle value="00000000 00000000"/>
    <lowestRecPPEM value="6"/>
    <fontDirectionHint value="2"/>
    <indexToLocFormat value="0"/>
    <glyphDataFormat value="0"/>
  </head>
    <TTGlyph name=".notdef" xMin="57" yMin="-240" xMax="557" yMax="960">
      <contour>
        <pt x="557" y="-240" on="1"/>
        <pt x="57" y="-240" on="1"/>
        <pt x="57" y="960" on="1"/>
        <pt x="557" y="960" on="1"/>
      </contour>
      <contour>
        <pt x="464" y="910" on="1"/>
        <pt x="149" y="910" on="1"/>
        <pt x="307" y="429" on="1"/>
      </contour>
      <contour>
        <pt x="507" y="874" on="1"/>
        <pt x="335" y="360" on="1"/>
        <pt x="507" y="-154" on="1"/>
      </contour>
      <contour>
        <pt x="107" y="-154" on="1"/>
        <pt x="278" y="360" on="1"/>
        <pt x="107" y="874" on="1"/>
      </contour>
      <contour>
        <pt x="464" y="-190" on="1"/>
        <pt x="307" y="291" on="1"/>
        <pt x="149" y="-190" on="1"/>
      </contour>
    </TTGlyph>
    <TTGlyph name="A" xMin="35" yMin="0" xMax="579" yMax="655">
      <contour>
        <pt x="195" y="155" on="1"/>
        <pt x="147" y="0" on="1"/>
        <pt x="35" y="0" on="1"/>
        <pt x="237" y="655" on="1"/>
        <pt x="377" y="655" on="1"/>
        <pt x="579" y="0" on="1"/>
        <pt x="461" y="0" on="1"/>
        <pt x="413" y="155" on="1"/>
      </contour>
      <contour>
        <pt x="304" y="538" on="1"/>
        <pt x="219" y="244" on="1"/>
        <pt x="388" y="244" on="1"/>
      </contour>
    </TTGlyph>
    <TTGlyph name="AE" xMin="-4" yMin="0" xMax="580" yMax="655">
      <contour>
        <pt x="148" y="164" on="1"/>
        <pt x="98" y="0" on="1"/>
        <pt x="-4" y="0" on="1"/>
        <pt x="205" y="655" on="1"/>
        <pt x="580" y="655" on="1"/>
        <pt x="580" y="566" on="1"/>
        <pt x="401" y="566" on="1"/>
        <pt x="401" y="374" on="1"/>
        <pt x="561" y="374" on="1"/>
        <pt x="561" y="287" on="1"/>
        <pt x="401" y="287" on="1"/>
        <pt x="401" y="89" on="1"/>
        <pt x="580" y="89" on="1"/>
        <pt x="580" y="0" on="1"/>
        <pt x="294" y="0" on="1"/>
        <pt x="294" y="164" on="1"/>
      </contour>
      <contour>
        <pt x="269" y="566" on="1"/>
        <pt x="173" y="247" on="1"/>
        <pt x="294" y="247" on="1"/>
        <pt x="294" y="566" on="1"/>
      </contour>
    </TTGlyph>
    <TTGlyph name="Aacute" xMin="35" yMin="0" xMax="579" yMax="925">
      <component glyphName="A" x="0" y="0" flags="0x204"/>
      <component glyphName="uni0301.cap" x="301" y="0" flags="0x4"/>
    </TTGlyph>
    <TTGlyph name="Abreve" xMin="35" yMin="0" xMax="579" yMax="918">
      <component glyphName="A" x="0" y="0" flags="0x204"/>
      <component glyphName="uni0306.cap" x="301" y="0" flags="0x4"/>
    </TTGlyph>
    <TTGlyph name="Acircumflex" xMin="35" yMin="0" xMax="579" yMax="910">
      <component glyphName="A" x="0" y="0" flags="0x204"/>
      <component glyphName="uni0302.cap" x="301" y="-10" flags="0x4"/>
    </TTGlyph>
    <TTGlyph name="Adieresis" xMin="35" yMin="0" xMax="579" yMax="880">
      <component glyphName="A" x="0" y="0" flags="0x204"/>
      <component glyphName="uni0308.cap" x="301" y="0" flags="0x4"/>
    </TTGlyph>
    <TTGlyph name="Agrave" xMin="35" yMin="0" xMax="579" yMax="925">
      <component glyphName="A" x="0" y="0" flags="0x204"/>
      <component glyphName="uni0300.cap" x="301" y="0" flags="0x4"/>
    </TTGlyph>
    <TTGlyph name="Amacron" xMin="35" yMin="0" xMax="579" yMax="853">
      <component glyphName="A" x="0" y="0" flags="0x204"/>
      <component glyphName="uni0304.cap" x="301" y="0" flags="0x4"/>
    </TTGlyph>
    <TTGlyph name="Aogonek" xMin="35" yMin="-234" xMax="587" yMax="655">
      <contour>
        <pt x="195" y="155" on="1"/>
        <pt x="147" y="0" on="1"/>
        <pt x="35" y="0" on="1"/>
        <pt x="237" y="655" on="1"/>
        <pt x="377" y="655" on="1"/>
        <pt x="579" y="0" on="1"/>
        <pt x="537" y="0" on="1"/>
        <pt x="506" y="-44" on="0"/>
        <pt x="477" y="-100" on="0"/>
        <pt x="477" y="-119" on="1"/>
        <pt x="477" y="-138" on="0"/>
        <pt x="497" y="-155" on="0"/>
        <pt x="521" y="-156" on="1"/>
        <pt x="587" y="-160" on="1"/>
        <pt x="579" y="-234" on="1"/>
        <pt x="484" y="-230" on="1"/>
        <pt x="436" y="-228" on="0"/>
        <pt x="392" y="-192" on="0"/>
        <pt x="392" y="-156" on="1"/>
        <pt x="392" y="-129" on="0"/>
        <pt x="433" y="-57" on="0"/>
        <pt x="480" y="0" on="1"/>
        <pt x="461" y="0" on="1"/>
        <pt x="413" y="155" on="1"/>
      </contour>
      <contour>
        <pt x="304" y="538" on="1"/>
        <pt x="219" y="244" on="1"/>
        <pt x="388" y="244" on="1"/>
      </contour>
    </TTGlyph>
    <TTGlyph name="Aring" xMin="35" yMin="0" xMax="579" yMax="823">
      <contour>
        <pt x="195" y="155" on="1"/>
        <pt x="147" y="0" on="1"/>
        <pt x="35" y="0" on="1"/>
        <pt x="216" y="586" on="1"/>
        <pt x="181" y="602" on="0"/>
        <pt x="144" y="659" on="0"/>
        <pt x="144" y="696" on="1"/>
        <pt x="144" y="754" on="0"/>
        <pt x="232" y="823" on="0"/>
        <pt x="307" y="823" on="1"/>
        <pt x="381" y="823" on="0"/>
        <pt x="468" y="755" on="0"/>
        <pt x="468" y="697" on="1"/>
        <pt x="468" y="661" on="0"/>
        <pt x="431" y="604" on="0"/>
        <pt x="397" y="588" on="1"/>
        <pt x="579" y="0" on="1"/>
        <pt x="461" y="0" on="1"/>
        <pt x="413" y="155" on="1"/>
      </contour>
      <contour>
        <pt x="223" y="695" on="1"/>
        <pt x="223" y="665" on="0"/>
        <pt x="265" y="634" on="0"/>
        <pt x="306" y="634" on="1"/>
        <pt x="348" y="634" on="0"/>
        <pt x="389" y="666" on="0"/>
        <pt x="389" y="698" on="1"/>
        <pt x="389" y="728" on="0"/>
        <pt x="347" y="759" on="0"/>
        <pt x="306" y="759" on="1"/>
        <pt x="264" y="759" on="0"/>
        <pt x="223" y="728" on="0"/>
      </contour>
      <contour>
        <pt x="304" y="538" on="1"/>
        <pt x="219" y="244" on="1"/>
        <pt x="388" y="244" on="1"/>
      </contour>
    </TTGlyph>
    <TTGlyph name="Atilde" xMin="35" yMin="0" xMax="579" yMax="914">
      <component glyphName="A" x="0" y="0" flags="0x204"/>
      <component glyphName="uni0303.cap" x="301" y="0" flags="0x4"/>
    </TTGlyph>
    <TTGlyph name="B" xMin="88" yMin="0" xMax="569" yMax="655">
      <contour>
        <pt x="88" y="0" on="1"/>
        <pt x="88" y="655" on="1"/>
        <pt x="337" y="655" on="1"/>
        <pt x="437" y="655" on="0"/>
        <pt x="540" y="577" on="0"/>
        <pt x="540" y="502" on="1"/>
        <pt x="540" y="440" on="0"/>
        <pt x="464" y="358" on="0"/>
        <pt x="390" y="339" on="1"/>
        <pt x="390" y="335" on="1"/>
        <pt x="476" y="323" on="0"/>
        <pt x="569" y="234" on="0"/>
        <pt x="569" y="164" on="1"/>
        <pt x="569" y="81" on="0"/>
        <pt x="455" y="0" on="0"/>
        <pt x="339" y="0" on="1"/>
      </contour>
      <contour>
        <pt x="427" y="481" on="1"/>
        <pt x="427" y="525" on="0"/>
        <pt x="375" y="568" on="0"/>
        <pt x="321" y="568" on="1"/>
        <pt x="199" y="568" on="1"/>
        <pt x="199" y="369" on="1"/>
        <pt x="287" y="374" on="1"/>
        <pt x="355" y="377" on="0"/>
        <pt x="427" y="433" on="0"/>
      </contour>
      <contour>
        <pt x="456" y="178" on="1"/>
        <pt x="456" y="228" on="0"/>
        <pt x="378" y="282" on="0"/>
        <pt x="300" y="285" on="1"/>
        <pt x="199" y="290" on="1"/>
        <pt x="199" y="86" on="1"/>
        <pt x="334" y="86" on="1"/>
        <pt x="395" y="86" on="0"/>
        <pt x="456" y="132" on="0"/>
      </contour>
    </TTGlyph>
    <TTGlyph name="C" xMin="53" yMin="-15" xMax="571" yMax="670">
      <contour>
        <pt x="329" y="-15" on="1"/>
        <pt x="198" y="-15" on="0"/>
        <pt x="53" y="164" on="0"/>
        <pt x="53" y="326" on="1"/>
        <pt x="53" y="478" on="0"/>
        <pt x="218" y="670" on="0"/>
        <pt x="348" y="670" on="1"/>
        <pt x="403" y="670" on="0"/>
        <pt x="500" y="632" on="0"/>
        <pt x="565" y="585" on="1"/>
        <pt x="512" y="504" on="1"/>
        <pt x="461" y="543" on="0"/>
        <pt x="388" y="576" on="0"/>
        <pt x="350" y="576" on="1"/>
        <pt x="269" y="576" on="0"/>
        <pt x="168" y="441" on="0"/>
        <pt x="168" y="328" on="1"/>
        <pt x="168" y="209" on="0"/>
        <pt x="261" y="79" on="0"/>
        <pt x="344" y="79" on="1"/>
        <pt x="382" y="79" on="0"/>
        <pt x="467" y="115" on="0"/>
        <pt x="520" y="153" on="1"/>
        <pt x="571" y="76" on="1"/>
        <pt x="508" y="30" on="0"/>
        <pt x="389" y="-15" on="0"/>
      </contour>
    </TTGlyph>
    <TTGlyph name="Cacute" xMin="53" yMin="-15" xMax="571" yMax="928">
      <component glyphName="C" x="0" y="0" flags="0x204"/>
      <component glyphName="uni0301.cap" x="351" y="3" flags="0x4"/>
    </TTGlyph>
    <TTGlyph name="Ccaron" xMin="53" yMin="-15" xMax="571" yMax="923">
      <component glyphName="C" x="0" y="0" flags="0x204"/>
      <component glyphName="uni030C.cap" x="351" y="3" flags="0x4"/>
    </TTGlyph>
    <TTGlyph name="Ccedilla" xMin="53" yMin="-270" xMax="571" yMax="670">
      <contour>
        <pt x="493" y="-152" on="1"/>
        <pt x="493" y="-192" on="0"/>
        <pt x="446" y="-235" on="0"/>
        <pt x="392" y="-248" on="1"/>
        <pt x="364" y="-255" on="0"/>
        <pt x="288" y="-266" on="0"/>
        <pt x="239" y="-270" on="1"/>
        <pt x="222" y="-209" on="1"/>
        <pt x="331" y="-199" on="0"/>
        <pt x="414" y="-177" on="0"/>
        <pt x="414" y="-154" on="1"/>
        <pt x="414" y="-134" on="0"/>
        <pt x="352" y="-117" on="0"/>
        <pt x="280" y="-114" on="1"/>
        <pt x="274" y="-104" on="1"/>
        <pt x="305" y="-14" on="1"/>
        <pt x="184" y="-6" on="0"/>
        <pt x="53" y="171" on="0"/>
        <pt x="53" y="326" on="1"/>
        <pt x="53" y="478" on="0"/>
        <pt x="218" y="670" on="0"/>
        <pt x="348" y="670" on="1"/>
        <pt x="403" y="670" on="0"/>
        <pt x="500" y="632" on="0"/>
        <pt x="565" y="585" on="1"/>
        <pt x="512" y="504" on="1"/>
        <pt x="461" y="543" on="0"/>
        <pt x="388" y="576" on="0"/>
        <pt x="350" y="576" on="1"/>
        <pt x="269" y="576" on="0"/>
        <pt x="168" y="441" on="0"/>
        <pt x="168" y="328" on="1"/>
        <pt x="168" y="209" on="0"/>
        <pt x="261" y="79" on="0"/>
        <pt x="344" y="79" on="1"/>
        <pt x="382" y="79" on="0"/>
        <pt x="467" y="115" on="0"/>
        <pt x="520" y="153" on="1"/>
        <pt x="571" y="76" on="1"/>
        <pt x="517" y="36" on="0"/>
        <pt x="412" y="-9" on="0"/>
        <pt x="360" y="-14" on="1"/>
        <pt x="344" y="-63" on="1"/>
        <pt x="423" y="-71" on="0"/>
        <pt x="493" y="-112" on="0"/>
      </contour>
    </TTGlyph>
    <TTGlyph name="Ccircumflex" xMin="53" yMin="-15" xMax="571" yMax="918">
      <component glyphName="C" x="0" y="0" flags="0x204"/>
      <component glyphName="uni0302.cap" x="351" y="-2" flags="0x4"/>
    </TTGlyph>
    <TTGlyph name="Cdotaccent" xMin="53" yMin="-15" xMax="571" yMax="890">
      <component glyphName="C" x="0" y="0" flags="0x204"/>
      <component glyphName="uni0307.cap" x="351" y="3" flags="0x4"/>
    </TTGlyph>
    <TTGlyph name="D" xMin="85" yMin="0" xMax="565" yMax="655">
      <contour>
        <pt x="85" y="0" on="1"/>
        <pt x="85" y="655" on="1"/>
        <pt x="199" y="655" on="1"/>
        <pt x="375" y="655" on="0"/>
        <pt x="565" y="489" on="0"/>
        <pt x="565" y="335" on="1"/>
        <pt x="565" y="174" on="0"/>
        <pt x="362" y="0" on="0"/>
        <pt x="172" y="0" on="1"/>
      </contour>
      <contour>
        <pt x="450" y="333" on="1"/>
        <pt x="450" y="440" on="0"/>
        <pt x="339" y="557" on="0"/>
        <pt x="234" y="560" on="1"/>
        <pt x="197" y="562" on="1"/>
        <pt x="197" y="94" on="1"/>
        <pt x="212" y="95" on="1"/>
        <pt x="333" y="100" on="0"/>
        <pt x="450" y="217" on="0"/>
      </contour>
    </TTGlyph>
    <TTGlyph name="Dcaron" xMin="85" yMin="0" xMax="565" yMax="920">
      <component glyphName="D" x="0" y="0" flags="0x204"/>
      <component glyphName="uni030C.cap" x="279" y="0" flags="0x4"/>
    </TTGlyph>
    <TTGlyph name="Dcroat" xMin="26" yMin="0" xMax="565" yMax="655">
      <component glyphName="Eth" x="0" y="0" flags="0x204"/>
    </TTGlyph>
    <TTGlyph name="E" xMin="93" yMin="0" xMax="542" yMax="655">
      <contour>
        <pt x="93" y="0" on="1"/>
        <pt x="93" y="655" on="1"/>
        <pt x="538" y="655" on="1"/>
        <pt x="538" y="561" on="1"/>
        <pt x="206" y="561" on="1"/>
        <pt x="206" y="377" on="1"/>
        <pt x="494" y="377" on="1"/>
        <pt x="494" y="284" on="1"/>
        <pt x="206" y="284" on="1"/>
        <pt x="206" y="94" on="1"/>
        <pt x="542" y="94" on="1"/>
        <pt x="542" y="0" on="1"/>
      </contour>
    </TTGlyph>
    <TTGlyph name="Eacute" xMin="93" yMin="0" xMax="542" yMax="925">
      <component glyphName="E" x="0" y="0" flags="0x204"/>
      <component glyphName="uni0301.cap" x="322" y="0" flags="0x4"/>
    </TTGlyph>
    <TTGlyph name="Ebreve" xMin="93" yMin="0" xMax="542" yMax="918">
      <component glyphName="E" x="0" y="0" flags="0x204"/>
      <component glyphName="uni0306.cap" x="322" y="0" flags="0x4"/>
    </TTGlyph>
    <TTGlyph name="Ecaron" xMin="93" yMin="0" xMax="542" yMax="920">
      <component glyphName="E" x="0" y="0" flags="0x204"/>
      <component glyphName="uni030C.cap" x="322" y="0" flags="0x4"/>
    </TTGlyph>
    <TTGlyph name="Ecircumflex" xMin="93" yMin="0" xMax="542" yMax="920">
      <component glyphName="E" x="0" y="0" flags="0x204"/>
      <component glyphName="uni0302.cap" x="322" y="0" flags="0x4"/>
    </TTGlyph>
    <TTGlyph name="Edieresis" xMin="93" yMin="0" xMax="542" yMax="880">
      <component glyphName="E" x="0" y="0" flags="0x204"/>
      <component glyphName="uni0308.cap" x="322" y="0" flags="0x4"/>
    </TTGlyph>
    <TTGlyph name="Edotaccent" xMin="93" yMin="0" xMax="542" yMax="887">
      <component glyphName="E" x="0" y="0" flags="0x204"/>
      <component glyphName="uni0307.cap" x="322" y="0" flags="0x4"/>
    </TTGlyph>
    <TTGlyph name="Egrave" xMin="93" yMin="0" xMax="542" yMax="925">
      <component glyphName="E" x="0" y="0" flags="0x204"/>
      <component glyphName="uni0300.cap" x="322" y="0" flags="0x4"/>
    </TTGlyph>
    <TTGlyph name="Emacron" xMin="93" yMin="0" xMax="542" yMax="853">
      <component glyphName="E" x="0" y="0" flags="0x204"/>
      <component glyphName="uni0304.cap" x="322" y="0" flags="0x4"/>
    </TTGlyph>
    <TTGlyph name="Eng" xMin="83" yMin="-237" xMax="531" yMax="655">
      <contour>
        <pt x="181" y="485" on="1"/>
        <pt x="187" y="0" on="1"/>
        <pt x="83" y="0" on="1"/>
        <pt x="83" y="655" on="1"/>
        <pt x="207" y="655" on="1"/>
        <pt x="432" y="187" on="1"/>
        <pt x="427" y="655" on="1"/>
        <pt x="531" y="655" on="1"/>
        <pt x="531" y="-24" on="1"/>
        <pt x="531" y="-131" on="0"/>
        <pt x="441" y="-223" on="0"/>
        <pt x="328" y="-230" on="1"/>
        <pt x="208" y="-237" on="1"/>
        <pt x="204" y="-150" on="1"/>
        <pt x="320" y="-141" on="1"/>
        <pt x="378" y="-137" on="0"/>
        <pt x="431" y="-90" on="0"/>
        <pt x="434" y="-41" on="1"/>
      </contour>
    </TTGlyph>
    <TTGlyph name="Eogonek" xMin="93" yMin="-234" xMax="545" yMax="655">
      <contour>
        <pt x="350" y="-156" on="1"/>
        <pt x="350" y="-130" on="0"/>
        <pt x="391" y="-58" on="0"/>
        <pt x="439" y="0" on="1"/>
        <pt x="93" y="0" on="1"/>
        <pt x="93" y="655" on="1"/>
        <pt x="538" y="655" on="1"/>
        <pt x="538" y="561" on="1"/>
        <pt x="206" y="561" on="1"/>
        <pt x="206" y="377" on="1"/>
        <pt x="494" y="377" on="1"/>
        <pt x="494" y="284" on="1"/>
        <pt x="206" y="284" on="1"/>
        <pt x="206" y="94" on="1"/>
        <pt x="542" y="94" on="1"/>
        <pt x="542" y="0" on="1"/>
        <pt x="495" y="0" on="1"/>
        <pt x="464" y="-44" on="0"/>
        <pt x="435" y="-100" on="0"/>
        <pt x="435" y="-119" on="1"/>
        <pt x="435" y="-138" on="0"/>
        <pt x="455" y="-155" on="0"/>
        <pt x="479" y="-156" on="1"/>
        <pt x="545" y="-160" on="1"/>
        <pt x="538" y="-234" on="1"/>
        <pt x="442" y="-230" on="1"/>
        <pt x="394" y="-228" on="0"/>
        <pt x="350" y="-192" on="0"/>
      </contour>
    </TTGlyph>
    <TTGlyph name="Eth" xMin="26" yMin="0" xMax="565" yMax="655">
      <contour>
        <pt x="106" y="298" on="1"/>
        <pt x="26" y="298" on="1"/>
        <pt x="26" y="362" on="1"/>
        <pt x="106" y="362" on="1"/>
        <pt x="106" y="655" on="1"/>
        <pt x="199" y="655" on="1"/>
        <pt x="375" y="655" on="0"/>
        <pt x="565" y="489" on="0"/>
        <pt x="565" y="335" on="1"/>
        <pt x="565" y="174" on="0"/>
        <pt x="362" y="0" on="0"/>
        <pt x="172" y="0" on="1"/>
        <pt x="106" y="0" on="1"/>
      </contour>
      <contour>
        <pt x="323" y="362" on="1"/>
        <pt x="323" y="298" on="1"/>
        <pt x="216" y="298" on="1"/>
        <pt x="216" y="92" on="1"/>
        <pt x="335" y="98" on="0"/>
        <pt x="453" y="218" on="0"/>
        <pt x="453" y="333" on="1"/>
        <pt x="453" y="443" on="0"/>
        <pt x="331" y="562" on="0"/>
        <pt x="216" y="564" on="1"/>
        <pt x="216" y="362" on="1"/>
      </contour>
    </TTGlyph>
    <TTGlyph name="Euro" xMin="45" yMin="-15" xMax="567" yMax="668">
      <contour>
        <pt x="133" y="216" on="1"/>
        <pt x="45" y="216" on="1"/>
        <pt x="45" y="283" on="1"/>
        <pt x="132" y="283" on="1"/>
        <pt x="132" y="372" on="1"/>
        <pt x="45" y="372" on="1"/>
        <pt x="45" y="439" on="1"/>
        <pt x="134" y="439" on="1"/>
        <pt x="144" y="544" on="0"/>
        <pt x="279" y="668" on="0"/>
        <pt x="386" y="668" on="1"/>
        <pt x="429" y="668" on="0"/>
        <pt x="509" y="652" on="0"/>
        <pt x="563" y="633" on="1"/>
        <pt x="544" y="539" on="1"/>
        <pt x="492" y="558" on="0"/>
        <pt x="416" y="575" on="0"/>
        <pt x="383" y="575" on="1"/>
        <pt x="319" y="575" on="0"/>
        <pt x="251" y="506" on="0"/>
        <pt x="246" y="436" on="1"/>
        <pt x="434" y="436" on="1"/>
        <pt x="434" y="372" on="1"/>
        <pt x="245" y="372" on="1"/>
        <pt x="245" y="283" on="1"/>
        <pt x="434" y="283" on="1"/>
        <pt x="434" y="219" on="1"/>
        <pt x="246" y="219" on="1"/>
        <pt x="250" y="149" on="0"/>
        <pt x="318" y="78" on="0"/>
        <pt x="381" y="78" on="1"/>
        <pt x="416" y="78" on="0"/>
        <pt x="495" y="96" on="0"/>
        <pt x="548" y="115" on="1"/>
        <pt x="567" y="22" on="1"/>
        <pt x="514" y="2" on="0"/>
        <pt x="429" y="-15" on="0"/>
        <pt x="383" y="-15" on="1"/>
        <pt x="273" y="-15" on="0"/>
        <pt x="142" y="107" on="0"/>
      </contour>
    </TTGlyph>
    <TTGlyph name="F" xMin="98" yMin="0" xMax="536" yMax="655">
      <contour>
        <pt x="98" y="0" on="1"/>
        <pt x="98" y="655" on="1"/>
        <pt x="536" y="655" on="1"/>
        <pt x="536" y="561" on="1"/>
        <pt x="211" y="561" on="1"/>
        <pt x="211" y="345" on="1"/>
        <pt x="505" y="345" on="1"/>
        <pt x="505" y="251" on="1"/>
        <pt x="211" y="251" on="1"/>
        <pt x="211" y="0" on="1"/>
      </contour>
    </TTGlyph>
    <TTGlyph name="G" xMin="52" yMin="-15" xMax="555" yMax="665">
      <contour>
        <pt x="507" y="655" on="1"/>
        <pt x="498" y="562" on="1"/>
        <pt x="469" y="567" on="0"/>
        <pt x="428" y="570" on="0"/>
        <pt x="405" y="570" on="1"/>
        <pt x="290" y="570" on="0"/>
        <pt x="168" y="446" on="0"/>
        <pt x="168" y="328" on="1"/>
        <pt x="168" y="199" on="0"/>
        <pt x="269" y="79" on="0"/>
        <pt x="376" y="79" on="1"/>
        <pt x="396" y="79" on="0"/>
        <pt x="431" y="83" on="0"/>
        <pt x="448" y="87" on="1"/>
        <pt x="448" y="274" on="1"/>
        <pt x="310" y="274" on="1"/>
        <pt x="310" y="362" on="1"/>
        <pt x="555" y="362" on="1"/>
        <pt x="555" y="12" on="1"/>
        <pt x="504" y="-2" on="0"/>
        <pt x="409" y="-15" on="0"/>
        <pt x="364" y="-15" on="1"/>
        <pt x="209" y="-15" on="0"/>
        <pt x="52" y="156" on="0"/>
        <pt x="52" y="324" on="1"/>
        <pt x="52" y="484" on="0"/>
        <pt x="236" y="665" on="0"/>
        <pt x="399" y="665" on="1"/>
        <pt x="423" y="665" on="0"/>
        <pt x="469" y="661" on="0"/>
      </contour>
    </TTGlyph>
    <TTGlyph name="Gbreve" xMin="52" yMin="-15" xMax="555" yMax="920">
      <component glyphName="G" x="0" y="0" flags="0x204"/>
      <component glyphName="uni0306.cap" x="339" y="2" flags="0x4"/>
    </TTGlyph>
    <TTGlyph name="Gcaron" xMin="52" yMin="-15" xMax="555" yMax="922">
      <component glyphName="G" x="0" y="0" flags="0x204"/>
      <component glyphName="uni030C.cap" x="339" y="2" flags="0x4"/>
    </TTGlyph>
    <TTGlyph name="Gcircumflex" xMin="52" yMin="-15" xMax="555" yMax="917">
      <component glyphName="G" x="0" y="0" flags="0x204"/>
      <component glyphName="uni0302.cap" x="339" y="-3" flags="0x4"/>
    </TTGlyph>
    <TTGlyph name="Gdotaccent" xMin="52" yMin="-15" xMax="555" yMax="889">
      <component glyphName="G" x="0" y="0" flags="0x204"/>
      <component glyphName="uni0307.cap" x="339" y="2" flags="0x4"/>
    </TTGlyph>
    <TTGlyph name="H" xMin="85" yMin="0" xMax="529" yMax="655">
      <contour>
        <pt x="85" y="0" on="1"/>
        <pt x="85" y="655" on="1"/>
        <pt x="197" y="655" on="1"/>
        <pt x="197" y="377" on="1"/>
        <pt x="417" y="377" on="1"/>
        <pt x="417" y="655" on="1"/>
        <pt x="529" y="655" on="1"/>
        <pt x="529" y="0" on="1"/>
        <pt x="417" y="0" on="1"/>
        <pt x="417" y="283" on="1"/>
        <pt x="197" y="283" on="1"/>
        <pt x="197" y="0" on="1"/>
      </contour>
    </TTGlyph>
    <TTGlyph name="Hbar" xMin="26" yMin="0" xMax="588" yMax="655">
      <contour>
        <pt x="106" y="468" on="1"/>
        <pt x="26" y="468" on="1"/>
        <pt x="26" y="530" on="1"/>
        <pt x="106" y="530" on="1"/>
        <pt x="106" y="655" on="1"/>
        <pt x="216" y="655" on="1"/>
        <pt x="216" y="527" on="1"/>
        <pt x="398" y="527" on="1"/>
        <pt x="398" y="655" on="1"/>
        <pt x="508" y="655" on="1"/>
        <pt x="508" y="530" on="1"/>
        <pt x="588" y="530" on="1"/>
        <pt x="588" y="468" on="1"/>
        <pt x="508" y="468" on="1"/>
        <pt x="508" y="0" on="1"/>
        <pt x="398" y="0" on="1"/>
        <pt x="398" y="248" on="1"/>
        <pt x="216" y="248" on="1"/>
        <pt x="216" y="0" on="1"/>
        <pt x="106" y="0" on="1"/>
      </contour>
      <contour>
        <pt x="216" y="471" on="1"/>
        <pt x="216" y="335" on="1"/>
        <pt x="398" y="335" on="1"/>
        <pt x="398" y="471" on="1"/>
      </contour>
    </TTGlyph>
    <TTGlyph name="Hcircumflex" xMin="85" yMin="0" xMax="529" yMax="920">
      <component glyphName="H" x="0" y="0" flags="0x204"/>
      <component glyphName="uni0302.cap" x="307" y="0" flags="0x4"/>
    </TTGlyph>
    <TTGlyph name="I" xMin="123" yMin="0" xMax="491" yMax="655">
      <contour>
        <pt x="123" y="0" on="1"/>
        <pt x="123" y="59" on="1"/>
        <pt x="252" y="83" on="1"/>
        <pt x="252" y="572" on="1"/>
        <pt x="123" y="596" on="1"/>
        <pt x="123" y="655" on="1"/>
        <pt x="491" y="655" on="1"/>
        <pt x="491" y="596" on="1"/>
        <pt x="364" y="572" on="1"/>
        <pt x="364" y="83" on="1"/>
        <pt x="491" y="59" on="1"/>
        <pt x="491" y="0" on="1"/>
      </contour>
    </TTGlyph>
    <TTGlyph name="Iacute" xMin="123" yMin="0" xMax="491" yMax="925">
      <component glyphName="I" x="0" y="0" flags="0x204"/>
      <component glyphName="uni0301.cap" x="307" y="0" flags="0x4"/>
    </TTGlyph>
    <TTGlyph name="Ibreve" xMin="116" yMin="0" xMax="498" yMax="918">
      <component glyphName="I" x="0" y="0" flags="0x204"/>
      <component glyphName="uni0306.cap" x="307" y="0" flags="0x4"/>
    </TTGlyph>
    <TTGlyph name="Icircumflex" xMin="114" yMin="0" xMax="501" yMax="920">
      <component glyphName="I" x="0" y="0" flags="0x204"/>
      <component glyphName="uni0302.cap" x="307" y="0" flags="0x4"/>
    </TTGlyph>
    <TTGlyph name="Idieresis" xMin="112" yMin="0" xMax="502" yMax="880">
      <component glyphName="I" x="0" y="0" flags="0x204"/>
      <component glyphName="uni0308.cap" x="307" y="0" flags="0x4"/>
    </TTGlyph>
    <TTGlyph name="Idotaccent" xMin="123" yMin="0" xMax="491" yMax="887">
      <component glyphName="I" x="0" y="0" flags="0x204"/>
      <component glyphName="uni0307.cap" x="307" y="0" flags="0x4"/>
    </TTGlyph>
    <TTGlyph name="Igrave" xMin="123" yMin="0" xMax="491" yMax="925">
      <component glyphName="I" x="0" y="0" flags="0x204"/>
      <component glyphName="uni0300.cap" x="307" y="0" flags="0x4"/>
    </TTGlyph>
    <TTGlyph name="Imacron" xMin="123" yMin="0" xMax="491" yMax="853">
      <component glyphName="I" x="0" y="0" flags="0x204"/>
      <component glyphName="uni0304.cap" x="307" y="0" flags="0x4"/>
    </TTGlyph>
    <TTGlyph name="Iogonek" xMin="123" yMin="-234" xMax="491" yMax="655">
      <contour>
        <pt x="123" y="0" on="1"/>
        <pt x="123" y="59" on="1"/>
        <pt x="252" y="83" on="1"/>
        <pt x="252" y="572" on="1"/>
        <pt x="123" y="596" on="1"/>
        <pt x="123" y="655" on="1"/>
        <pt x="491" y="655" on="1"/>
        <pt x="491" y="596" on="1"/>
        <pt x="364" y="572" on="1"/>
        <pt x="364" y="83" on="1"/>
        <pt x="491" y="59" on="1"/>
        <pt x="491" y="0" on="1"/>
        <pt x="339" y="0" on="1"/>
        <pt x="308" y="-43" on="0"/>
        <pt x="279" y="-100" on="0"/>
        <pt x="279" y="-118" on="1"/>
        <pt x="279" y="-138" on="0"/>
        <pt x="299" y="-155" on="0"/>
        <pt x="323" y="-156" on="1"/>
        <pt x="389" y="-160" on="1"/>
        <pt x="381" y="-234" on="1"/>
        <pt x="286" y="-230" on="1"/>
        <pt x="238" y="-227" on="0"/>
        <pt x="194" y="-192" on="0"/>
        <pt x="194" y="-156" on="1"/>
        <pt x="194" y="-129" on="0"/>
        <pt x="236" y="-57" on="0"/>
        <pt x="283" y="0" on="1"/>
      </contour>
    </TTGlyph>
    <TTGlyph name="Itilde" xMin="101" yMin="0" xMax="511" yMax="914">
      <component glyphName="I" x="0" y="0" flags="0x204"/>
      <component glyphName="uni0303.cap" x="307" y="0" flags="0x4"/>
    </TTGlyph>
    <TTGlyph name="J" xMin="41" yMin="-13" xMax="528" yMax="655">
      <contour>
        <pt x="325" y="-13" on="1"/>
        <pt x="253" y="-13" on="0"/>
        <pt x="131" y="50" on="0"/>
        <pt x="41" y="130" on="1"/>
        <pt x="110" y="212" on="1"/>
        <pt x="186" y="144" on="0"/>
        <pt x="280" y="88" on="0"/>
        <pt x="320" y="88" on="1"/>
        <pt x="368" y="88" on="0"/>
        <pt x="415" y="143" on="0"/>
        <pt x="415" y="198" on="1"/>
        <pt x="415" y="655" on="1"/>
        <pt x="528" y="655" on="1"/>
        <pt x="528" y="189" on="1"/>
        <pt x="528" y="94" on="0"/>
        <pt x="421" y="-13" on="0"/>
      </contour>
    </TTGlyph>
    <TTGlyph name="Jcircumflex" xMin="41" yMin="-13" xMax="665" yMax="910">
      <component glyphName="J" x="0" y="0" flags="0x204"/>
      <component glyphName="uni0302.cap" x="471" y="-10" flags="0x4"/>
    </TTGlyph>
    <TTGlyph name="K" xMin="88" yMin="0" xMax="597" yMax="655">
      <contour>
        <pt x="88" y="655" on="1"/>
        <pt x="201" y="655" on="1"/>
        <pt x="201" y="340" on="1"/>
        <pt x="454" y="655" on="1"/>
        <pt x="589" y="655" on="1"/>
        <pt x="589" y="653" on="1"/>
        <pt x="327" y="337" on="1"/>
        <pt x="597" y="2" on="1"/>
        <pt x="597" y="0" on="1"/>
        <pt x="454" y="0" on="1"/>
        <pt x="201" y="318" on="1"/>
        <pt x="201" y="0" on="1"/>
        <pt x="88" y="0" on="1"/>
      </contour>
    </TTGlyph>
    <TTGlyph name="L" xMin="93" yMin="0" xMax="548" yMax="655">
      <contour>
        <pt x="93" y="0" on="1"/>
        <pt x="93" y="655" on="1"/>
        <pt x="206" y="655" on="1"/>
        <pt x="206" y="93" on="1"/>
        <pt x="548" y="93" on="1"/>
        <pt x="548" y="0" on="1"/>
      </contour>
    </TTGlyph>
    <TTGlyph name="Lacute" xMin="63" yMin="0" xMax="548" yMax="925">
      <component glyphName="L" x="0" y="0" flags="0x204"/>
      <component glyphName="uni0301.cap" x="154" y="0" flags="0x4"/>
    </TTGlyph>
    <TTGlyph name="Lcaron" xMin="93" yMin="0" xMax="548" yMax="655">
      <component glyphName="L" x="0" y="0" flags="0x204"/>
      <component glyphName="uni0315" x="353" y="-55" flags="0x4"/>
    </TTGlyph>
    <TTGlyph name="Ldot" xMin="93" yMin="0" xMax="548" yMax="655">
      <component glyphName="middotcat.cap" x="225" y="0" flags="0x4"/>
      <component glyphName="L" x="0" y="0" flags="0x204"/>
    </TTGlyph>
    <TTGlyph name="Lslash" xMin="37" yMin="0" xMax="548" yMax="655">
      <contour>
        <pt x="118" y="246" on="1"/>
        <pt x="37" y="190" on="1"/>
        <pt x="37" y="268" on="1"/>
        <pt x="118" y="325" on="1"/>
        <pt x="118" y="655" on="1"/>
        <pt x="231" y="655" on="1"/>
        <pt x="231" y="397" on="1"/>
        <pt x="420" y="529" on="1"/>
        <pt x="420" y="450" on="1"/>
        <pt x="231" y="317" on="1"/>
        <pt x="231" y="93" on="1"/>
        <pt x="548" y="93" on="1"/>
        <pt x="548" y="0" on="1"/>
        <pt x="118" y="0" on="1"/>
      </contour>
    </TTGlyph>
    <TTGlyph name="M" xMin="58" yMin="0" xMax="556" yMax="655">
      <contour>
        <pt x="415" y="655" on="1"/>
        <pt x="528" y="655" on="1"/>
        <pt x="556" y="0" on="1"/>
        <pt x="451" y="0" on="1"/>
        <pt x="435" y="513" on="1"/>
        <pt x="317" y="173" on="1"/>
        <pt x="296" y="173" on="1"/>
        <pt x="177" y="508" on="1"/>
        <pt x="161" y="0" on="1"/>
        <pt x="58" y="0" on="1"/>
        <pt x="86" y="655" on="1"/>
        <pt x="202" y="655" on="1"/>
        <pt x="309" y="357" on="1"/>
      </contour>
    </TTGlyph>
    <TTGlyph name="N" xMin="83" yMin="0" xMax="531" yMax="655">
      <contour>
        <pt x="181" y="483" on="1"/>
        <pt x="187" y="0" on="1"/>
        <pt x="83" y="0" on="1"/>
        <pt x="83" y="655" on="1"/>
        <pt x="207" y="655" on="1"/>
        <pt x="433" y="180" on="1"/>
        <pt x="427" y="655" on="1"/>
        <pt x="531" y="655" on="1"/>
        <pt x="531" y="0" on="1"/>
        <pt x="411" y="0" on="1"/>
      </contour>
    </TTGlyph>
    <TTGlyph name="Nacute" xMin="83" yMin="0" xMax="531" yMax="920">
      <component glyphName="N" x="0" y="0" flags="0x204"/>
      <component glyphName="uni0301.cap" x="312" y="-5" flags="0x4"/>
    </TTGlyph>
    <TTGlyph name="Ncaron" xMin="83" yMin="0" xMax="531" yMax="915">
      <component glyphName="N" x="0" y="0" flags="0x204"/>
      <component glyphName="uni030C.cap" x="312" y="-5" flags="0x4"/>
    </TTGlyph>
    <TTGlyph name="Ntilde" xMin="83" yMin="0" xMax="531" yMax="914">
      <component glyphName="N" x="0" y="0" flags="0x204"/>
      <component glyphName="uni0303.cap" x="312" y="0" flags="0x4"/>
    </TTGlyph>
    <TTGlyph name="O" xMin="53" yMin="-15" xMax="561" yMax="670">
      <contour>
        <pt x="308" y="670" on="1"/>
        <pt x="430" y="670" on="0"/>
        <pt x="561" y="494" on="0"/>
        <pt x="561" y="328" on="1"/>
        <pt x="561" y="163" on="0"/>
        <pt x="428" y="-15" on="0"/>
        <pt x="306" y="-15" on="1"/>
        <pt x="184" y="-15" on="0"/>
        <pt x="53" y="161" on="0"/>
        <pt x="53" y="326" on="1"/>
        <pt x="53" y="491" on="0"/>
        <pt x="186" y="670" on="0"/>
      </contour>
      <contour>
        <pt x="307" y="576" on="1"/>
        <pt x="236" y="576" on="0"/>
        <pt x="168" y="454" on="0"/>
        <pt x="168" y="328" on="1"/>
        <pt x="168" y="202" on="0"/>
        <pt x="237" y="79" on="0"/>
        <pt x="307" y="79" on="1"/>
        <pt x="378" y="79" on="0"/>
        <pt x="446" y="201" on="0"/>
        <pt x="446" y="326" on="1"/>
        <pt x="446" y="452" on="0"/>
        <pt x="377" y="576" on="0"/>
      </contour>
    </TTGlyph>
    <TTGlyph name="OE" xMin="27" yMin="0" xMax="581" yMax="655">
      <contour>
        <pt x="581" y="0" on="1"/>
        <pt x="290" y="0" on="1"/>
        <pt x="163" y="0" on="0"/>
        <pt x="27" y="166" on="0"/>
        <pt x="27" y="320" on="1"/>
        <pt x="27" y="482" on="0"/>
        <pt x="176" y="655" on="0"/>
        <pt x="318" y="655" on="1"/>
        <pt x="581" y="655" on="1"/>
        <pt x="581" y="566" on="1"/>
        <pt x="402" y="566" on="1"/>
        <pt x="402" y="374" on="1"/>
        <pt x="562" y="374" on="1"/>
        <pt x="562" y="287" on="1"/>
        <pt x="402" y="287" on="1"/>
        <pt x="402" y="89" on="1"/>
        <pt x="581" y="89" on="1"/>
      </contour>
      <contour>
        <pt x="135" y="322" on="1"/>
        <pt x="135" y="210" on="0"/>
        <pt x="197" y="91" on="0"/>
        <pt x="256" y="89" on="1"/>
        <pt x="295" y="87" on="1"/>
        <pt x="295" y="567" on="1"/>
        <pt x="278" y="566" on="1"/>
        <pt x="206" y="563" on="0"/>
        <pt x="135" y="442" on="0"/>
      </contour>
    </TTGlyph>
    <TTGlyph name="Oacute" xMin="53" yMin="-15" xMax="561" yMax="930">
      <component glyphName="O" x="0" y="0" flags="0x204"/>
      <component glyphName="uni0301.cap" x="308" y="5" flags="0x4"/>
    </TTGlyph>
    <TTGlyph name="Obreve" xMin="53" yMin="-15" xMax="561" yMax="923">
      <component glyphName="O" x="0" y="0" flags="0x204"/>
      <component glyphName="uni0306.cap" x="308" y="5" flags="0x4"/>
    </TTGlyph>
    <TTGlyph name="Ocircumflex" xMin="53" yMin="-15" xMax="561" yMax="920">
      <component glyphName="O" x="0" y="0" flags="0x204"/>
      <component glyphName="uni0302.cap" x="308" y="0" flags="0x4"/>
    </TTGlyph>
    <TTGlyph name="Odieresis" xMin="53" yMin="-15" xMax="561" yMax="885">
      <component glyphName="O" x="0" y="0" flags="0x204"/>
      <component glyphName="uni0308.cap" x="308" y="5" flags="0x4"/>
    </TTGlyph>
    <TTGlyph name="Ograve" xMin="53" yMin="-15" xMax="561" yMax="930">
      <component glyphName="O" x="0" y="0" flags="0x204"/>
      <component glyphName="uni0300.cap" x="308" y="5" flags="0x4"/>
    </TTGlyph>
    <TTGlyph name="Ohorn" xMin="53" yMin="-15" xMax="621" yMax="768">
      <contour>
        <pt x="53" y="321" on="1"/>
        <pt x="53" y="481" on="0"/>
        <pt x="186" y="655" on="0"/>
        <pt x="307" y="655" on="1"/>
        <pt x="420" y="655" on="1"/>
        <pt x="475" y="655" on="0"/>
        <pt x="516" y="700" on="0"/>
        <pt x="519" y="768" on="1"/>
        <pt x="621" y="768" on="1"/>
        <pt x="619" y="677" on="0"/>
        <pt x="560" y="590" on="0"/>
        <pt x="500" y="590" on="1"/>
        <pt x="487" y="590" on="0"/>
        <pt x="457" y="594" on="0"/>
        <pt x="439" y="599" on="1"/>
        <pt x="436" y="592" on="1"/>
        <pt x="501" y="552" on="0"/>
        <pt x="561" y="423" on="0"/>
        <pt x="561" y="323" on="1"/>
        <pt x="561" y="160" on="0"/>
        <pt x="428" y="-15" on="0"/>
        <pt x="306" y="-15" on="1"/>
        <pt x="184" y="-15" on="0"/>
        <pt x="53" y="158" on="0"/>
      </contour>
      <contour>
        <pt x="307" y="561" on="1"/>
        <pt x="236" y="561" on="0"/>
        <pt x="168" y="444" on="0"/>
        <pt x="168" y="323" on="1"/>
        <pt x="168" y="200" on="0"/>
        <pt x="237" y="79" on="0"/>
        <pt x="307" y="79" on="1"/>
        <pt x="378" y="79" on="0"/>
        <pt x="446" y="198" on="0"/>
        <pt x="446" y="321" on="1"/>
        <pt x="446" y="442" on="0"/>
        <pt x="377" y="561" on="0"/>
      </contour>
    </TTGlyph>
    <TTGlyph name="Ohungarumlaut" xMin="53" yMin="-15" xMax="566" yMax="927">
      <component glyphName="O" x="0" y="0" flags="0x204"/>
      <component glyphName="uni030B.cap" x="308" y="5" flags="0x4"/>
    </TTGlyph>
    <TTGlyph name="Omacron" xMin="53" yMin="-15" xMax="561" yMax="858">
      <component glyphName="O" x="0" y="0" flags="0x204"/>
      <component glyphName="uni0304.cap" x="308" y="5" flags="0x4"/>
    </TTGlyph>
    <TTGlyph name="Oslash" xMin="32" yMin="-71" xMax="582" yMax="726">
      <contour>
        <pt x="561" y="328" on="1"/>
        <pt x="561" y="163" on="0"/>
        <pt x="428" y="-15" on="0"/>
        <pt x="306" y="-15" on="1"/>
        <pt x="270" y="-15" on="0"/>
        <pt x="203" y="5" on="0"/>
        <pt x="174" y="25" on="1"/>
        <pt x="123" y="-71" on="1"/>
        <pt x="32" y="-71" on="1"/>
        <pt x="122" y="76" on="1"/>
        <pt x="88" y="122" on="0"/>
        <pt x="53" y="249" on="0"/>
        <pt x="53" y="326" on="1"/>
        <pt x="53" y="491" on="0"/>
        <pt x="186" y="670" on="0"/>
        <pt x="308" y="670" on="1"/>
        <pt x="344" y="670" on="0"/>
        <pt x="410" y="650" on="0"/>
        <pt x="438" y="630" on="1"/>
        <pt x="489" y="726" on="1"/>
        <pt x="582" y="726" on="1"/>
        <pt x="491" y="579" on="1"/>
        <pt x="525" y="533" on="0"/>
        <pt x="561" y="405" on="0"/>
      </contour>
      <contour>
        <pt x="307" y="576" on="1"/>
        <pt x="236" y="576" on="0"/>
        <pt x="168" y="454" on="0"/>
        <pt x="168" y="328" on="1"/>
        <pt x="168" y="197" on="0"/>
        <pt x="233" y="79" on="0"/>
        <pt x="307" y="79" on="1"/>
        <pt x="378" y="79" on="0"/>
        <pt x="446" y="201" on="0"/>
        <pt x="446" y="326" on="1"/>
        <pt x="446" y="456" on="0"/>
        <pt x="380" y="576" on="0"/>
      </contour>
    </TTGlyph>
    <TTGlyph name="Otilde" xMin="53" yMin="-15" xMax="561" yMax="919">
      <component glyphName="O" x="0" y="0" flags="0x204"/>
      <component glyphName="uni0303.cap" x="308" y="5" flags="0x4"/>
    </TTGlyph>
    <TTGlyph name="P" xMin="88" yMin="0" xMax="572" yMax="655">
      <contour>
        <pt x="88" y="0" on="1"/>
        <pt x="88" y="655" on="1"/>
        <pt x="314" y="655" on="1"/>
        <pt x="436" y="655" on="0"/>
        <pt x="572" y="542" on="0"/>
        <pt x="572" y="441" on="1"/>
        <pt x="572" y="336" on="0"/>
        <pt x="433" y="222" on="0"/>
        <pt x="305" y="222" on="1"/>
        <pt x="201" y="222" on="1"/>
        <pt x="201" y="0" on="1"/>
      </contour>
      <contour>
        <pt x="458" y="439" on="1"/>
        <pt x="458" y="498" on="0"/>
        <pt x="387" y="561" on="0"/>
        <pt x="319" y="561" on="1"/>
        <pt x="201" y="561" on="1"/>
        <pt x="201" y="313" on="1"/>
        <pt x="312" y="313" on="1"/>
        <pt x="382" y="313" on="0"/>
        <pt x="458" y="379" on="0"/>
      </contour>
    </TTGlyph>
    <TTGlyph name="Q" xMin="53" yMin="-173" xMax="616" yMax="670">
      <contour>
        <pt x="477" y="61" on="1"/>
        <pt x="616" y="-110" on="1"/>
        <pt x="518" y="-173" on="1"/>
        <pt x="407" y="9" on="1"/>
        <pt x="384" y="-2" on="0"/>
        <pt x="334" y="-13" on="0"/>
        <pt x="306" y="-13" on="1"/>
        <pt x="184" y="-13" on="0"/>
        <pt x="53" y="161" on="0"/>
        <pt x="53" y="325" on="1"/>
        <pt x="53" y="491" on="0"/>
        <pt x="186" y="670" on="0"/>
        <pt x="308" y="670" on="1"/>
        <pt x="430" y="670" on="0"/>
        <pt x="561" y="494" on="0"/>
        <pt x="561" y="328" on="1"/>
        <pt x="561" y="242" on="0"/>
        <pt x="518" y="106" on="0"/>
      </contour>
      <contour>
        <pt x="307" y="576" on="1"/>
        <pt x="236" y="576" on="0"/>
        <pt x="168" y="454" on="0"/>
        <pt x="168" y="327" on="1"/>
        <pt x="168" y="201" on="0"/>
        <pt x="237" y="78" on="0"/>
        <pt x="307" y="78" on="1"/>
        <pt x="381" y="78" on="0"/>
        <pt x="446" y="196" on="0"/>
        <pt x="446" y="326" on="1"/>
        <pt x="446" y="452" on="0"/>
        <pt x="377" y="576" on="0"/>
      </contour>
    </TTGlyph>
    <TTGlyph name="R" xMin="88" yMin="0" xMax="590" yMax="655">
      <contour>
        <pt x="443" y="182" on="1"/>
        <pt x="590" y="4" on="1"/>
        <pt x="590" y="0" on="1"/>
        <pt x="449" y="0" on="1"/>
        <pt x="327" y="165" on="1"/>
        <pt x="292" y="213" on="0"/>
        <pt x="242" y="245" on="0"/>
        <pt x="200" y="250" on="1"/>
        <pt x="200" y="0" on="1"/>
        <pt x="88" y="0" on="1"/>
        <pt x="88" y="655" on="1"/>
        <pt x="331" y="655" on="1"/>
        <pt x="434" y="655" on="0"/>
        <pt x="546" y="559" on="0"/>
        <pt x="546" y="471" on="1"/>
        <pt x="546" y="387" on="0"/>
        <pt x="442" y="295" on="0"/>
        <pt x="332" y="278" on="1"/>
        <pt x="332" y="272" on="1"/>
        <pt x="367" y="256" on="0"/>
        <pt x="414" y="217" on="0"/>
      </contour>
      <contour>
        <pt x="433" y="461" on="1"/>
        <pt x="433" y="513" on="0"/>
        <pt x="373" y="565" on="0"/>
        <pt x="313" y="565" on="1"/>
        <pt x="200" y="565" on="1"/>
        <pt x="200" y="327" on="1"/>
        <pt x="236" y="332" on="1"/>
        <pt x="341" y="345" on="0"/>
        <pt x="433" y="403" on="0"/>
      </contour>
    </TTGlyph>
    <TTGlyph name="Racute" xMin="88" yMin="0" xMax="590" yMax="925">
      <component glyphName="R" x="0" y="0" flags="0x204"/>
      <component glyphName="uni0301.cap" x="315" y="0" flags="0x4"/>
    </TTGlyph>
    <TTGlyph name="Rcaron" xMin="88" yMin="0" xMax="590" yMax="920">
      <component glyphName="R" x="0" y="0" flags="0x204"/>
      <component glyphName="uni030C.cap" x="315" y="0" flags="0x4"/>
    </TTGlyph>
    <TTGlyph name="S" xMin="64" yMin="-14" xMax="545" yMax="667">
      <contour>
        <pt x="305" y="80" on="1"/>
        <pt x="368" y="80" on="0"/>
        <pt x="431" y="127" on="0"/>
        <pt x="431" y="174" on="1"/>
        <pt x="431" y="213" on="0"/>
        <pt x="383" y="256" on="0"/>
        <pt x="321" y="275" on="1"/>
        <pt x="254" y="296" on="1"/>
        <pt x="167" y="324" on="0"/>
        <pt x="88" y="415" on="0"/>
        <pt x="88" y="487" on="1"/>
        <pt x="88" y="566" on="0"/>
        <pt x="215" y="667" on="0"/>
        <pt x="321" y="667" on="1"/>
        <pt x="369" y="667" on="0"/>
        <pt x="460" y="654" on="0"/>
        <pt x="523" y="638" on="1"/>
        <pt x="507" y="542" on="1"/>
        <pt x="448" y="558" on="0"/>
        <pt x="355" y="574" on="0"/>
        <pt x="319" y="574" on="1"/>
        <pt x="261" y="574" on="0"/>
        <pt x="201" y="534" on="0"/>
        <pt x="201" y="496" on="1"/>
        <pt x="201" y="456" on="0"/>
        <pt x="250" y="410" on="0"/>
        <pt x="310" y="391" on="1"/>
        <pt x="379" y="369" on="1"/>
        <pt x="469" y="342" on="0"/>
        <pt x="545" y="257" on="0"/>
        <pt x="545" y="182" on="1"/>
        <pt x="545" y="91" on="0"/>
        <pt x="417" y="-14" on="0"/>
        <pt x="303" y="-14" on="1"/>
        <pt x="250" y="-14" on="0"/>
        <pt x="135" y="9" on="0"/>
        <pt x="64" y="33" on="1"/>
        <pt x="88" y="129" on="1"/>
        <pt x="159" y="104" on="0"/>
        <pt x="267" y="80" on="0"/>
      </contour>
    </TTGlyph>
    <TTGlyph name="Sacute" xMin="64" yMin="-14" xMax="545" yMax="930">
      <component glyphName="S" x="0" y="0" flags="0x204"/>
      <component glyphName="uni0301.cap" x="318" y="5" flags="0x4"/>
    </TTGlyph>
    <TTGlyph name="Scaron" xMin="64" yMin="-14" xMax="545" yMax="925">
      <component glyphName="S" x="0" y="0" flags="0x204"/>
      <component glyphName="uni030C.cap" x="318" y="5" flags="0x4"/>
    </TTGlyph>
    <TTGlyph name="Scircumflex" xMin="64" yMin="-14" xMax="545" yMax="920">
      <component glyphName="S" x="0" y="0" flags="0x204"/>
      <component glyphName="uni0302.cap" x="318" y="0" flags="0x4"/>
    </TTGlyph>
    <TTGlyph name="T" xMin="45" yMin="0" xMax="569" yMax="655">
      <contour>
        <pt x="251" y="561" on="1"/>
        <pt x="45" y="561" on="1"/>
        <pt x="45" y="655" on="1"/>
        <pt x="569" y="655" on="1"/>
        <pt x="569" y="561" on="1"/>
        <pt x="363" y="561" on="1"/>
        <pt x="363" y="0" on="1"/>
        <pt x="251" y="0" on="1"/>
      </contour>
    </TTGlyph>
    <TTGlyph name="Tbar" xMin="45" yMin="0" xMax="569" yMax="655">
      <contour>
        <pt x="251" y="279" on="1"/>
        <pt x="111" y="279" on="1"/>
        <pt x="111" y="343" on="1"/>
        <pt x="251" y="343" on="1"/>
        <pt x="251" y="561" on="1"/>
        <pt x="45" y="561" on="1"/>
        <pt x="45" y="655" on="1"/>
        <pt x="569" y="655" on="1"/>
        <pt x="569" y="561" on="1"/>
        <pt x="363" y="561" on="1"/>
        <pt x="363" y="343" on="1"/>
        <pt x="504" y="343" on="1"/>
        <pt x="504" y="279" on="1"/>
        <pt x="363" y="279" on="1"/>
        <pt x="363" y="0" on="1"/>
        <pt x="251" y="0" on="1"/>
      </contour>
    </TTGlyph>
    <TTGlyph name="Tcaron" xMin="45" yMin="0" xMax="569" yMax="920">
      <component glyphName="T" x="0" y="0" flags="0x204"/>
      <component glyphName="uni030C.cap" x="307" y="0" flags="0x4"/>
    </TTGlyph>
    <TTGlyph name="Thorn" xMin="88" yMin="0" xMax="572" yMax="655">
      <contour>
        <pt x="88" y="0" on="1"/>
        <pt x="88" y="655" on="1"/>
        <pt x="201" y="655" on="1"/>
        <pt x="201" y="516" on="1"/>
        <pt x="341" y="516" on="1"/>
        <pt x="450" y="516" on="0"/>
        <pt x="572" y="417" on="0"/>
        <pt x="572" y="329" on="1"/>
        <pt x="572" y="241" on="0"/>
        <pt x="443" y="138" on="0"/>
        <pt x="332" y="138" on="1"/>
        <pt x="201" y="138" on="1"/>
        <pt x="201" y="0" on="1"/>
      </contour>
      <contour>
        <pt x="458" y="327" on="1"/>
        <pt x="458" y="374" on="0"/>
        <pt x="400" y="422" on="0"/>
        <pt x="345" y="422" on="1"/>
        <pt x="201" y="422" on="1"/>
        <pt x="201" y="230" on="1"/>
        <pt x="339" y="230" on="1"/>
        <pt x="396" y="230" on="0"/>
        <pt x="458" y="281" on="0"/>
      </contour>
    </TTGlyph>
    <TTGlyph name="U" xMin="73" yMin="-15" xMax="541" yMax="655">
      <contour>
        <pt x="307" y="87" on="1"/>
        <pt x="369" y="87" on="0"/>
        <pt x="429" y="157" on="0"/>
        <pt x="429" y="229" on="1"/>
        <pt x="429" y="655" on="1"/>
        <pt x="541" y="655" on="1"/>
        <pt x="541" y="230" on="1"/>
        <pt x="541" y="106" on="0"/>
        <pt x="424" y="-15" on="0"/>
        <pt x="304" y="-15" on="1"/>
        <pt x="188" y="-15" on="0"/>
        <pt x="73" y="107" on="0"/>
        <pt x="73" y="230" on="1"/>
        <pt x="73" y="655" on="1"/>
        <pt x="186" y="655" on="1"/>
        <pt x="186" y="229" on="1"/>
        <pt x="186" y="158" on="0"/>
        <pt x="246" y="87" on="0"/>
      </contour>
    </TTGlyph>
    <TTGlyph name="Uacute" xMin="73" yMin="-15" xMax="541" yMax="920">
      <component glyphName="U" x="0" y="0" flags="0x204"/>
      <component glyphName="uni0301.cap" x="307" y="-5" flags="0x4"/>
    </TTGlyph>
    <TTGlyph name="Ubreve" xMin="73" yMin="-15" xMax="541" yMax="913">
      <component glyphName="U" x="0" y="0" flags="0x204"/>
      <component glyphName="uni0306.cap" x="307" y="-5" flags="0x4"/>
    </TTGlyph>
    <TTGlyph name="Ucircumflex" xMin="73" yMin="-15" xMax="541" yMax="920">
      <component glyphName="U" x="0" y="0" flags="0x204"/>
      <component glyphName="uni0302.cap" x="307" y="0" flags="0x4"/>
    </TTGlyph>
    <TTGlyph name="Udieresis" xMin="73" yMin="-15" xMax="541" yMax="880">
      <component glyphName="U" x="0" y="0" flags="0x204"/>
      <component glyphName="uni0308.cap" x="307" y="0" flags="0x4"/>
    </TTGlyph>
    <TTGlyph name="Ugrave" xMin="73" yMin="-15" xMax="541" yMax="920">
      <component glyphName="U" x="0" y="0" flags="0x204"/>
      <component glyphName="uni0300.cap" x="307" y="-5" flags="0x4"/>
    </TTGlyph>
    <TTGlyph name="Uhorn" xMin="73" yMin="-15" xMax="676" yMax="768">
      <contour>
        <pt x="307" y="87" on="1"/>
        <pt x="369" y="87" on="0"/>
        <pt x="429" y="157" on="0"/>
        <pt x="429" y="229" on="1"/>
        <pt x="429" y="655" on="1"/>
        <pt x="476" y="655" on="1"/>
        <pt x="531" y="655" on="0"/>
        <pt x="571" y="700" on="0"/>
        <pt x="574" y="768" on="1"/>
        <pt x="676" y="768" on="1"/>
        <pt x="674" y="675" on="0"/>
        <pt x="609" y="588" on="0"/>
        <pt x="541" y="588" on="1"/>
        <pt x="541" y="230" on="1"/>
        <pt x="541" y="106" on="0"/>
        <pt x="424" y="-15" on="0"/>
        <pt x="304" y="-15" on="1"/>
        <pt x="188" y="-15" on="0"/>
        <pt x="73" y="107" on="0"/>
        <pt x="73" y="230" on="1"/>
        <pt x="73" y="655" on="1"/>
        <pt x="186" y="655" on="1"/>
        <pt x="186" y="229" on="1"/>
        <pt x="186" y="158" on="0"/>
        <pt x="246" y="87" on="0"/>
      </contour>
    </TTGlyph>
    <TTGlyph name="Uhungarumlaut" xMin="73" yMin="-15" xMax="565" yMax="922">
      <component glyphName="U" x="0" y="0" flags="0x204"/>
      <component glyphName="uni030B.cap" x="307" y="0" flags="0x4"/>
    </TTGlyph>
    <TTGlyph name="Umacron" xMin="73" yMin="-15" xMax="541" yMax="853">
      <component glyphName="U" x="0" y="0" flags="0x204"/>
      <component glyphName="uni0304.cap" x="307" y="0" flags="0x4"/>
    </TTGlyph>
    <TTGlyph name="Uogonek" xMin="73" yMin="-239" xMax="541" yMax="655">
      <contour>
        <pt x="203" y="-161" on="1"/>
        <pt x="203" y="-135" on="0"/>
        <pt x="241" y="-68" on="0"/>
        <pt x="284" y="-15" on="1"/>
        <pt x="178" y="-10" on="0"/>
        <pt x="73" y="112" on="0"/>
        <pt x="73" y="230" on="1"/>
        <pt x="73" y="655" on="1"/>
        <pt x="186" y="655" on="1"/>
        <pt x="186" y="229" on="1"/>
        <pt x="186" y="158" on="0"/>
        <pt x="246" y="87" on="0"/>
        <pt x="307" y="87" on="1"/>
        <pt x="369" y="87" on="0"/>
        <pt x="429" y="157" on="0"/>
        <pt x="429" y="229" on="1"/>
        <pt x="429" y="655" on="1"/>
        <pt x="541" y="655" on="1"/>
        <pt x="541" y="230" on="1"/>
        <pt x="541" y="116" on="0"/>
        <pt x="443" y="-4" on="0"/>
        <pt x="343" y="-13" on="1"/>
        <pt x="315" y="-52" on="0"/>
        <pt x="288" y="-104" on="0"/>
        <pt x="288" y="-124" on="1"/>
        <pt x="288" y="-143" on="0"/>
        <pt x="308" y="-160" on="0"/>
        <pt x="332" y="-161" on="1"/>
        <pt x="398" y="-165" on="1"/>
        <pt x="390" y="-239" on="1"/>
        <pt x="295" y="-235" on="1"/>
        <pt x="247" y="-233" on="0"/>
        <pt x="203" y="-197" on="0"/>
      </contour>
    </TTGlyph>
    <TTGlyph name="Uring" xMin="73" yMin="-15" xMax="541" yMax="980">
      <component glyphName="U" x="0" y="0" flags="0x204"/>
      <component glyphName="uni030A.cap" x="307" y="-5" flags="0x4"/>
    </TTGlyph>
    <TTGlyph name="Utilde" xMin="73" yMin="-15" xMax="541" yMax="914">
      <component glyphName="U" x="0" y="0" flags="0x204"/>
      <component glyphName="uni0303.cap" x="307" y="0" flags="0x4"/>
    </TTGlyph>
    <TTGlyph name="V" xMin="35" yMin="0" xMax="579" yMax="655">
      <contour>
        <pt x="239" y="0" on="1"/>
        <pt x="35" y="655" on="1"/>
        <pt x="152" y="655" on="1"/>
        <pt x="310" y="128" on="1"/>
        <pt x="468" y="655" on="1"/>
        <pt x="579" y="655" on="1"/>
        <pt x="376" y="0" on="1"/>
      </contour>
    </TTGlyph>
    <TTGlyph name="W" xMin="42" yMin="0" xMax="572" yMax="655">
      <contour>
        <pt x="572" y="655" on="1"/>
        <pt x="488" y="0" on="1"/>
        <pt x="384" y="0" on="1"/>
        <pt x="305" y="330" on="1"/>
        <pt x="227" y="0" on="1"/>
        <pt x="126" y="0" on="1"/>
        <pt x="42" y="655" on="1"/>
        <pt x="149" y="655" on="1"/>
        <pt x="200" y="171" on="1"/>
        <pt x="296" y="531" on="1"/>
        <pt x="320" y="531" on="1"/>
        <pt x="415" y="172" on="1"/>
        <pt x="467" y="655" on="1"/>
      </contour>
    </TTGlyph>
    <TTGlyph name="Wacute" xMin="42" yMin="0" xMax="572" yMax="915">
      <component glyphName="W" x="0" y="0" flags="0x204"/>
      <component glyphName="uni0301.cap" x="307" y="-10" flags="0x4"/>
    </TTGlyph>
    <TTGlyph name="Wcircumflex" xMin="42" yMin="0" xMax="572" yMax="920">
      <component glyphName="W" x="0" y="0" flags="0x204"/>
      <component glyphName="uni0302.cap" x="307" y="0" flags="0x4"/>
    </TTGlyph>
    <TTGlyph name="Wdieresis" xMin="42" yMin="0" xMax="572" yMax="880">
      <component glyphName="W" x="0" y="0" flags="0x204"/>
      <component glyphName="uni0308.cap" x="307" y="0" flags="0x4"/>
    </TTGlyph>
    <TTGlyph name="Wgrave" xMin="42" yMin="0" xMax="572" yMax="915">
      <component glyphName="W" x="0" y="0" flags="0x204"/>
      <component glyphName="uni0300.cap" x="307" y="-10" flags="0x4"/>
    </TTGlyph>
    <TTGlyph name="X" xMin="35" yMin="0" xMax="579" yMax="655">
      <contour>
        <pt x="157" y="0" on="1"/>
        <pt x="35" y="0" on="1"/>
        <pt x="243" y="335" on="1"/>
        <pt x="49" y="655" on="1"/>
        <pt x="177" y="655" on="1"/>
        <pt x="307" y="422" on="1"/>
        <pt x="438" y="655" on="1"/>
        <pt x="562" y="655" on="1"/>
        <pt x="368" y="339" on="1"/>
        <pt x="579" y="0" on="1"/>
        <pt x="449" y="0" on="1"/>
        <pt x="304" y="254" on="1"/>
      </contour>
    </TTGlyph>
    <TTGlyph name="Y" xMin="29" yMin="0" xMax="585" yMax="655">
      <contour>
        <pt x="461" y="655" on="1"/>
        <pt x="585" y="655" on="1"/>
        <pt x="363" y="280" on="1"/>
        <pt x="363" y="0" on="1"/>
        <pt x="251" y="0" on="1"/>
        <pt x="251" y="277" on="1"/>
        <pt x="29" y="655" on="1"/>
        <pt x="157" y="655" on="1"/>
        <pt x="309" y="384" on="1"/>
      </contour>
    </TTGlyph>
    <TTGlyph name="Yacute" xMin="29" yMin="0" xMax="585" yMax="920">
      <component glyphName="Y" x="0" y="0" flags="0x204"/>
      <component glyphName="uni0301.cap" x="308" y="-5" flags="0x4"/>
    </TTGlyph>
    <TTGlyph name="Ycircumflex" xMin="29" yMin="0" xMax="585" yMax="920">
      <component glyphName="Y" x="0" y="0" flags="0x204"/>
      <component glyphName="uni0302.cap" x="308" y="0" flags="0x4"/>
    </TTGlyph>
    <TTGlyph name="Ydieresis" xMin="29" yMin="0" xMax="585" yMax="880">
      <component glyphName="Y" x="0" y="0" flags="0x204"/>
      <component glyphName="uni0308.cap" x="308" y="0" flags="0x4"/>
    </TTGlyph>
    <TTGlyph name="Ygrave" xMin="29" yMin="0" xMax="585" yMax="920">
      <component glyphName="Y" x="0" y="0" flags="0x204"/>
      <component glyphName="uni0300.cap" x="308" y="-5" flags="0x4"/>
    </TTGlyph>
    <TTGlyph name="Z" xMin="61" yMin="0" xMax="554" yMax="655">
      <contour>
        <pt x="554" y="0" on="1"/>
        <pt x="61" y="0" on="1"/>
        <pt x="61" y="77" on="1"/>
        <pt x="391" y="552" on="1"/>
        <pt x="391" y="557" on="1"/>
        <pt x="74" y="557" on="1"/>
        <pt x="74" y="655" on="1"/>
        <pt x="541" y="655" on="1"/>
        <pt x="541" y="577" on="1"/>
        <pt x="206" y="101" on="1"/>
        <pt x="206" y="97" on="1"/>
        <pt x="554" y="97" on="1"/>
      </contour>
    </TTGlyph>
    <TTGlyph name="Zacute" xMin="61" yMin="0" xMax="554" yMax="925">
      <component glyphName="Z" x="0" y="0" flags="0x204"/>
      <component glyphName="uni0301.cap" x="313" y="0" flags="0x4"/>
    </TTGlyph>
    <TTGlyph name="Zcaron" xMin="61" yMin="0" xMax="554" yMax="920">
      <component glyphName="Z" x="0" y="0" flags="0x204"/>
      <component glyphName="uni030C.cap" x="313" y="0" flags="0x4"/>
    </TTGlyph>
    <TTGlyph name="Zdotaccent" xMin="61" yMin="0" xMax="554" yMax="887">
      <component glyphName="Z" x="0" y="0" flags="0x204"/>
      <component glyphName="uni0307.cap" x="313" y="0" flags="0x4"/>
    </TTGlyph>
    <TTGlyph name="a" xMin="57" yMin="-9" xMax="584" yMax="480">
      <contour>
        <pt x="502" y="324" on="1"/>
        <pt x="502" y="131" on="1"/>
        <pt x="502" y="104" on="0"/>
        <pt x="517" y="84" on="0"/>
        <pt x="539" y="83" on="1"/>
        <pt x="584" y="79" on="1"/>
        <pt x="575" y="-5" on="1"/>
        <pt x="512" y="-1" on="1"/>
        <pt x="464" y="1" on="0"/>
        <pt x="411" y="30" on="0"/>
        <pt x="400" y="59" on="1"/>
        <pt x="390" y="59" on="1"/>
        <pt x="347" y="25" on="0"/>
        <pt x="253" y="-9" on="0"/>
        <pt x="201" y="-9" on="1"/>
        <pt x="134" y="-9" on="0"/>
        <pt x="57" y="64" on="0"/>
        <pt x="57" y="128" on="1"/>
        <pt x="57" y="199" on="0"/>
        <pt x="133" y="265" on="0"/>
        <pt x="225" y="276" on="1"/>
        <pt x="395" y="294" on="1"/>
        <pt x="395" y="323" on="1"/>
        <pt x="395" y="363" on="0"/>
        <pt x="347" y="391" on="0"/>
        <pt x="284" y="391" on="1"/>
        <pt x="255" y="391" on="0"/>
        <pt x="165" y="383" on="0"/>
        <pt x="113" y="375" on="1"/>
        <pt x="102" y="464" on="1"/>
        <pt x="154" y="472" on="0"/>
        <pt x="251" y="480" on="0"/>
        <pt x="289" y="480" on="1"/>
        <pt x="404" y="480" on="0"/>
        <pt x="502" y="409" on="0"/>
      </contour>
      <contour>
        <pt x="166" y="135" on="1"/>
        <pt x="166" y="106" on="0"/>
        <pt x="199" y="75" on="0"/>
        <pt x="230" y="75" on="1"/>
        <pt x="267" y="75" on="0"/>
        <pt x="344" y="108" on="0"/>
        <pt x="395" y="144" on="1"/>
        <pt x="395" y="225" on="1"/>
        <pt x="251" y="206" on="1"/>
        <pt x="205" y="200" on="0"/>
        <pt x="166" y="169" on="0"/>
      </contour>
    </TTGlyph>
    <TTGlyph name="aacute" xMin="57" yMin="-9" xMax="584" yMax="757">
      <component glyphName="a" x="0" y="0" flags="0x204"/>
      <component glyphName="uni0301" x="301" y="5" flags="0x4"/>
    </TTGlyph>
    <TTGlyph name="abreve" xMin="57" yMin="-9" xMax="584" yMax="750">
      <component glyphName="a" x="0" y="0" flags="0x204"/>
      <component glyphName="uni0306" x="301" y="5" flags="0x4"/>
    </TTGlyph>
    <TTGlyph name="acircumflex" xMin="57" yMin="-9" xMax="584" yMax="752">
      <component glyphName="a" x="0" y="0" flags="0x204"/>
      <component glyphName="uni0302" x="301" y="0" flags="0x4"/>
    </TTGlyph>
    <TTGlyph name="acute" xMin="212" yMin="547" xMax="478" yMax="752">
      <component glyphName="uni0301" x="307" y="0" flags="0x4"/>
    </TTGlyph>
    <TTGlyph name="adieresis" xMin="57" yMin="-9" xMax="584" yMax="698">
      <component glyphName="a" x="0" y="0" flags="0x204"/>
      <component glyphName="uni0308" x="301" y="5" flags="0x4"/>
    </TTGlyph>
    <TTGlyph name="ae" xMin="21" yMin="-10" xMax="594" yMax="482">
      <contour>
        <pt x="473" y="77" on="1"/>
        <pt x="517" y="74" on="1"/>
        <pt x="513" y="-10" on="1"/>
        <pt x="448" y="-8" on="1"/>
        <pt x="391" y="-7" on="0"/>
        <pt x="313" y="27" on="0"/>
        <pt x="290" y="59" on="1"/>
        <pt x="269" y="59" on="1"/>
        <pt x="231" y="23" on="0"/>
        <pt x="167" y="-9" on="0"/>
        <pt x="133" y="-9" on="1"/>
        <pt x="80" y="-9" on="0"/>
        <pt x="21" y="63" on="0"/>
        <pt x="21" y="128" on="1"/>
        <pt x="21" y="193" on="0"/>
        <pt x="88" y="261" on="0"/>
        <pt x="166" y="276" on="1"/>
        <pt x="248" y="292" on="1"/>
        <pt x="248" y="323" on="1"/>
        <pt x="248" y="365" on="0"/>
        <pt x="221" y="396" on="0"/>
        <pt x="184" y="396" on="1"/>
        <pt x="163" y="396" on="0"/>
        <pt x="110" y="390" on="0"/>
        <pt x="75" y="383" on="1"/>
        <pt x="65" y="469" on="1"/>
        <pt x="101" y="475" on="0"/>
        <pt x="171" y="482" on="0"/>
        <pt x="201" y="482" on="1"/>
        <pt x="248" y="482" on="0"/>
        <pt x="308" y="451" on="0"/>
        <pt x="323" y="419" on="1"/>
        <pt x="347" y="450" on="0"/>
        <pt x="404" y="482" on="0"/>
        <pt x="436" y="482" on="1"/>
        <pt x="508" y="482" on="0"/>
        <pt x="594" y="354" on="0"/>
        <pt x="594" y="245" on="1"/>
        <pt x="594" y="233" on="0"/>
        <pt x="592" y="209" on="0"/>
        <pt x="590" y="197" on="1"/>
        <pt x="350" y="197" on="1"/>
        <pt x="355" y="134" on="0"/>
        <pt x="411" y="80" on="0"/>
      </contour>
      <contour>
        <pt x="429" y="399" on="1"/>
        <pt x="399" y="399" on="0"/>
        <pt x="357" y="333" on="0"/>
        <pt x="351" y="276" on="1"/>
        <pt x="493" y="276" on="1"/>
        <pt x="490" y="335" on="0"/>
        <pt x="457" y="399" on="0"/>
      </contour>
      <contour>
        <pt x="128" y="135" on="1"/>
        <pt x="128" y="107" on="0"/>
        <pt x="151" y="75" on="0"/>
        <pt x="171" y="75" on="1"/>
        <pt x="188" y="75" on="0"/>
        <pt x="222" y="92" on="0"/>
        <pt x="261" y="121" on="1"/>
        <pt x="254" y="142" on="0"/>
        <pt x="248" y="192" on="0"/>
        <pt x="248" y="222" on="1"/>
        <pt x="195" y="208" on="1"/>
        <pt x="158" y="198" on="0"/>
        <pt x="128" y="167" on="0"/>
      </contour>
    </TTGlyph>
    <TTGlyph name="agrave" xMin="57" yMin="-9" xMax="584" yMax="757">
      <component glyphName="a" x="0" y="0" flags="0x204"/>
      <component glyphName="uni0300" x="301" y="5" flags="0x4"/>
    </TTGlyph>
    <TTGlyph name="amacron" xMin="57" yMin="-9" xMax="584" yMax="671">
      <component glyphName="a" x="0" y="0" flags="0x204"/>
      <component glyphName="uni0304" x="301" y="5" flags="0x4"/>
    </TTGlyph>
    <TTGlyph name="ampersand" xMin="50" yMin="-11" xMax="586" yMax="669">
      <contour>
        <pt x="325" y="669" on="1"/>
        <pt x="351" y="669" on="0"/>
        <pt x="422" y="661" on="0"/>
        <pt x="476" y="652" on="1"/>
        <pt x="463" y="566" on="1"/>
        <pt x="421" y="574" on="0"/>
        <pt x="357" y="581" on="0"/>
        <pt x="329" y="581" on="1"/>
        <pt x="292" y="581" on="0"/>
        <pt x="249" y="549" on="0"/>
        <pt x="249" y="521" on="1"/>
        <pt x="249" y="503" on="0"/>
        <pt x="266" y="464" on="0"/>
        <pt x="285" y="435" on="1"/>
        <pt x="401" y="262" on="1"/>
        <pt x="472" y="423" on="1"/>
        <pt x="556" y="390" on="1"/>
        <pt x="459" y="185" on="1"/>
        <pt x="586" y="-1" on="1"/>
        <pt x="466" y="-1" on="1"/>
        <pt x="402" y="94" on="1"/>
        <pt x="366" y="35" on="0"/>
        <pt x="288" y="-11" on="0"/>
        <pt x="223" y="-11" on="1"/>
        <pt x="144" y="-11" on="0"/>
        <pt x="50" y="85" on="0"/>
        <pt x="50" y="168" on="1"/>
        <pt x="50" y="250" on="0"/>
        <pt x="122" y="334" on="0"/>
        <pt x="212" y="364" on="1"/>
        <pt x="206" y="373" on="1"/>
        <pt x="173" y="421" on="0"/>
        <pt x="147" y="486" on="0"/>
        <pt x="147" y="519" on="1"/>
        <pt x="147" y="585" on="0"/>
        <pt x="244" y="669" on="0"/>
      </contour>
      <contour>
        <pt x="154" y="180" on="1"/>
        <pt x="154" y="133" on="0"/>
        <pt x="199" y="83" on="0"/>
        <pt x="241" y="83" on="1"/>
        <pt x="282" y="83" on="0"/>
        <pt x="329" y="118" on="0"/>
        <pt x="350" y="160" on="1"/>
        <pt x="257" y="298" on="1"/>
        <pt x="198" y="278" on="0"/>
        <pt x="154" y="233" on="0"/>
      </contour>
    </TTGlyph>
    <TTGlyph name="aogonek" xMin="57" yMin="-234" xMax="584" yMax="480">
      <contour>
        <pt x="352" y="-156" on="1"/>
        <pt x="352" y="-129" on="0"/>
        <pt x="397" y="-52" on="0"/>
        <pt x="449" y="10" on="1"/>
        <pt x="430" y="17" on="0"/>
        <pt x="406" y="41" on="0"/>
        <pt x="400" y="59" on="1"/>
        <pt x="390" y="59" on="1"/>
        <pt x="347" y="25" on="0"/>
        <pt x="253" y="-9" on="0"/>
        <pt x="201" y="-9" on="1"/>
        <pt x="134" y="-9" on="0"/>
        <pt x="57" y="64" on="0"/>
        <pt x="57" y="128" on="1"/>
        <pt x="57" y="199" on="0"/>
        <pt x="133" y="265" on="0"/>
        <pt x="225" y="276" on="1"/>
        <pt x="395" y="294" on="1"/>
        <pt x="395" y="323" on="1"/>
        <pt x="395" y="363" on="0"/>
        <pt x="347" y="391" on="0"/>
        <pt x="284" y="391" on="1"/>
        <pt x="255" y="391" on="0"/>
        <pt x="165" y="383" on="0"/>
        <pt x="113" y="375" on="1"/>
        <pt x="102" y="464" on="1"/>
        <pt x="154" y="472" on="0"/>
        <pt x="251" y="480" on="0"/>
        <pt x="289" y="480" on="1"/>
        <pt x="404" y="480" on="0"/>
        <pt x="502" y="409" on="0"/>
        <pt x="502" y="324" on="1"/>
        <pt x="502" y="131" on="1"/>
        <pt x="502" y="104" on="0"/>
        <pt x="517" y="84" on="0"/>
        <pt x="539" y="83" on="1"/>
        <pt x="584" y="79" on="1"/>
        <pt x="575" y="-5" on="1"/>
        <pt x="550" y="-4" on="0"/>
        <pt x="527" y="-3" on="0"/>
        <pt x="498" y="0" on="1"/>
        <pt x="467" y="-44" on="0"/>
        <pt x="438" y="-100" on="0"/>
        <pt x="438" y="-119" on="1"/>
        <pt x="438" y="-138" on="0"/>
        <pt x="458" y="-155" on="0"/>
        <pt x="481" y="-156" on="1"/>
        <pt x="548" y="-160" on="1"/>
        <pt x="540" y="-234" on="1"/>
        <pt x="445" y="-230" on="1"/>
        <pt x="397" y="-228" on="0"/>
        <pt x="352" y="-192" on="0"/>
      </contour>
      <contour>
        <pt x="166" y="135" on="1"/>
        <pt x="166" y="106" on="0"/>
        <pt x="199" y="75" on="0"/>
        <pt x="230" y="75" on="1"/>
        <pt x="267" y="75" on="0"/>
        <pt x="344" y="108" on="0"/>
        <pt x="395" y="144" on="1"/>
        <pt x="395" y="225" on="1"/>
        <pt x="251" y="206" on="1"/>
        <pt x="205" y="200" on="0"/>
        <pt x="166" y="169" on="0"/>
      </contour>
    </TTGlyph>
    <TTGlyph name="approxequal" xMin="41" yMin="78" xMax="573" yMax="581">
      <contour>
        <pt x="491" y="577" on="1"/>
        <pt x="573" y="549" on="1"/>
        <pt x="532" y="436" on="0"/>
        <pt x="471" y="351" on="0"/>
        <pt x="425" y="351" on="1"/>
        <pt x="403" y="351" on="0"/>
        <pt x="342" y="384" on="0"/>
        <pt x="290" y="423" on="1"/>
        <pt x="232" y="466" on="0"/>
        <pt x="204" y="482" on="0"/>
        <pt x="193" y="482" on="1"/>
        <pt x="180" y="482" on="0"/>
        <pt x="159" y="447" on="0"/>
        <pt x="123" y="356" on="1"/>
        <pt x="41" y="384" on="1"/>
        <pt x="82" y="497" on="0"/>
        <pt x="143" y="581" on="0"/>
        <pt x="189" y="581" on="1"/>
        <pt x="212" y="581" on="0"/>
        <pt x="272" y="549" on="0"/>
        <pt x="324" y="510" on="1"/>
        <pt x="376" y="471" on="0"/>
        <pt x="408" y="451" on="0"/>
        <pt x="421" y="451" on="1"/>
        <pt x="433" y="451" on="0"/>
        <pt x="455" y="487" on="0"/>
      </contour>
      <contour>
        <pt x="491" y="304" on="1"/>
        <pt x="573" y="276" on="1"/>
        <pt x="532" y="163" on="0"/>
        <pt x="471" y="78" on="0"/>
        <pt x="425" y="78" on="1"/>
        <pt x="403" y="78" on="0"/>
        <pt x="342" y="110" on="0"/>
        <pt x="290" y="149" on="1"/>
        <pt x="237" y="188" on="0"/>
        <pt x="205" y="208" on="0"/>
        <pt x="193" y="208" on="1"/>
        <pt x="180" y="208" on="0"/>
        <pt x="158" y="171" on="0"/>
        <pt x="123" y="82" on="1"/>
        <pt x="41" y="111" on="1"/>
        <pt x="82" y="224" on="0"/>
        <pt x="143" y="308" on="0"/>
        <pt x="189" y="308" on="1"/>
        <pt x="212" y="308" on="0"/>
        <pt x="272" y="276" on="0"/>
        <pt x="324" y="237" on="1"/>
        <pt x="376" y="198" on="0"/>
        <pt x="408" y="178" on="0"/>
        <pt x="421" y="178" on="1"/>
        <pt x="433" y="178" on="0"/>
        <pt x="455" y="214" on="0"/>
      </contour>
    </TTGlyph>
    <TTGlyph name="aring" xMin="57" yMin="-9" xMax="584" yMax="812">
      <component glyphName="a" x="0" y="0" flags="0x204"/>
      <component glyphName="uni030A" x="301" y="5" flags="0x4"/>
    </TTGlyph>
    <TTGlyph name="asciicircum" xMin="42" yMin="271" xMax="572" yMax="655">
      <contour>
        <pt x="155" y="271" on="1"/>
        <pt x="42" y="271" on="1"/>
        <pt x="239" y="655" on="1"/>
        <pt x="374" y="655" on="1"/>
        <pt x="572" y="271" on="1"/>
        <pt x="456" y="271" on="1"/>
        <pt x="306" y="582" on="1"/>
      </contour>
    </TTGlyph>
    <TTGlyph name="asciitilde" xMin="37" yMin="207" xMax="577" yMax="456">
      <contour>
        <pt x="490" y="456" on="1"/>
        <pt x="577" y="430" on="1"/>
        <pt x="540" y="309" on="0"/>
        <pt x="475" y="213" on="0"/>
        <pt x="423" y="213" on="1"/>
        <pt x="399" y="213" on="0"/>
        <pt x="353" y="237" on="0"/>
        <pt x="292" y="284" on="1"/>
        <pt x="243" y="321" on="0"/>
        <pt x="209" y="343" on="0"/>
        <pt x="196" y="343" on="1"/>
        <pt x="182" y="343" on="0"/>
        <pt x="156" y="293" on="0"/>
        <pt x="124" y="207" on="1"/>
        <pt x="37" y="233" on="1"/>
        <pt x="74" y="354" on="0"/>
        <pt x="139" y="449" on="0"/>
        <pt x="191" y="449" on="1"/>
        <pt x="214" y="449" on="0"/>
        <pt x="258" y="426" on="0"/>
        <pt x="322" y="378" on="1"/>
        <pt x="371" y="341" on="0"/>
        <pt x="405" y="319" on="0"/>
        <pt x="418" y="319" on="1"/>
        <pt x="432" y="319" on="0"/>
        <pt x="458" y="369" on="0"/>
      </contour>
    </TTGlyph>
    <TTGlyph name="asterisk" xMin="59" yMin="157" xMax="557" yMax="630">
      <contour>
        <pt x="191" y="157" on="1"/>
        <pt x="106" y="230" on="1"/>
        <pt x="117" y="243" on="0"/>
        <pt x="150" y="271" on="0"/>
        <pt x="187" y="298" on="1"/>
        <pt x="226" y="325" on="0"/>
        <pt x="264" y="357" on="0"/>
        <pt x="278" y="372" on="1"/>
        <pt x="257" y="378" on="0"/>
        <pt x="208" y="387" on="0"/>
        <pt x="160" y="392" on="1"/>
        <pt x="116" y="397" on="0"/>
        <pt x="75" y="405" on="0"/>
        <pt x="59" y="410" on="1"/>
        <pt x="96" y="517" on="1"/>
        <pt x="112" y="511" on="0"/>
        <pt x="149" y="491" on="0"/>
        <pt x="187" y="467" on="1"/>
        <pt x="227" y="441" on="0"/>
        <pt x="269" y="418" on="0"/>
        <pt x="289" y="410" on="1"/>
        <pt x="288" y="432" on="0"/>
        <pt x="280" y="481" on="0"/>
        <pt x="268" y="528" on="1"/>
        <pt x="258" y="572" on="0"/>
        <pt x="251" y="613" on="0"/>
        <pt x="251" y="630" on="1"/>
        <pt x="364" y="630" on="1"/>
        <pt x="364" y="613" on="0"/>
        <pt x="358" y="571" on="0"/>
        <pt x="347" y="527" on="1"/>
        <pt x="336" y="480" on="0"/>
        <pt x="328" y="431" on="0"/>
        <pt x="327" y="410" on="1"/>
        <pt x="347" y="418" on="0"/>
        <pt x="390" y="442" on="0"/>
        <pt x="430" y="467" on="1"/>
        <pt x="467" y="492" on="0"/>
        <pt x="503" y="511" on="0"/>
        <pt x="519" y="517" on="1"/>
        <pt x="557" y="410" on="1"/>
        <pt x="541" y="405" on="0"/>
        <pt x="500" y="397" on="0"/>
        <pt x="456" y="392" on="1"/>
        <pt x="408" y="387" on="0"/>
        <pt x="359" y="378" on="0"/>
        <pt x="338" y="372" on="1"/>
        <pt x="353" y="356" on="0"/>
        <pt x="390" y="325" on="0"/>
        <pt x="429" y="297" on="1"/>
        <pt x="466" y="271" on="0"/>
        <pt x="499" y="243" on="0"/>
        <pt x="510" y="230" on="1"/>
        <pt x="425" y="157" on="1"/>
        <pt x="414" y="170" on="0"/>
        <pt x="391" y="206" on="0"/>
        <pt x="370" y="246" on="1"/>
        <pt x="348" y="288" on="0"/>
        <pt x="322" y="330" on="0"/>
        <pt x="308" y="347" on="1"/>
        <pt x="294" y="330" on="0"/>
        <pt x="268" y="288" on="0"/>
        <pt x="246" y="246" on="1"/>
        <pt x="225" y="206" on="0"/>
        <pt x="202" y="170" on="0"/>
      </contour>
    </TTGlyph>
    <TTGlyph name="at" xMin="60" yMin="-79" xMax="560" yMax="725">
      <contour>
        <pt x="483" y="-11" on="1"/>
        <pt x="492" y="-60" on="1"/>
        <pt x="444" y="-71" on="0"/>
        <pt x="375" y="-79" on="0"/>
        <pt x="341" y="-79" on="1"/>
        <pt x="192" y="-79" on="0"/>
        <pt x="60" y="107" on="0"/>
        <pt x="60" y="315" on="1"/>
        <pt x="60" y="526" on="0"/>
        <pt x="191" y="725" on="0"/>
        <pt x="334" y="725" on="1"/>
        <pt x="415" y="725" on="0"/>
        <pt x="506" y="668" on="0"/>
        <pt x="529" y="604" on="1"/>
        <pt x="545" y="562" on="0"/>
        <pt x="560" y="440" on="0"/>
        <pt x="560" y="358" on="1"/>
        <pt x="560" y="236" on="0"/>
        <pt x="479" y="129" on="0"/>
        <pt x="382" y="129" on="1"/>
        <pt x="294" y="129" on="0"/>
        <pt x="212" y="222" on="0"/>
        <pt x="212" y="323" on="1"/>
        <pt x="212" y="422" on="0"/>
        <pt x="304" y="515" on="0"/>
        <pt x="402" y="515" on="1"/>
        <pt x="496" y="515" on="1"/>
        <pt x="484" y="603" on="0"/>
        <pt x="413" y="674" on="0"/>
        <pt x="328" y="674" on="1"/>
        <pt x="214" y="674" on="0"/>
        <pt x="115" y="505" on="0"/>
        <pt x="115" y="320" on="1"/>
        <pt x="115" y="136" on="0"/>
        <pt x="222" y="-28" on="0"/>
        <pt x="346" y="-28" on="1"/>
        <pt x="377" y="-28" on="0"/>
        <pt x="445" y="-20" on="0"/>
      </contour>
      <contour>
        <pt x="291" y="322" on="1"/>
        <pt x="291" y="258" on="0"/>
        <pt x="336" y="200" on="0"/>
        <pt x="386" y="200" on="1"/>
        <pt x="453" y="200" on="0"/>
        <pt x="505" y="269" on="0"/>
        <pt x="505" y="356" on="1"/>
        <pt x="505" y="375" on="0"/>
        <pt x="504" y="416" on="0"/>
        <pt x="503" y="444" on="1"/>
        <pt x="400" y="444" on="1"/>
        <pt x="342" y="444" on="0"/>
        <pt x="291" y="387" on="0"/>
      </contour>
    </TTGlyph>
    <TTGlyph name="atilde" xMin="57" yMin="-9" xMax="584" yMax="751">
      <component glyphName="a" x="0" y="0" flags="0x204"/>
      <component glyphName="uni0303" x="301" y="5" flags="0x4"/>
    </TTGlyph>
    <TTGlyph name="b" xMin="85" yMin="-8" xMax="562" yMax="710">
      <contour>
        <pt x="85" y="710" on="1"/>
        <pt x="197" y="710" on="1"/>
        <pt x="197" y="412" on="1"/>
        <pt x="234" y="448" on="0"/>
        <pt x="310" y="482" on="0"/>
        <pt x="355" y="482" on="1"/>
        <pt x="445" y="482" on="0"/>
        <pt x="562" y="351" on="0"/>
        <pt x="562" y="245" on="1"/>
        <pt x="562" y="134" on="0"/>
        <pt x="417" y="-8" on="0"/>
        <pt x="301" y="-8" on="1"/>
        <pt x="263" y="-8" on="0"/>
        <pt x="193" y="9" on="0"/>
        <pt x="161" y="26" on="1"/>
        <pt x="105" y="-1" on="1"/>
        <pt x="85" y="-1" on="1"/>
      </contour>
      <contour>
        <pt x="446" y="238" on="1"/>
        <pt x="446" y="306" on="0"/>
        <pt x="374" y="389" on="0"/>
        <pt x="317" y="389" on="1"/>
        <pt x="286" y="389" on="0"/>
        <pt x="231" y="362" on="0"/>
        <pt x="197" y="331" on="1"/>
        <pt x="197" y="114" on="1"/>
        <pt x="221" y="99" on="0"/>
        <pt x="266" y="85" on="0"/>
        <pt x="290" y="85" on="1"/>
        <pt x="360" y="85" on="0"/>
        <pt x="446" y="171" on="0"/>
      </contour>
    </TTGlyph>
    <TTGlyph name="backslash" xMin="41" yMin="-100" xMax="573" yMax="755">
      <contour>
        <pt x="464" y="-100" on="1"/>
        <pt x="41" y="755" on="1"/>
        <pt x="149" y="755" on="1"/>
        <pt x="573" y="-100" on="1"/>
      </contour>
    </TTGlyph>
    <TTGlyph name="bar" xMin="256" yMin="-100" xMax="358" yMax="755">
      <contour>
        <pt x="256" y="755" on="1"/>
        <pt x="358" y="755" on="1"/>
        <pt x="358" y="-100" on="1"/>
        <pt x="256" y="-100" on="1"/>
      </contour>
    </TTGlyph>
    <TTGlyph name="braceleft" xMin="68" yMin="-143" xMax="565" yMax="805">
      <contour>
        <pt x="185" y="-11" on="1"/>
        <pt x="185" y="12" on="0"/>
        <pt x="210" y="59" on="0"/>
        <pt x="237" y="88" on="1"/>
        <pt x="286" y="140" on="1"/>
        <pt x="302" y="158" on="0"/>
        <pt x="315" y="178" on="0"/>
        <pt x="315" y="187" on="1"/>
        <pt x="315" y="204" on="0"/>
        <pt x="263" y="229" on="0"/>
        <pt x="200" y="247" on="1"/>
        <pt x="175" y="255" on="0"/>
        <pt x="109" y="272" on="0"/>
        <pt x="68" y="282" on="1"/>
        <pt x="68" y="380" on="1"/>
        <pt x="109" y="390" on="0"/>
        <pt x="175" y="407" on="0"/>
        <pt x="200" y="415" on="1"/>
        <pt x="263" y="433" on="0"/>
        <pt x="315" y="458" on="0"/>
        <pt x="315" y="475" on="1"/>
        <pt x="315" y="484" on="0"/>
        <pt x="303" y="503" on="0"/>
        <pt x="286" y="522" on="1"/>
        <pt x="237" y="574" on="1"/>
        <pt x="210" y="603" on="0"/>
        <pt x="185" y="650" on="0"/>
        <pt x="185" y="673" on="1"/>
        <pt x="185" y="715" on="0"/>
        <pt x="245" y="760" on="0"/>
        <pt x="311" y="770" on="1"/>
        <pt x="551" y="805" on="1"/>
        <pt x="565" y="711" on="1"/>
        <pt x="345" y="680" on="1"/>
        <pt x="326" y="677" on="0"/>
        <pt x="310" y="666" on="0"/>
        <pt x="310" y="655" on="1"/>
        <pt x="310" y="648" on="0"/>
        <pt x="322" y="629" on="0"/>
        <pt x="338" y="611" on="1"/>
        <pt x="387" y="559" on="1"/>
        <pt x="417" y="527" on="0"/>
        <pt x="442" y="487" on="0"/>
        <pt x="442" y="468" on="1"/>
        <pt x="442" y="436" on="0"/>
        <pt x="385" y="396" on="0"/>
        <pt x="321" y="376" on="1"/>
        <pt x="290" y="367" on="0"/>
        <pt x="211" y="347" on="0"/>
        <pt x="161" y="337" on="1"/>
        <pt x="161" y="325" on="1"/>
        <pt x="211" y="315" on="0"/>
        <pt x="290" y="295" on="0"/>
        <pt x="320" y="285" on="1"/>
        <pt x="385" y="265" on="0"/>
        <pt x="442" y="225" on="0"/>
        <pt x="442" y="194" on="1"/>
        <pt x="442" y="175" on="0"/>
        <pt x="417" y="135" on="0"/>
        <pt x="387" y="103" on="1"/>
        <pt x="338" y="51" on="1"/>
        <pt x="323" y="34" on="0"/>
        <pt x="310" y="15" on="0"/>
        <pt x="310" y="7" on="1"/>
        <pt x="310" y="-4" on="0"/>
        <pt x="326" y="-15" on="0"/>
        <pt x="345" y="-18" on="1"/>
        <pt x="565" y="-49" on="1"/>
        <pt x="551" y="-143" on="1"/>
        <pt x="311" y="-108" on="1"/>
        <pt x="245" y="-98" on="0"/>
        <pt x="185" y="-53" on="0"/>
      </contour>
    </TTGlyph>
    <TTGlyph name="braceright" xMin="49" yMin="-143" xMax="546" yMax="805">
      <contour>
        <pt x="429" y="-11" on="1"/>
        <pt x="429" y="-53" on="0"/>
        <pt x="369" y="-98" on="0"/>
        <pt x="303" y="-108" on="1"/>
        <pt x="63" y="-143" on="1"/>
        <pt x="49" y="-49" on="1"/>
        <pt x="269" y="-18" on="1"/>
        <pt x="288" y="-15" on="0"/>
        <pt x="304" y="-4" on="0"/>
        <pt x="304" y="7" on="1"/>
        <pt x="304" y="15" on="0"/>
        <pt x="291" y="34" on="0"/>
        <pt x="276" y="51" on="1"/>
        <pt x="227" y="103" on="1"/>
        <pt x="197" y="135" on="0"/>
        <pt x="172" y="175" on="0"/>
        <pt x="172" y="194" on="1"/>
        <pt x="172" y="225" on="0"/>
        <pt x="229" y="265" on="0"/>
        <pt x="294" y="285" on="1"/>
        <pt x="324" y="295" on="0"/>
        <pt x="403" y="315" on="0"/>
        <pt x="453" y="325" on="1"/>
        <pt x="453" y="337" on="1"/>
        <pt x="403" y="347" on="0"/>
        <pt x="324" y="367" on="0"/>
        <pt x="294" y="377" on="1"/>
        <pt x="229" y="397" on="0"/>
        <pt x="172" y="437" on="0"/>
        <pt x="172" y="468" on="1"/>
        <pt x="172" y="487" on="0"/>
        <pt x="197" y="527" on="0"/>
        <pt x="227" y="559" on="1"/>
        <pt x="276" y="611" on="1"/>
        <pt x="291" y="628" on="0"/>
        <pt x="304" y="647" on="0"/>
        <pt x="304" y="655" on="1"/>
        <pt x="304" y="666" on="0"/>
        <pt x="288" y="677" on="0"/>
        <pt x="269" y="680" on="1"/>
        <pt x="49" y="711" on="1"/>
        <pt x="63" y="805" on="1"/>
        <pt x="303" y="770" on="1"/>
        <pt x="369" y="760" on="0"/>
        <pt x="429" y="715" on="0"/>
        <pt x="429" y="673" on="1"/>
        <pt x="429" y="650" on="0"/>
        <pt x="404" y="603" on="0"/>
        <pt x="377" y="574" on="1"/>
        <pt x="328" y="522" on="1"/>
        <pt x="312" y="504" on="0"/>
        <pt x="299" y="484" on="0"/>
        <pt x="299" y="475" on="1"/>
        <pt x="299" y="458" on="0"/>
        <pt x="351" y="433" on="0"/>
        <pt x="414" y="415" on="1"/>
        <pt x="439" y="407" on="0"/>
        <pt x="505" y="390" on="0"/>
        <pt x="546" y="380" on="1"/>
        <pt x="546" y="282" on="1"/>
        <pt x="505" y="272" on="0"/>
        <pt x="439" y="255" on="0"/>
        <pt x="414" y="247" on="1"/>
        <pt x="351" y="229" on="0"/>
        <pt x="299" y="204" on="0"/>
        <pt x="299" y="187" on="1"/>
        <pt x="299" y="178" on="0"/>
        <pt x="312" y="158" on="0"/>
        <pt x="328" y="140" on="1"/>
        <pt x="377" y="88" on="1"/>
        <pt x="404" y="59" on="0"/>
        <pt x="429" y="12" on="0"/>
      </contour>
    </TTGlyph>
    <TTGlyph name="bracketleft" xMin="173" yMin="-141" xMax="533" yMax="792">
      <contour>
        <pt x="533" y="-141" on="1"/>
        <pt x="173" y="-141" on="1"/>
        <pt x="173" y="792" on="1"/>
        <pt x="533" y="792" on="1"/>
        <pt x="533" y="699" on="1"/>
        <pt x="286" y="699" on="1"/>
        <pt x="286" y="-47" on="1"/>
        <pt x="533" y="-47" on="1"/>
      </contour>
    </TTGlyph>
    <TTGlyph name="bracketright" xMin="81" yMin="-141" xMax="441" yMax="792">
      <contour>
        <pt x="328" y="699" on="1"/>
        <pt x="81" y="699" on="1"/>
        <pt x="81" y="792" on="1"/>
        <pt x="441" y="792" on="1"/>
        <pt x="441" y="-141" on="1"/>
        <pt x="81" y="-141" on="1"/>
        <pt x="81" y="-47" on="1"/>
        <pt x="328" y="-47" on="1"/>
      </contour>
    </TTGlyph>
    <TTGlyph name="breve" xMin="116" yMin="547" xMax="498" yMax="745">
      <component glyphName="uni0306" x="307" y="0" flags="0x4"/>
    </TTGlyph>
    <TTGlyph name="bullet" xMin="160" yMin="189" xMax="455" yMax="476">
      <contour>
        <pt x="160" y="332" on="1"/>
        <pt x="160" y="398" on="0"/>
        <pt x="239" y="476" on="0"/>
        <pt x="308" y="476" on="1"/>
        <pt x="379" y="476" on="0"/>
        <pt x="455" y="402" on="0"/>
        <pt x="455" y="332" on="1"/>
        <pt x="455" y="266" on="0"/>
        <pt x="377" y="189" on="0"/>
        <pt x="308" y="189" on="1"/>
        <pt x="236" y="189" on="0"/>
        <pt x="160" y="262" on="0"/>
      </contour>
    </TTGlyph>
    <TTGlyph name="c" xMin="63" yMin="-14" xMax="552" yMax="484">
      <contour>
        <pt x="332" y="390" on="1"/>
        <pt x="265" y="390" on="0"/>
        <pt x="180" y="304" on="0"/>
        <pt x="180" y="237" on="1"/>
        <pt x="180" y="167" on="0"/>
        <pt x="261" y="80" on="0"/>
        <pt x="324" y="80" on="1"/>
        <pt x="365" y="80" on="0"/>
        <pt x="447" y="106" on="0"/>
        <pt x="503" y="137" on="1"/>
        <pt x="552" y="60" on="1"/>
        <pt x="485" y="20" on="0"/>
        <pt x="377" y="-14" on="0"/>
        <pt x="315" y="-14" on="1"/>
        <pt x="201" y="-14" on="0"/>
        <pt x="63" y="123" on="0"/>
        <pt x="63" y="237" on="1"/>
        <pt x="63" y="341" on="0"/>
        <pt x="216" y="484" on="0"/>
        <pt x="328" y="484" on="1"/>
        <pt x="389" y="484" on="0"/>
        <pt x="489" y="449" on="0"/>
        <pt x="549" y="410" on="1"/>
        <pt x="497" y="329" on="1"/>
        <pt x="447" y="362" on="0"/>
        <pt x="374" y="390" on="0"/>
      </contour>
    </TTGlyph>
    <TTGlyph name="cacute" xMin="63" yMin="-14" xMax="552" yMax="757">
      <component glyphName="c" x="0" y="0" flags="0x204"/>
      <component glyphName="uni0301" x="319" y="5" flags="0x4"/>
    </TTGlyph>
    <TTGlyph name="caron" xMin="121" yMin="547" xMax="493" yMax="752">
      <component glyphName="uni030C" x="307" y="0" flags="0x4"/>
    </TTGlyph>
    <TTGlyph name="ccaron" xMin="63" yMin="-14" xMax="552" yMax="757">
      <component glyphName="c" x="0" y="0" flags="0x204"/>
      <component glyphName="uni030C" x="319" y="5" flags="0x4"/>
    </TTGlyph>
    <TTGlyph name="ccedilla" xMin="63" yMin="-270" xMax="552" yMax="484">
      <contour>
        <pt x="332" y="390" on="1"/>
        <pt x="265" y="390" on="0"/>
        <pt x="180" y="304" on="0"/>
        <pt x="180" y="237" on="1"/>
        <pt x="180" y="167" on="0"/>
        <pt x="261" y="80" on="0"/>
        <pt x="324" y="80" on="1"/>
        <pt x="365" y="80" on="0"/>
        <pt x="447" y="106" on="0"/>
        <pt x="503" y="137" on="1"/>
        <pt x="552" y="60" on="1"/>
        <pt x="487" y="22" on="0"/>
        <pt x="384" y="-12" on="0"/>
        <pt x="326" y="-14" on="1"/>
        <pt x="311" y="-63" on="1"/>
        <pt x="390" y="-71" on="0"/>
        <pt x="460" y="-112" on="0"/>
        <pt x="460" y="-152" on="1"/>
        <pt x="460" y="-192" on="0"/>
        <pt x="413" y="-235" on="0"/>
        <pt x="359" y="-248" on="1"/>
        <pt x="331" y="-255" on="0"/>
        <pt x="255" y="-266" on="0"/>
        <pt x="206" y="-270" on="1"/>
        <pt x="189" y="-209" on="1"/>
        <pt x="297" y="-199" on="0"/>
        <pt x="380" y="-177" on="0"/>
        <pt x="380" y="-154" on="1"/>
        <pt x="380" y="-134" on="0"/>
        <pt x="319" y="-117" on="0"/>
        <pt x="247" y="-114" on="1"/>
        <pt x="241" y="-104" on="1"/>
        <pt x="273" y="-11" on="1"/>
        <pt x="176" y="1" on="0"/>
        <pt x="63" y="134" on="0"/>
        <pt x="63" y="237" on="1"/>
        <pt x="63" y="341" on="0"/>
        <pt x="216" y="484" on="0"/>
        <pt x="328" y="484" on="1"/>
        <pt x="389" y="484" on="0"/>
        <pt x="489" y="449" on="0"/>
        <pt x="549" y="410" on="1"/>
        <pt x="497" y="329" on="1"/>
        <pt x="447" y="362" on="0"/>
        <pt x="374" y="390" on="0"/>
      </contour>
    </TTGlyph>
    <TTGlyph name="ccircumflex" xMin="63" yMin="-14" xMax="552" yMax="752">
      <component glyphName="c" x="0" y="0" flags="0x204"/>
      <component glyphName="uni0302" x="319" y="0" flags="0x4"/>
    </TTGlyph>
    <TTGlyph name="cdotaccent" xMin="63" yMin="-14" xMax="552" yMax="705">
      <component glyphName="c" x="0" y="0" flags="0x204"/>
      <component glyphName="uni0307" x="319" y="5" flags="0x4"/>
    </TTGlyph>
    <TTGlyph name="cedilla" xMin="193" yMin="-265" xMax="464" yMax="21">
      <component glyphName="uni0327" x="307" y="0" flags="0x4"/>
    </TTGlyph>
    <TTGlyph name="cent" xMin="62" yMin="-142" xMax="551" yMax="632">
      <contour>
        <pt x="376" y="-142" on="1"/>
        <pt x="298" y="-142" on="1"/>
        <pt x="298" y="0" on="1"/>
        <pt x="190" y="5" on="0"/>
        <pt x="62" y="140" on="0"/>
        <pt x="62" y="248" on="1"/>
        <pt x="62" y="342" on="0"/>
        <pt x="196" y="479" on="0"/>
        <pt x="298" y="489" on="1"/>
        <pt x="298" y="632" on="1"/>
        <pt x="376" y="632" on="1"/>
        <pt x="376" y="487" on="1"/>
        <pt x="416" y="482" on="0"/>
        <pt x="498" y="448" on="0"/>
        <pt x="548" y="416" on="1"/>
        <pt x="496" y="334" on="1"/>
        <pt x="448" y="367" on="0"/>
        <pt x="374" y="395" on="0"/>
        <pt x="331" y="395" on="1"/>
        <pt x="264" y="395" on="0"/>
        <pt x="179" y="312" on="0"/>
        <pt x="179" y="247" on="1"/>
        <pt x="179" y="179" on="0"/>
        <pt x="259" y="95" on="0"/>
        <pt x="322" y="95" on="1"/>
        <pt x="365" y="95" on="0"/>
        <pt x="447" y="121" on="0"/>
        <pt x="502" y="151" on="1"/>
        <pt x="551" y="75" on="1"/>
        <pt x="500" y="44" on="0"/>
        <pt x="416" y="10" on="0"/>
        <pt x="376" y="4" on="1"/>
      </contour>
    </TTGlyph>
    <TTGlyph name="circumflex" xMin="121" yMin="547" xMax="493" yMax="752">
      <component glyphName="uni0302" x="307" y="0" flags="0x4"/>
    </TTGlyph>
    <TTGlyph name="colon" xMin="204" yMin="-15" xMax="410" yMax="484">
      <contour>
        <pt x="410" y="396" on="1"/>
        <pt x="410" y="353" on="0"/>
        <pt x="356" y="308" on="0"/>
        <pt x="306" y="308" on="1"/>
        <pt x="257" y="308" on="0"/>
        <pt x="204" y="353" on="0"/>
        <pt x="204" y="396" on="1"/>
        <pt x="204" y="437" on="0"/>
        <pt x="259" y="484" on="0"/>
        <pt x="307" y="484" on="1"/>
        <pt x="359" y="484" on="0"/>
        <pt x="410" y="440" on="0"/>
      </contour>
      <contour>
        <pt x="410" y="72" on="1"/>
        <pt x="410" y="30" on="0"/>
        <pt x="356" y="-15" on="0"/>
        <pt x="306" y="-15" on="1"/>
        <pt x="257" y="-15" on="0"/>
        <pt x="204" y="31" on="0"/>
        <pt x="204" y="74" on="1"/>
        <pt x="204" y="114" on="0"/>
        <pt x="259" y="161" on="0"/>
        <pt x="307" y="161" on="1"/>
        <pt x="359" y="161" on="0"/>
        <pt x="410" y="117" on="0"/>
      </contour>
    </TTGlyph>
    <TTGlyph name="colon.fig" xMin="204" yMin="79" xMax="410" yMax="578">
      <component glyphName="colon" x="0" y="94" flags="0x4"/>
    </TTGlyph>
    <TTGlyph name="comma" xMin="114" yMin="-161" xMax="412" yMax="145">
      <contour>
        <pt x="220" y="-161" on="1"/>
        <pt x="114" y="-161" on="1"/>
        <pt x="114" y="-159" on="1"/>
        <pt x="185" y="-59" on="0"/>
        <pt x="231" y="53" on="0"/>
        <pt x="240" y="145" on="1"/>
        <pt x="412" y="145" on="1"/>
        <pt x="395" y="44" on="0"/>
        <pt x="317" y="-82" on="0"/>
      </contour>
    </TTGlyph>
    <TTGlyph name="copyright" xMin="57" yMin="-70" xMax="557" yMax="725">
      <contour>
        <pt x="307" y="725" on="1"/>
        <pt x="438" y="725" on="0"/>
        <pt x="557" y="533" on="0"/>
        <pt x="557" y="328" on="1"/>
        <pt x="557" y="123" on="0"/>
        <pt x="437" y="-70" on="0"/>
        <pt x="307" y="-70" on="1"/>
        <pt x="177" y="-70" on="0"/>
        <pt x="57" y="123" on="0"/>
        <pt x="57" y="328" on="1"/>
        <pt x="57" y="532" on="0"/>
        <pt x="177" y="725" on="0"/>
      </contour>
      <contour>
        <pt x="307" y="680" on="1"/>
        <pt x="199" y="680" on="0"/>
        <pt x="106" y="513" on="0"/>
        <pt x="106" y="328" on="1"/>
        <pt x="106" y="143" on="0"/>
        <pt x="199" y="-25" on="0"/>
        <pt x="307" y="-25" on="1"/>
        <pt x="415" y="-25" on="0"/>
        <pt x="508" y="143" on="0"/>
        <pt x="508" y="328" on="1"/>
        <pt x="508" y="513" on="0"/>
        <pt x="415" y="680" on="0"/>
      </contour>
      <contour>
        <pt x="310" y="97" on="1"/>
        <pt x="248" y="97" on="0"/>
        <pt x="179" y="217" on="0"/>
        <pt x="179" y="326" on="1"/>
        <pt x="179" y="430" on="0"/>
        <pt x="257" y="558" on="0"/>
        <pt x="319" y="558" on="1"/>
        <pt x="360" y="558" on="0"/>
        <pt x="413" y="514" on="0"/>
        <pt x="443" y="460" on="1"/>
        <pt x="392" y="424" on="1"/>
        <pt x="368" y="464" on="0"/>
        <pt x="339" y="492" on="0"/>
        <pt x="319" y="492" on="1"/>
        <pt x="288" y="492" on="0"/>
        <pt x="250" y="403" on="0"/>
        <pt x="250" y="328" on="1"/>
        <pt x="250" y="249" on="0"/>
        <pt x="285" y="163" on="0"/>
        <pt x="316" y="163" on="1"/>
        <pt x="341" y="163" on="0"/>
        <pt x="376" y="191" on="0"/>
        <pt x="397" y="222" on="1"/>
        <pt x="445" y="187" on="1"/>
        <pt x="415" y="140" on="0"/>
        <pt x="354" y="97" on="0"/>
      </contour>
    </TTGlyph>
    <TTGlyph name="d" xMin="52" yMin="-10" xMax="529" yMax="710">
      <contour>
        <pt x="259" y="-10" on="1"/>
        <pt x="168" y="-10" on="0"/>
        <pt x="52" y="121" on="0"/>
        <pt x="52" y="227" on="1"/>
        <pt x="52" y="336" on="0"/>
        <pt x="187" y="477" on="0"/>
        <pt x="292" y="477" on="1"/>
        <pt x="330" y="477" on="0"/>
        <pt x="389" y="459" on="0"/>
        <pt x="417" y="439" on="1"/>
        <pt x="417" y="710" on="1"/>
        <pt x="529" y="710" on="1"/>
        <pt x="529" y="0" on="1"/>
        <pt x="433" y="0" on="1"/>
        <pt x="424" y="67" on="1"/>
        <pt x="386" y="27" on="0"/>
        <pt x="307" y="-10" on="0"/>
      </contour>
      <contour>
        <pt x="313" y="386" on="1"/>
        <pt x="247" y="386" on="0"/>
        <pt x="168" y="302" on="0"/>
        <pt x="168" y="233" on="1"/>
        <pt x="168" y="165" on="0"/>
        <pt x="240" y="83" on="0"/>
        <pt x="297" y="83" on="1"/>
        <pt x="328" y="83" on="0"/>
        <pt x="383" y="110" on="0"/>
        <pt x="417" y="141" on="1"/>
        <pt x="417" y="346" on="1"/>
        <pt x="390" y="366" on="0"/>
        <pt x="340" y="386" on="0"/>
      </contour>
    </TTGlyph>
    <TTGlyph name="dagger" xMin="75" yMin="0" xMax="539" yMax="710">
      <contour>
        <pt x="539" y="527" on="1"/>
        <pt x="539" y="425" on="1"/>
        <pt x="519" y="425" on="0"/>
        <pt x="472" y="432" on="0"/>
        <pt x="424" y="442" on="1"/>
        <pt x="386" y="451" on="0"/>
        <pt x="348" y="458" on="0"/>
        <pt x="332" y="459" on="1"/>
        <pt x="333" y="420" on="0"/>
        <pt x="339" y="329" on="0"/>
        <pt x="347" y="237" on="1"/>
        <pt x="357" y="139" on="0"/>
        <pt x="363" y="41" on="0"/>
        <pt x="363" y="0" on="1"/>
        <pt x="251" y="0" on="1"/>
        <pt x="251" y="41" on="0"/>
        <pt x="257" y="139" on="0"/>
        <pt x="268" y="236" on="1"/>
        <pt x="277" y="328" on="0"/>
        <pt x="283" y="420" on="0"/>
        <pt x="284" y="459" on="1"/>
        <pt x="267" y="458" on="0"/>
        <pt x="227" y="451" on="0"/>
        <pt x="187" y="442" on="1"/>
        <pt x="139" y="431" on="0"/>
        <pt x="94" y="425" on="0"/>
        <pt x="75" y="425" on="1"/>
        <pt x="75" y="527" on="1"/>
        <pt x="94" y="527" on="0"/>
        <pt x="139" y="521" on="0"/>
        <pt x="187" y="511" on="1"/>
        <pt x="226" y="503" on="0"/>
        <pt x="266" y="497" on="0"/>
        <pt x="283" y="496" on="1"/>
        <pt x="282" y="513" on="0"/>
        <pt x="276" y="553" on="0"/>
        <pt x="267" y="593" on="1"/>
        <pt x="257" y="641" on="0"/>
        <pt x="251" y="690" on="0"/>
        <pt x="251" y="710" on="1"/>
        <pt x="363" y="710" on="1"/>
        <pt x="363" y="690" on="0"/>
        <pt x="357" y="643" on="0"/>
        <pt x="348" y="595" on="1"/>
        <pt x="340" y="554" on="0"/>
        <pt x="334" y="513" on="0"/>
        <pt x="333" y="496" on="1"/>
        <pt x="348" y="497" on="0"/>
        <pt x="385" y="503" on="0"/>
        <pt x="422" y="511" on="1"/>
        <pt x="470" y="521" on="0"/>
        <pt x="519" y="527" on="0"/>
      </contour>
    </TTGlyph>
    <TTGlyph name="daggerdbl" xMin="75" yMin="0" xMax="539" yMax="710">
      <contour>
        <pt x="524" y="287" on="1"/>
        <pt x="524" y="185" on="1"/>
        <pt x="505" y="185" on="0"/>
        <pt x="459" y="192" on="0"/>
        <pt x="414" y="203" on="1"/>
        <pt x="380" y="211" on="0"/>
        <pt x="346" y="217" on="0"/>
        <pt x="332" y="219" on="1"/>
        <pt x="333" y="201" on="0"/>
        <pt x="338" y="160" on="0"/>
        <pt x="346" y="119" on="1"/>
        <pt x="355" y="70" on="0"/>
        <pt x="360" y="21" on="0"/>
        <pt x="360" y="0" on="1"/>
        <pt x="254" y="0" on="1"/>
        <pt x="254" y="21" on="0"/>
        <pt x="260" y="70" on="0"/>
        <pt x="269" y="119" on="1"/>
        <pt x="277" y="160" on="0"/>
        <pt x="283" y="201" on="0"/>
        <pt x="284" y="219" on="1"/>
        <pt x="269" y="218" on="0"/>
        <pt x="235" y="211" on="0"/>
        <pt x="200" y="203" on="1"/>
        <pt x="156" y="192" on="0"/>
        <pt x="111" y="185" on="0"/>
        <pt x="91" y="185" on="1"/>
        <pt x="91" y="287" on="1"/>
        <pt x="110" y="287" on="0"/>
        <pt x="155" y="281" on="0"/>
        <pt x="199" y="271" on="1"/>
        <pt x="234" y="263" on="0"/>
        <pt x="269" y="257" on="0"/>
        <pt x="284" y="256" on="1"/>
        <pt x="284" y="459" on="1"/>
        <pt x="268" y="458" on="0"/>
        <pt x="229" y="451" on="0"/>
        <pt x="191" y="442" on="1"/>
        <pt x="143" y="432" on="0"/>
        <pt x="95" y="425" on="0"/>
        <pt x="75" y="425" on="1"/>
        <pt x="75" y="527" on="1"/>
        <pt x="96" y="527" on="0"/>
        <pt x="144" y="521" on="0"/>
        <pt x="191" y="511" on="1"/>
        <pt x="229" y="503" on="0"/>
        <pt x="267" y="497" on="0"/>
        <pt x="283" y="496" on="1"/>
        <pt x="282" y="513" on="0"/>
        <pt x="276" y="554" on="0"/>
        <pt x="267" y="595" on="1"/>
        <pt x="257" y="642" on="0"/>
        <pt x="251" y="690" on="0"/>
        <pt x="251" y="710" on="1"/>
        <pt x="363" y="710" on="1"/>
        <pt x="363" y="690" on="0"/>
        <pt x="357" y="642" on="0"/>
        <pt x="348" y="594" on="1"/>
        <pt x="340" y="554" on="0"/>
        <pt x="334" y="513" on="0"/>
        <pt x="333" y="496" on="1"/>
        <pt x="349" y="497" on="0"/>
        <pt x="386" y="503" on="0"/>
        <pt x="423" y="511" on="1"/>
        <pt x="471" y="521" on="0"/>
        <pt x="519" y="527" on="0"/>
        <pt x="539" y="527" on="1"/>
        <pt x="539" y="425" on="1"/>
        <pt x="520" y="425" on="0"/>
        <pt x="474" y="432" on="0"/>
        <pt x="427" y="442" on="1"/>
        <pt x="388" y="451" on="0"/>
        <pt x="349" y="458" on="0"/>
        <pt x="332" y="459" on="1"/>
        <pt x="332" y="256" on="1"/>
        <pt x="347" y="257" on="0"/>
        <pt x="381" y="263" on="0"/>
        <pt x="415" y="271" on="1"/>
        <pt x="460" y="281" on="0"/>
        <pt x="505" y="287" on="0"/>
      </contour>
    </TTGlyph>
    <TTGlyph name="dcaron" xMin="52" yMin="-10" xMax="747" yMax="788">
      <component glyphName="d" x="0" y="0" flags="0x204"/>
      <component glyphName="uni0315" x="646" y="78" flags="0x4"/>
    </TTGlyph>
    <TTGlyph name="dcroat" xMin="52" yMin="-10" xMax="595" yMax="710">
      <contour>
        <pt x="250" y="-10" on="1"/>
        <pt x="163" y="-10" on="0"/>
        <pt x="52" y="108" on="0"/>
        <pt x="52" y="204" on="1"/>
        <pt x="52" y="301" on="0"/>
        <pt x="182" y="427" on="0"/>
        <pt x="282" y="427" on="1"/>
        <pt x="317" y="427" on="0"/>
        <pt x="374" y="409" on="0"/>
        <pt x="402" y="389" on="1"/>
        <pt x="402" y="523" on="1"/>
        <pt x="247" y="523" on="1"/>
        <pt x="247" y="589" on="1"/>
        <pt x="402" y="589" on="1"/>
        <pt x="402" y="710" on="1"/>
        <pt x="514" y="710" on="1"/>
        <pt x="514" y="589" on="1"/>
        <pt x="595" y="589" on="1"/>
        <pt x="595" y="523" on="1"/>
        <pt x="514" y="523" on="1"/>
        <pt x="514" y="0" on="1"/>
        <pt x="418" y="0" on="1"/>
        <pt x="409" y="68" on="1"/>
        <pt x="371" y="27" on="0"/>
        <pt x="296" y="-10" on="0"/>
      </contour>
      <contour>
        <pt x="298" y="342" on="1"/>
        <pt x="239" y="342" on="0"/>
        <pt x="168" y="269" on="0"/>
        <pt x="168" y="210" on="1"/>
        <pt x="168" y="153" on="0"/>
        <pt x="234" y="83" on="0"/>
        <pt x="286" y="83" on="1"/>
        <pt x="315" y="83" on="0"/>
        <pt x="368" y="110" on="0"/>
        <pt x="402" y="141" on="1"/>
        <pt x="402" y="300" on="1"/>
        <pt x="374" y="322" on="0"/>
        <pt x="324" y="342" on="0"/>
      </contour>
    </TTGlyph>
    <TTGlyph name="degree" xMin="98" yMin="288" xMax="516" yMax="692">
      <contour>
        <pt x="307" y="288" on="1"/>
        <pt x="214" y="288" on="0"/>
        <pt x="98" y="399" on="0"/>
        <pt x="98" y="489" on="1"/>
        <pt x="98" y="579" on="0"/>
        <pt x="215" y="692" on="0"/>
        <pt x="308" y="692" on="1"/>
        <pt x="401" y="692" on="0"/>
        <pt x="516" y="581" on="0"/>
        <pt x="516" y="490" on="1"/>
        <pt x="516" y="400" on="0"/>
        <pt x="400" y="288" on="0"/>
      </contour>
      <contour>
        <pt x="426" y="489" on="1"/>
        <pt x="426" y="543" on="0"/>
        <pt x="359" y="613" on="0"/>
        <pt x="307" y="613" on="1"/>
        <pt x="254" y="613" on="0"/>
        <pt x="189" y="545" on="0"/>
        <pt x="189" y="490" on="1"/>
        <pt x="189" y="435" on="0"/>
        <pt x="255" y="366" on="0"/>
        <pt x="308" y="366" on="1"/>
        <pt x="360" y="366" on="0"/>
        <pt x="426" y="434" on="0"/>
      </contour>
    </TTGlyph>
    <TTGlyph name="dieresis" xMin="125" yMin="567" xMax="489" yMax="693">
      <component glyphName="uni0308" x="307" y="0" flags="0x4"/>
    </TTGlyph>
    <TTGlyph name="divide" xMin="66" yMin="45" xMax="547" yMax="614">
      <contour>
        <pt x="393" y="546" on="1"/>
        <pt x="393" y="512" on="0"/>
        <pt x="350" y="477" on="0"/>
        <pt x="307" y="477" on="1"/>
        <pt x="265" y="477" on="0"/>
        <pt x="223" y="511" on="0"/>
        <pt x="223" y="545" on="1"/>
        <pt x="223" y="578" on="0"/>
        <pt x="267" y="614" on="0"/>
        <pt x="308" y="614" on="1"/>
        <pt x="350" y="614" on="0"/>
        <pt x="393" y="580" on="0"/>
      </contour>
      <contour>
        <pt x="547" y="283" on="1"/>
        <pt x="66" y="283" on="1"/>
        <pt x="66" y="374" on="1"/>
        <pt x="547" y="374" on="1"/>
      </contour>
      <contour>
        <pt x="393" y="113" on="1"/>
        <pt x="393" y="79" on="0"/>
        <pt x="350" y="45" on="0"/>
        <pt x="307" y="45" on="1"/>
        <pt x="265" y="45" on="0"/>
        <pt x="223" y="78" on="0"/>
        <pt x="223" y="112" on="1"/>
        <pt x="223" y="145" on="0"/>
        <pt x="267" y="181" on="0"/>
        <pt x="308" y="181" on="1"/>
        <pt x="350" y="181" on="0"/>
        <pt x="393" y="147" on="0"/>
      </contour>
    </TTGlyph>
    <TTGlyph name="dollar" xMin="62" yMin="-142" xMax="542" yMax="796">
      <contour>
        <pt x="303" y="93" on="1"/>
        <pt x="365" y="93" on="0"/>
        <pt x="429" y="137" on="0"/>
        <pt x="429" y="181" on="1"/>
        <pt x="429" y="215" on="0"/>
        <pt x="382" y="255" on="0"/>
        <pt x="319" y="276" on="1"/>
        <pt x="252" y="297" on="1"/>
        <pt x="165" y="323" on="0"/>
        <pt x="86" y="411" on="0"/>
        <pt x="86" y="481" on="1"/>
        <pt x="86" y="550" on="0"/>
        <pt x="187" y="643" on="0"/>
        <pt x="275" y="653" on="1"/>
        <pt x="275" y="796" on="1"/>
        <pt x="352" y="796" on="1"/>
        <pt x="352" y="654" on="1"/>
        <pt x="386" y="652" on="0"/>
        <pt x="458" y="641" on="0"/>
        <pt x="520" y="627" on="1"/>
        <pt x="505" y="532" on="1"/>
        <pt x="444" y="547" on="0"/>
        <pt x="351" y="562" on="0"/>
        <pt x="316" y="562" on="1"/>
        <pt x="258" y="562" on="0"/>
        <pt x="199" y="525" on="0"/>
        <pt x="199" y="490" on="1"/>
        <pt x="199" y="452" on="0"/>
        <pt x="247" y="410" on="0"/>
        <pt x="308" y="391" on="1"/>
        <pt x="377" y="370" on="1"/>
        <pt x="468" y="343" on="0"/>
        <pt x="542" y="260" on="0"/>
        <pt x="542" y="188" on="1"/>
        <pt x="542" y="111" on="0"/>
        <pt x="442" y="14" on="0"/>
        <pt x="352" y="3" on="1"/>
        <pt x="352" y="-142" on="1"/>
        <pt x="275" y="-142" on="1"/>
        <pt x="275" y="1" on="1"/>
        <pt x="226" y="3" on="0"/>
        <pt x="123" y="24" on="0"/>
        <pt x="62" y="44" on="1"/>
        <pt x="85" y="139" on="1"/>
        <pt x="156" y="116" on="0"/>
        <pt x="264" y="93" on="0"/>
      </contour>
    </TTGlyph>
    <TTGlyph name="dong" xMin="52" yMin="-169" xMax="595" yMax="655">
      <contour>
        <pt x="248" y="-10" on="1"/>
        <pt x="162" y="-10" on="0"/>
        <pt x="52" y="107" on="0"/>
        <pt x="52" y="201" on="1"/>
        <pt x="52" y="294" on="0"/>
        <pt x="181" y="415" on="0"/>
        <pt x="279" y="415" on="1"/>
        <pt x="316" y="415" on="0"/>
        <pt x="373" y="397" on="0"/>
        <pt x="402" y="376" on="1"/>
        <pt x="402" y="498" on="1"/>
        <pt x="247" y="498" on="1"/>
        <pt x="247" y="563" on="1"/>
        <pt x="402" y="563" on="1"/>
        <pt x="402" y="655" on="1"/>
        <pt x="515" y="655" on="1"/>
        <pt x="515" y="563" on="1"/>
        <pt x="595" y="563" on="1"/>
        <pt x="595" y="498" on="1"/>
        <pt x="515" y="498" on="1"/>
        <pt x="515" y="0" on="1"/>
        <pt x="418" y="0" on="1"/>
        <pt x="409" y="67" on="1"/>
        <pt x="372" y="27" on="0"/>
        <pt x="295" y="-10" on="0"/>
      </contour>
      <contour>
        <pt x="295" y="333" on="1"/>
        <pt x="237" y="333" on="0"/>
        <pt x="168" y="264" on="0"/>
        <pt x="168" y="207" on="1"/>
        <pt x="168" y="151" on="0"/>
        <pt x="232" y="83" on="0"/>
        <pt x="283" y="83" on="1"/>
        <pt x="313" y="83" on="0"/>
        <pt x="368" y="110" on="0"/>
        <pt x="402" y="140" on="1"/>
        <pt x="402" y="291" on="1"/>
        <pt x="374" y="313" on="0"/>
        <pt x="323" y="333" on="0"/>
      </contour>
      <contour>
        <pt x="507" y="-169" on="1"/>
        <pt x="74" y="-169" on="1"/>
        <pt x="74" y="-96" on="1"/>
        <pt x="507" y="-96" on="1"/>
      </contour>
    </TTGlyph>
    <TTGlyph name="dotaccent" xMin="238" yMin="567" xMax="377" yMax="700">
      <component glyphName="uni0307" x="307" y="0" flags="0x4"/>
    </TTGlyph>
    <TTGlyph name="dotlessi" xMin="104" yMin="0" xMax="541" yMax="471">
      <contour>
        <pt x="104" y="0" on="1"/>
        <pt x="104" y="95" on="1"/>
        <pt x="266" y="95" on="1"/>
        <pt x="266" y="376" on="1"/>
        <pt x="124" y="376" on="1"/>
        <pt x="124" y="471" on="1"/>
        <pt x="378" y="471" on="1"/>
        <pt x="378" y="95" on="1"/>
        <pt x="541" y="95" on="1"/>
        <pt x="541" y="0" on="1"/>
      </contour>
    </TTGlyph>
    <TTGlyph name="e" xMin="67" yMin="-10" xMax="548" yMax="486">
      <contour>
        <pt x="369" y="79" on="1"/>
        <pt x="457" y="77" on="1"/>
        <pt x="453" y="-10" on="1"/>
        <pt x="333" y="-8" on="1"/>
        <pt x="198" y="-6" on="0"/>
        <pt x="67" y="111" on="0"/>
        <pt x="67" y="229" on="1"/>
        <pt x="67" y="340" on="0"/>
        <pt x="207" y="486" on="0"/>
        <pt x="316" y="486" on="1"/>
        <pt x="423" y="486" on="0"/>
        <pt x="548" y="357" on="0"/>
        <pt x="548" y="245" on="1"/>
        <pt x="548" y="232" on="0"/>
        <pt x="545" y="207" on="0"/>
        <pt x="543" y="197" on="1"/>
        <pt x="177" y="197" on="1"/>
        <pt x="186" y="136" on="0"/>
        <pt x="274" y="82" on="0"/>
      </contour>
      <contour>
        <pt x="317" y="400" on="1"/>
        <pt x="262" y="400" on="0"/>
        <pt x="188" y="334" on="0"/>
        <pt x="178" y="276" on="1"/>
        <pt x="439" y="276" on="1"/>
        <pt x="435" y="336" on="0"/>
        <pt x="371" y="400" on="0"/>
      </contour>
    </TTGlyph>
    <TTGlyph name="eacute" xMin="67" yMin="-10" xMax="548" yMax="757">
      <component glyphName="e" x="0" y="0" flags="0x204"/>
      <component glyphName="uni0301" x="319" y="5" flags="0x4"/>
    </TTGlyph>
    <TTGlyph name="ebreve" xMin="67" yMin="-10" xMax="548" yMax="750">
      <component glyphName="e" x="0" y="0" flags="0x204"/>
      <component glyphName="uni0306" x="319" y="5" flags="0x4"/>
    </TTGlyph>
    <TTGlyph name="ecaron" xMin="67" yMin="-10" xMax="548" yMax="757">
      <component glyphName="e" x="0" y="0" flags="0x204"/>
      <component glyphName="uni030C" x="319" y="5" flags="0x4"/>
    </TTGlyph>
    <TTGlyph name="ecircumflex" xMin="67" yMin="-10" xMax="548" yMax="751">
      <component glyphName="e" x="0" y="0" flags="0x204"/>
      <component glyphName="uni0302" x="319" y="-1" flags="0x4"/>
    </TTGlyph>
    <TTGlyph name="edieresis" xMin="67" yMin="-10" xMax="548" yMax="698">
      <component glyphName="e" x="0" y="0" flags="0x204"/>
      <component glyphName="uni0308" x="319" y="5" flags="0x4"/>
    </TTGlyph>
    <TTGlyph name="edotaccent" xMin="67" yMin="-10" xMax="548" yMax="705">
      <component glyphName="e" x="0" y="0" flags="0x204"/>
      <component glyphName="uni0307" x="319" y="5" flags="0x4"/>
    </TTGlyph>
    <TTGlyph name="egrave" xMin="67" yMin="-10" xMax="548" yMax="757">
      <component glyphName="e" x="0" y="0" flags="0x204"/>
      <component glyphName="uni0300" x="319" y="5" flags="0x4"/>
    </TTGlyph>
    <TTGlyph name="eight" xMin="69" yMin="-15" xMax="545" yMax="670">
      <contour>
        <pt x="545" y="174" on="1"/>
        <pt x="545" y="89" on="0"/>
        <pt x="412" y="-15" on="0"/>
        <pt x="306" y="-15" on="1"/>
        <pt x="201" y="-15" on="0"/>
        <pt x="69" y="88" on="0"/>
        <pt x="69" y="172" on="1"/>
        <pt x="69" y="229" on="0"/>
        <pt x="146" y="316" on="0"/>
        <pt x="214" y="336" on="1"/>
        <pt x="214" y="341" on="1"/>
        <pt x="155" y="359" on="0"/>
        <pt x="88" y="437" on="0"/>
        <pt x="88" y="489" on="1"/>
        <pt x="88" y="570" on="0"/>
        <pt x="211" y="670" on="0"/>
        <pt x="309" y="670" on="1"/>
        <pt x="406" y="670" on="0"/>
        <pt x="526" y="572" on="0"/>
        <pt x="526" y="491" on="1"/>
        <pt x="526" y="439" on="0"/>
        <pt x="460" y="360" on="0"/>
        <pt x="400" y="341" on="1"/>
        <pt x="400" y="336" on="1"/>
        <pt x="468" y="317" on="0"/>
        <pt x="545" y="231" on="0"/>
      </contour>
      <contour>
        <pt x="196" y="478" on="1"/>
        <pt x="196" y="432" on="0"/>
        <pt x="259" y="374" on="0"/>
        <pt x="307" y="374" on="1"/>
        <pt x="355" y="374" on="0"/>
        <pt x="418" y="433" on="0"/>
        <pt x="418" y="480" on="1"/>
        <pt x="418" y="527" on="0"/>
        <pt x="358" y="582" on="0"/>
        <pt x="308" y="582" on="1"/>
        <pt x="258" y="582" on="0"/>
        <pt x="196" y="525" on="0"/>
      </contour>
      <contour>
        <pt x="178" y="183" on="1"/>
        <pt x="178" y="133" on="0"/>
        <pt x="249" y="72" on="0"/>
        <pt x="307" y="72" on="1"/>
        <pt x="364" y="72" on="0"/>
        <pt x="436" y="134" on="0"/>
        <pt x="436" y="185" on="1"/>
        <pt x="436" y="235" on="0"/>
        <pt x="364" y="297" on="0"/>
        <pt x="307" y="297" on="1"/>
        <pt x="250" y="297" on="0"/>
        <pt x="178" y="234" on="0"/>
      </contour>
    </TTGlyph>
    <TTGlyph name="eight.den" xMin="154" yMin="-15" xMax="460" yMax="395">
      <contour>
        <pt x="460" y="98" on="1"/>
        <pt x="460" y="47" on="0"/>
        <pt x="374" y="-15" on="0"/>
        <pt x="306" y="-15" on="1"/>
        <pt x="239" y="-15" on="0"/>
        <pt x="154" y="47" on="0"/>
        <pt x="154" y="97" on="1"/>
        <pt x="154" y="131" on="0"/>
        <pt x="203" y="183" on="0"/>
        <pt x="244" y="195" on="1"/>
        <pt x="244" y="197" on="1"/>
        <pt x="207" y="208" on="0"/>
        <pt x="166" y="255" on="0"/>
        <pt x="166" y="287" on="1"/>
        <pt x="166" y="336" on="0"/>
        <pt x="244" y="395" on="0"/>
        <pt x="308" y="395" on="1"/>
        <pt x="371" y="395" on="0"/>
        <pt x="448" y="336" on="0"/>
        <pt x="448" y="288" on="1"/>
        <pt x="448" y="256" on="0"/>
        <pt x="407" y="209" on="0"/>
        <pt x="371" y="198" on="1"/>
        <pt x="371" y="196" on="1"/>
        <pt x="412" y="184" on="0"/>
        <pt x="460" y="131" on="0"/>
      </contour>
      <contour>
        <pt x="239" y="279" on="1"/>
        <pt x="239" y="254" on="0"/>
        <pt x="277" y="222" on="0"/>
        <pt x="307" y="222" on="1"/>
        <pt x="337" y="222" on="0"/>
        <pt x="375" y="254" on="0"/>
        <pt x="375" y="280" on="1"/>
        <pt x="375" y="306" on="0"/>
        <pt x="339" y="336" on="0"/>
        <pt x="308" y="336" on="1"/>
        <pt x="277" y="336" on="0"/>
        <pt x="239" y="305" on="0"/>
      </contour>
      <contour>
        <pt x="229" y="106" on="1"/>
        <pt x="229" y="78" on="0"/>
        <pt x="272" y="43" on="0"/>
        <pt x="307" y="43" on="1"/>
        <pt x="342" y="43" on="0"/>
        <pt x="385" y="78" on="0"/>
        <pt x="385" y="107" on="1"/>
        <pt x="385" y="135" on="0"/>
        <pt x="342" y="168" on="0"/>
        <pt x="307" y="168" on="1"/>
        <pt x="272" y="168" on="0"/>
        <pt x="229" y="134" on="0"/>
      </contour>
    </TTGlyph>
    <TTGlyph name="eight.inf" xMin="154" yMin="-245" xMax="460" yMax="165">
      <component glyphName="eight.den" x="0" y="-230" flags="0x4"/>
    </TTGlyph>
    <TTGlyph name="eight.num" xMin="154" yMin="260" xMax="460" yMax="670">
      <component glyphName="eight.den" x="0" y="275" flags="0x4"/>
    </TTGlyph>
    <TTGlyph name="eight.sup" xMin="154" yMin="315" xMax="460" yMax="725">
      <component glyphName="eight.den" x="0" y="330" flags="0x4"/>
    </TTGlyph>
    <TTGlyph name="ellipsis" xMin="38" yMin="-15" xMax="576" yMax="147">
      <contour>
        <pt x="371" y="67" on="1"/>
        <pt x="371" y="25" on="0"/>
        <pt x="340" y="-15" on="0"/>
        <pt x="307" y="-15" on="1"/>
        <pt x="274" y="-15" on="0"/>
        <pt x="243" y="25" on="0"/>
        <pt x="243" y="67" on="1"/>
        <pt x="243" y="105" on="0"/>
        <pt x="277" y="147" on="0"/>
        <pt x="309" y="147" on="1"/>
        <pt x="341" y="147" on="0"/>
        <pt x="371" y="108" on="0"/>
      </contour>
      <contour>
        <pt x="576" y="67" on="1"/>
        <pt x="576" y="25" on="0"/>
        <pt x="545" y="-15" on="0"/>
        <pt x="512" y="-15" on="1"/>
        <pt x="479" y="-15" on="0"/>
        <pt x="448" y="25" on="0"/>
        <pt x="448" y="67" on="1"/>
        <pt x="448" y="105" on="0"/>
        <pt x="482" y="147" on="0"/>
        <pt x="514" y="147" on="1"/>
        <pt x="546" y="147" on="0"/>
        <pt x="576" y="108" on="0"/>
      </contour>
      <contour>
        <pt x="166" y="67" on="1"/>
        <pt x="166" y="25" on="0"/>
        <pt x="135" y="-15" on="0"/>
        <pt x="102" y="-15" on="1"/>
        <pt x="69" y="-15" on="0"/>
        <pt x="38" y="25" on="0"/>
        <pt x="38" y="67" on="1"/>
        <pt x="38" y="105" on="0"/>
        <pt x="72" y="147" on="0"/>
        <pt x="104" y="147" on="1"/>
        <pt x="136" y="147" on="0"/>
        <pt x="166" y="108" on="0"/>
      </contour>
    </TTGlyph>
    <TTGlyph name="emacron" xMin="67" yMin="-10" xMax="548" yMax="671">
      <component glyphName="e" x="0" y="0" flags="0x204"/>
      <component glyphName="uni0304" x="319" y="5" flags="0x4"/>
    </TTGlyph>
    <TTGlyph name="emdash" xMin="50" yMin="274" xMax="564" yMax="384">
      <contour>
        <pt x="50" y="274" on="1"/>
        <pt x="50" y="384" on="1"/>
        <pt x="564" y="384" on="1"/>
        <pt x="564" y="274" on="1"/>
      </contour>
    </TTGlyph>
    <TTGlyph name="endash" xMin="80" yMin="274" xMax="534" yMax="384">
      <contour>
        <pt x="80" y="274" on="1"/>
        <pt x="80" y="384" on="1"/>
        <pt x="534" y="384" on="1"/>
        <pt x="534" y="274" on="1"/>
      </contour>
    </TTGlyph>
    <TTGlyph name="eng" xMin="88" yMin="-237" xMax="530" yMax="479">
      <contour>
        <pt x="88" y="471" on="1"/>
        <pt x="184" y="471" on="1"/>
        <pt x="193" y="377" on="1"/>
        <pt x="255" y="433" on="0"/>
        <pt x="344" y="479" on="0"/>
        <pt x="391" y="479" on="1"/>
        <pt x="460" y="479" on="0"/>
        <pt x="530" y="402" on="0"/>
        <pt x="530" y="325" on="1"/>
        <pt x="530" y="-37" on="1"/>
        <pt x="530" y="-139" on="0"/>
        <pt x="447" y="-224" on="0"/>
        <pt x="339" y="-230" on="1"/>
        <pt x="219" y="-237" on="1"/>
        <pt x="215" y="-141" on="1"/>
        <pt x="331" y="-132" on="1"/>
        <pt x="379" y="-128" on="0"/>
        <pt x="418" y="-89" on="0"/>
        <pt x="418" y="-43" on="1"/>
        <pt x="418" y="305" on="1"/>
        <pt x="418" y="341" on="0"/>
        <pt x="387" y="375" on="0"/>
        <pt x="354" y="375" on="1"/>
        <pt x="326" y="375" on="0"/>
        <pt x="256" y="334" on="0"/>
        <pt x="200" y="284" on="1"/>
        <pt x="200" y="0" on="1"/>
        <pt x="88" y="0" on="1"/>
      </contour>
    </TTGlyph>
    <TTGlyph name="eogonek" xMin="67" yMin="-234" xMax="548" yMax="486">
      <contour>
        <pt x="301" y="-156" on="1"/>
        <pt x="301" y="-128" on="0"/>
        <pt x="344" y="-60" on="0"/>
        <pt x="392" y="-9" on="1"/>
        <pt x="333" y="-8" on="1"/>
        <pt x="198" y="-6" on="0"/>
        <pt x="67" y="111" on="0"/>
        <pt x="67" y="229" on="1"/>
        <pt x="67" y="340" on="0"/>
        <pt x="207" y="486" on="0"/>
        <pt x="316" y="486" on="1"/>
        <pt x="423" y="486" on="0"/>
        <pt x="548" y="357" on="0"/>
        <pt x="548" y="245" on="1"/>
        <pt x="548" y="232" on="0"/>
        <pt x="545" y="207" on="0"/>
        <pt x="543" y="197" on="1"/>
        <pt x="177" y="197" on="1"/>
        <pt x="186" y="136" on="0"/>
        <pt x="274" y="82" on="0"/>
        <pt x="369" y="79" on="1"/>
        <pt x="457" y="77" on="1"/>
        <pt x="453" y="-10" on="1"/>
        <pt x="417" y="-54" on="0"/>
        <pt x="386" y="-104" on="0"/>
        <pt x="386" y="-119" on="1"/>
        <pt x="386" y="-138" on="0"/>
        <pt x="406" y="-155" on="0"/>
        <pt x="430" y="-156" on="1"/>
        <pt x="496" y="-160" on="1"/>
        <pt x="488" y="-234" on="1"/>
        <pt x="393" y="-230" on="1"/>
        <pt x="345" y="-228" on="0"/>
        <pt x="301" y="-192" on="0"/>
      </contour>
      <contour>
        <pt x="317" y="400" on="1"/>
        <pt x="262" y="400" on="0"/>
        <pt x="188" y="334" on="0"/>
        <pt x="178" y="276" on="1"/>
        <pt x="439" y="276" on="1"/>
        <pt x="435" y="336" on="0"/>
        <pt x="371" y="400" on="0"/>
      </contour>
    </TTGlyph>
    <TTGlyph name="equal" xMin="87" yMin="179" xMax="527" yMax="478">
      <contour>
        <pt x="527" y="387" on="1"/>
        <pt x="87" y="387" on="1"/>
        <pt x="87" y="478" on="1"/>
        <pt x="527" y="478" on="1"/>
      </contour>
      <contour>
        <pt x="527" y="179" on="1"/>
        <pt x="87" y="179" on="1"/>
        <pt x="87" y="270" on="1"/>
        <pt x="527" y="270" on="1"/>
      </contour>
    </TTGlyph>
    <TTGlyph name="eth" xMin="56" yMin="-15" xMax="558" yMax="756">
      <contour>
        <pt x="324" y="676" on="1"/>
        <pt x="398" y="756" on="1"/>
        <pt x="448" y="714" on="1"/>
        <pt x="380" y="646" on="1"/>
        <pt x="470" y="590" on="0"/>
        <pt x="558" y="428" on="0"/>
        <pt x="558" y="320" on="1"/>
        <pt x="558" y="164" on="0"/>
        <pt x="413" y="-15" on="0"/>
        <pt x="288" y="-15" on="1"/>
        <pt x="185" y="-15" on="0"/>
        <pt x="56" y="110" on="0"/>
        <pt x="56" y="211" on="1"/>
        <pt x="56" y="300" on="0"/>
        <pt x="189" y="423" on="0"/>
        <pt x="288" y="423" on="1"/>
        <pt x="333" y="423" on="0"/>
        <pt x="407" y="405" on="0"/>
        <pt x="443" y="386" on="1"/>
        <pt x="433" y="449" on="0"/>
        <pt x="375" y="535" on="0"/>
        <pt x="317" y="569" on="1"/>
        <pt x="227" y="471" on="1"/>
        <pt x="179" y="513" on="1"/>
        <pt x="261" y="597" on="1"/>
        <pt x="238" y="608" on="0"/>
        <pt x="186" y="625" on="0"/>
        <pt x="152" y="633" on="1"/>
        <pt x="181" y="725" on="1"/>
        <pt x="222" y="716" on="0"/>
        <pt x="293" y="692" on="0"/>
      </contour>
      <contour>
        <pt x="309" y="339" on="1"/>
        <pt x="245" y="339" on="0"/>
        <pt x="172" y="270" on="0"/>
        <pt x="172" y="211" on="1"/>
        <pt x="172" y="151" on="0"/>
        <pt x="240" y="78" on="0"/>
        <pt x="294" y="78" on="1"/>
        <pt x="363" y="78" on="0"/>
        <pt x="442" y="192" on="0"/>
        <pt x="445" y="301" on="1"/>
        <pt x="406" y="321" on="0"/>
        <pt x="344" y="339" on="0"/>
      </contour>
    </TTGlyph>
    <TTGlyph name="exclam" xMin="203" yMin="-15" xMax="412" yMax="710">
      <contour>
        <pt x="344" y="258" on="1"/>
        <pt x="270" y="258" on="1"/>
        <pt x="203" y="710" on="1"/>
        <pt x="412" y="710" on="1"/>
      </contour>
      <contour>
        <pt x="401" y="59" on="1"/>
        <pt x="401" y="22" on="0"/>
        <pt x="352" y="-15" on="0"/>
        <pt x="302" y="-15" on="1"/>
        <pt x="252" y="-15" on="0"/>
        <pt x="205" y="21" on="0"/>
        <pt x="205" y="60" on="1"/>
        <pt x="205" y="97" on="0"/>
        <pt x="255" y="135" on="0"/>
        <pt x="304" y="135" on="1"/>
        <pt x="355" y="135" on="0"/>
        <pt x="401" y="99" on="0"/>
      </contour>
    </TTGlyph>
    <TTGlyph name="exclamdown" xMin="202" yMin="0" xMax="412" yMax="725">
      <contour>
        <pt x="214" y="651" on="1"/>
        <pt x="214" y="688" on="0"/>
        <pt x="263" y="725" on="0"/>
        <pt x="313" y="725" on="1"/>
        <pt x="363" y="725" on="0"/>
        <pt x="410" y="689" on="0"/>
        <pt x="410" y="650" on="1"/>
        <pt x="410" y="613" on="0"/>
        <pt x="360" y="575" on="0"/>
        <pt x="311" y="575" on="1"/>
        <pt x="260" y="575" on="0"/>
        <pt x="214" y="611" on="0"/>
      </contour>
      <contour>
        <pt x="271" y="452" on="1"/>
        <pt x="344" y="452" on="1"/>
        <pt x="412" y="0" on="1"/>
        <pt x="202" y="0" on="1"/>
      </contour>
    </TTGlyph>
    <TTGlyph name="f" xMin="72" yMin="0" xMax="558" yMax="720">
      <contour>
        <pt x="225" y="365" on="1"/>
        <pt x="72" y="365" on="1"/>
        <pt x="72" y="460" on="1"/>
        <pt x="225" y="460" on="1"/>
        <pt x="225" y="512" on="1"/>
        <pt x="225" y="618" on="0"/>
        <pt x="308" y="703" on="0"/>
        <pt x="419" y="711" on="1"/>
        <pt x="551" y="720" on="1"/>
        <pt x="558" y="624" on="1"/>
        <pt x="429" y="616" on="1"/>
        <pt x="375" y="612" on="0"/>
        <pt x="333" y="570" on="0"/>
        <pt x="333" y="519" on="1"/>
        <pt x="333" y="460" on="1"/>
        <pt x="517" y="460" on="1"/>
        <pt x="517" y="365" on="1"/>
        <pt x="336" y="365" on="1"/>
        <pt x="336" y="0" on="1"/>
        <pt x="225" y="0" on="1"/>
      </contour>
    </TTGlyph>
    <TTGlyph name="five" xMin="79" yMin="-10" xMax="539" yMax="655">
      <contour>
        <pt x="349" y="422" on="1"/>
        <pt x="433" y="422" on="0"/>
        <pt x="539" y="318" on="0"/>
        <pt x="539" y="233" on="1"/>
        <pt x="539" y="128" on="0"/>
        <pt x="376" y="15" on="0"/>
        <pt x="206" y="0" on="1"/>
        <pt x="90" y="-10" on="1"/>
        <pt x="79" y="88" on="1"/>
        <pt x="198" y="99" on="1"/>
        <pt x="319" y="110" on="0"/>
        <pt x="425" y="173" on="0"/>
        <pt x="425" y="236" on="1"/>
        <pt x="425" y="281" on="0"/>
        <pt x="368" y="335" on="0"/>
        <pt x="322" y="335" on="1"/>
        <pt x="287" y="335" on="0"/>
        <pt x="215" y="311" on="0"/>
        <pt x="179" y="288" on="1"/>
        <pt x="100" y="302" on="1"/>
        <pt x="97" y="307" on="1"/>
        <pt x="120" y="655" on="1"/>
        <pt x="500" y="655" on="1"/>
        <pt x="500" y="561" on="1"/>
        <pt x="214" y="561" on="1"/>
        <pt x="199" y="379" on="1"/>
        <pt x="232" y="401" on="0"/>
        <pt x="307" y="422" on="0"/>
      </contour>
    </TTGlyph>
    <TTGlyph name="five.den" xMin="159" yMin="-10" xMax="453" yMax="380">
      <contour>
        <pt x="171" y="171" on="1"/>
        <pt x="184" y="380" on="1"/>
        <pt x="429" y="380" on="1"/>
        <pt x="429" y="318" on="1"/>
        <pt x="246" y="318" on="1"/>
        <pt x="238" y="220" on="1"/>
        <pt x="258" y="233" on="0"/>
        <pt x="304" y="245" on="0"/>
        <pt x="332" y="245" on="1"/>
        <pt x="387" y="245" on="0"/>
        <pt x="453" y="184" on="0"/>
        <pt x="453" y="132" on="1"/>
        <pt x="453" y="71" on="0"/>
        <pt x="348" y="6" on="0"/>
        <pt x="236" y="-4" on="1"/>
        <pt x="167" y="-10" on="1"/>
        <pt x="159" y="56" on="1"/>
        <pt x="232" y="62" on="1"/>
        <pt x="310" y="69" on="0"/>
        <pt x="379" y="101" on="0"/>
        <pt x="379" y="132" on="1"/>
        <pt x="379" y="158" on="0"/>
        <pt x="347" y="184" on="0"/>
        <pt x="315" y="184" on="1"/>
        <pt x="294" y="184" on="0"/>
        <pt x="250" y="172" on="0"/>
        <pt x="225" y="160" on="1"/>
        <pt x="173" y="169" on="1"/>
      </contour>
    </TTGlyph>
    <TTGlyph name="five.inf" xMin="159" yMin="-240" xMax="453" yMax="150">
      <component glyphName="five.den" x="0" y="-230" flags="0x4"/>
    </TTGlyph>
    <TTGlyph name="five.num" xMin="159" yMin="265" xMax="453" yMax="655">
      <component glyphName="five.den" x="0" y="275" flags="0x4"/>
    </TTGlyph>
    <TTGlyph name="five.sup" xMin="159" yMin="320" xMax="453" yMax="710">
      <component glyphName="five.den" x="0" y="330" flags="0x4"/>
    </TTGlyph>
    <TTGlyph name="fiveeighths" xMin="0" yMin="-245" xMax="614" yMax="655">
      <component glyphName="eight.den" x="133" y="-230" flags="0x4"/>
      <component glyphName="fracbar" x="0" y="0" flags="0x204"/>
      <component glyphName="five.den" x="-140" y="275" flags="0x4"/>
    </TTGlyph>
    <TTGlyph name="fivesixths" xMin="0" yMin="-245" xMax="614" yMax="655">
      <component glyphName="five.den" x="-140" y="275" flags="0x4"/>
      <component glyphName="six.den" x="106" y="-230" flags="0x4"/>
      <component glyphName="fracbar" x="0" y="0" flags="0x204"/>
    </TTGlyph>
    <TTGlyph name="four" xMin="46" yMin="0" xMax="589" yMax="655">
      <contour>
        <pt x="356" y="164" on="1"/>
        <pt x="46" y="164" on="1"/>
        <pt x="46" y="242" on="1"/>
        <pt x="316" y="655" on="1"/>
        <pt x="463" y="655" on="1"/>
        <pt x="463" y="254" on="1"/>
        <pt x="589" y="254" on="1"/>
        <pt x="589" y="164" on="1"/>
        <pt x="463" y="164" on="1"/>
        <pt x="463" y="0" on="1"/>
        <pt x="356" y="0" on="1"/>
      </contour>
      <contour>
        <pt x="365" y="244" on="1"/>
        <pt x="365" y="583" on="1"/>
        <pt x="148" y="247" on="1"/>
        <pt x="148" y="244" on="1"/>
      </contour>
    </TTGlyph>
    <TTGlyph name="four.den" xMin="151" yMin="0" xMax="480" yMax="380">
      <contour>
        <pt x="335" y="92" on="1"/>
        <pt x="151" y="92" on="1"/>
        <pt x="151" y="145" on="1"/>
        <pt x="320" y="380" on="1"/>
        <pt x="407" y="380" on="1"/>
        <pt x="407" y="153" on="1"/>
        <pt x="480" y="153" on="1"/>
        <pt x="480" y="92" on="1"/>
        <pt x="407" y="92" on="1"/>
        <pt x="407" y="0" on="1"/>
        <pt x="335" y="0" on="1"/>
      </contour>
      <contour>
        <pt x="341" y="146" on="1"/>
        <pt x="341" y="330" on="1"/>
        <pt x="217" y="150" on="1"/>
        <pt x="217" y="146" on="1"/>
      </contour>
    </TTGlyph>
    <TTGlyph name="four.inf" xMin="151" yMin="-230" xMax="480" yMax="150">
      <component glyphName="four.den" x="0" y="-230" flags="0x4"/>
    </TTGlyph>
    <TTGlyph name="four.num" xMin="151" yMin="275" xMax="480" yMax="655">
      <component glyphName="four.den" x="0" y="275" flags="0x4"/>
    </TTGlyph>
    <TTGlyph name="four.sup" xMin="151" yMin="330" xMax="480" yMax="710">
      <component glyphName="four.den" x="0" y="330" flags="0x4"/>
    </TTGlyph>
    <TTGlyph name="fourfifths" xMin="0" yMin="-240" xMax="614" yMax="655">
      <component glyphName="four.den" x="-144" y="275" flags="0x4"/>
      <component glyphName="five.den" x="143" y="-230" flags="0x4"/>
      <component glyphName="fracbar" x="0" y="0" flags="0x204"/>
    </TTGlyph>
    <TTGlyph name="fracbar" xMin="0" yMin="-70" xMax="614" yMax="496">
      <contour>
        <pt x="614" y="427" on="1"/>
        <pt x="317" y="202" on="1"/>
        <pt x="60" y="-70" on="1"/>
        <pt x="0" y="-1" on="1"/>
        <pt x="299" y="224" on="1"/>
        <pt x="554" y="496" on="1"/>
      </contour>
    </TTGlyph>
    <TTGlyph name="fraction" xMin="0" yMin="-2" xMax="614" yMax="657">
      <contour>
        <pt x="273" y="338" on="1"/>
        <pt x="514" y="657" on="1"/>
        <pt x="614" y="657" on="1"/>
        <pt x="337" y="315" on="1"/>
        <pt x="100" y="-2" on="1"/>
        <pt x="0" y="-2" on="1"/>
      </contour>
    </TTGlyph>
    <TTGlyph name="g" xMin="52" yMin="-239" xMax="530" yMax="482">
      <contour>
        <pt x="255" y="14" on="1"/>
        <pt x="168" y="14" on="0"/>
        <pt x="52" y="140" on="0"/>
        <pt x="52" y="240" on="1"/>
        <pt x="52" y="346" on="0"/>
        <pt x="197" y="482" on="0"/>
        <pt x="313" y="482" on="1"/>
        <pt x="348" y="482" on="0"/>
        <pt x="417" y="466" on="0"/>
        <pt x="448" y="451" on="1"/>
        <pt x="513" y="475" on="1"/>
        <pt x="530" y="475" on="1"/>
        <pt x="530" y="1" on="1"/>
        <pt x="530" y="-121" on="0"/>
        <pt x="427" y="-225" on="0"/>
        <pt x="304" y="-231" on="1"/>
        <pt x="136" y="-239" on="1"/>
        <pt x="132" y="-144" on="1"/>
        <pt x="292" y="-135" on="1"/>
        <pt x="360" y="-131" on="0"/>
        <pt x="418" y="-70" on="0"/>
        <pt x="418" y="-2" on="1"/>
        <pt x="418" y="84" on="1"/>
        <pt x="382" y="47" on="0"/>
        <pt x="305" y="14" on="0"/>
      </contour>
      <contour>
        <pt x="325" y="388" on="1"/>
        <pt x="254" y="388" on="0"/>
        <pt x="168" y="308" on="0"/>
        <pt x="168" y="247" on="1"/>
        <pt x="168" y="184" on="0"/>
        <pt x="240" y="107" on="0"/>
        <pt x="297" y="107" on="1"/>
        <pt x="328" y="107" on="0"/>
        <pt x="384" y="134" on="0"/>
        <pt x="418" y="164" on="1"/>
        <pt x="418" y="360" on="1"/>
        <pt x="395" y="374" on="0"/>
        <pt x="349" y="388" on="0"/>
      </contour>
    </TTGlyph>
    <TTGlyph name="gbreve" xMin="52" yMin="-239" xMax="530" yMax="748">
      <component glyphName="g" x="0" y="0" flags="0x204"/>
      <component glyphName="uni0306" x="309" y="3" flags="0x4"/>
    </TTGlyph>
    <TTGlyph name="gcaron" xMin="52" yMin="-239" xMax="530" yMax="755">
      <component glyphName="g" x="0" y="0" flags="0x204"/>
      <component glyphName="uni030C" x="309" y="3" flags="0x4"/>
    </TTGlyph>
    <TTGlyph name="gcircumflex" xMin="52" yMin="-239" xMax="530" yMax="750">
      <component glyphName="g" x="0" y="0" flags="0x204"/>
      <component glyphName="uni0302" x="309" y="-2" flags="0x4"/>
    </TTGlyph>
    <TTGlyph name="gdotaccent" xMin="52" yMin="-239" xMax="530" yMax="703">
      <component glyphName="g" x="0" y="0" flags="0x204"/>
      <component glyphName="uni0307" x="309" y="3" flags="0x4"/>
    </TTGlyph>
    <TTGlyph name="germandbls" xMin="85" yMin="-4" xMax="565" yMax="725">
      <contour>
        <pt x="448" y="153" on="1"/>
        <pt x="448" y="187" on="0"/>
        <pt x="385" y="266" on="0"/>
        <pt x="308" y="334" on="1"/>
        <pt x="308" y="382" on="1"/>
        <pt x="364" y="445" on="0"/>
        <pt x="413" y="523" on="0"/>
        <pt x="413" y="559" on="1"/>
        <pt x="413" y="592" on="0"/>
        <pt x="365" y="631" on="0"/>
        <pt x="324" y="631" on="1"/>
        <pt x="263" y="631" on="0"/>
        <pt x="197" y="557" on="0"/>
        <pt x="197" y="488" on="1"/>
        <pt x="197" y="0" on="1"/>
        <pt x="85" y="0" on="1"/>
        <pt x="85" y="488" on="1"/>
        <pt x="85" y="595" on="0"/>
        <pt x="215" y="725" on="0"/>
        <pt x="325" y="725" on="1"/>
        <pt x="419" y="725" on="0"/>
        <pt x="528" y="639" on="0"/>
        <pt x="528" y="568" on="1"/>
        <pt x="528" y="520" on="0"/>
        <pt x="479" y="435" on="0"/>
        <pt x="417" y="365" on="1"/>
        <pt x="498" y="294" on="0"/>
        <pt x="565" y="199" on="0"/>
        <pt x="565" y="143" on="1"/>
        <pt x="565" y="74" on="0"/>
        <pt x="482" y="5" on="0"/>
        <pt x="394" y="0" on="1"/>
        <pt x="322" y="-4" on="1"/>
        <pt x="316" y="93" on="1"/>
        <pt x="384" y="97" on="1"/>
        <pt x="416" y="99" on="0"/>
        <pt x="448" y="127" on="0"/>
      </contour>
    </TTGlyph>
    <TTGlyph name="grave" xMin="136" yMin="385" xMax="444" yMax="710">
      <contour>
        <pt x="444" y="385" on="1"/>
        <pt x="339" y="385" on="1"/>
        <pt x="136" y="710" on="1"/>
        <pt x="302" y="710" on="1"/>
      </contour>
    </TTGlyph>
    <TTGlyph name="greater" xMin="73" yMin="67" xMax="551" yMax="575">
      <contour>
        <pt x="551" y="373" on="1"/>
        <pt x="551" y="270" on="1"/>
        <pt x="73" y="67" on="1"/>
        <pt x="73" y="171" on="1"/>
        <pt x="445" y="321" on="1"/>
        <pt x="73" y="470" on="1"/>
        <pt x="73" y="575" on="1"/>
      </contour>
    </TTGlyph>
    <TTGlyph name="greaterequal" xMin="91" yMin="0" xMax="528" yMax="669">
      <contour>
        <pt x="528" y="384" on="1"/>
        <pt x="91" y="198" on="1"/>
        <pt x="91" y="303" on="1"/>
        <pt x="421" y="434" on="1"/>
        <pt x="91" y="565" on="1"/>
        <pt x="91" y="669" on="1"/>
        <pt x="528" y="486" on="1"/>
      </contour>
      <contour>
        <pt x="528" y="91" on="1"/>
        <pt x="528" y="0" on="1"/>
        <pt x="91" y="0" on="1"/>
        <pt x="91" y="91" on="1"/>
      </contour>
    </TTGlyph>
    <TTGlyph name="guilsinglleft" xMin="144" yMin="-15" xMax="450" yMax="484">
      <contour>
        <pt x="450" y="95" on="1"/>
        <pt x="450" y="-15" on="1"/>
        <pt x="144" y="189" on="1"/>
        <pt x="144" y="281" on="1"/>
        <pt x="450" y="484" on="1"/>
        <pt x="450" y="376" on="1"/>
        <pt x="279" y="238" on="1"/>
      </contour>
    </TTGlyph>
    <TTGlyph name="guilsinglright" xMin="164" yMin="-15" xMax="470" yMax="484">
      <contour>
        <pt x="164" y="374" on="1"/>
        <pt x="164" y="484" on="1"/>
        <pt x="470" y="280" on="1"/>
        <pt x="470" y="188" on="1"/>
        <pt x="164" y="-15" on="1"/>
        <pt x="164" y="93" on="1"/>
        <pt x="335" y="231" on="1"/>
      </contour>
    </TTGlyph>
    <TTGlyph name="h" xMin="88" yMin="0" xMax="530" yMax="710">
      <contour>
        <pt x="88" y="710" on="1"/>
        <pt x="200" y="710" on="1"/>
        <pt x="200" y="384" on="1"/>
        <pt x="258" y="436" on="0"/>
        <pt x="345" y="479" on="0"/>
        <pt x="391" y="479" on="1"/>
        <pt x="460" y="479" on="0"/>
        <pt x="530" y="402" on="0"/>
        <pt x="530" y="325" on="1"/>
        <pt x="530" y="0" on="1"/>
        <pt x="418" y="0" on="1"/>
        <pt x="418" y="305" on="1"/>
        <pt x="418" y="341" on="0"/>
        <pt x="387" y="375" on="0"/>
        <pt x="354" y="375" on="1"/>
        <pt x="326" y="375" on="0"/>
        <pt x="256" y="334" on="0"/>
        <pt x="200" y="284" on="1"/>
        <pt x="200" y="0" on="1"/>
        <pt x="88" y="0" on="1"/>
      </contour>
    </TTGlyph>
    <TTGlyph name="hbar" xMin="20" yMin="0" xMax="530" yMax="710">
      <contour>
        <pt x="368" y="589" on="1"/>
        <pt x="368" y="523" on="1"/>
        <pt x="213" y="523" on="1"/>
        <pt x="213" y="332" on="1"/>
        <pt x="273" y="387" on="0"/>
        <pt x="351" y="428" on="0"/>
        <pt x="391" y="428" on="1"/>
        <pt x="460" y="428" on="0"/>
        <pt x="530" y="350" on="0"/>
        <pt x="530" y="274" on="1"/>
        <pt x="530" y="0" on="1"/>
        <pt x="418" y="0" on="1"/>
        <pt x="418" y="254" on="1"/>
        <pt x="418" y="289" on="0"/>
        <pt x="387" y="323" on="0"/>
        <pt x="354" y="323" on="1"/>
        <pt x="330" y="323" on="0"/>
        <pt x="271" y="286" on="0"/>
        <pt x="213" y="232" on="1"/>
        <pt x="213" y="0" on="1"/>
        <pt x="101" y="0" on="1"/>
        <pt x="101" y="523" on="1"/>
        <pt x="20" y="523" on="1"/>
        <pt x="20" y="589" on="1"/>
        <pt x="101" y="589" on="1"/>
        <pt x="101" y="710" on="1"/>
        <pt x="213" y="710" on="1"/>
        <pt x="213" y="589" on="1"/>
      </contour>
    </TTGlyph>
    <TTGlyph name="hcircumflex" xMin="-43" yMin="0" xMax="530" yMax="959">
      <component glyphName="h" x="0" y="0" flags="0x204"/>
      <component glyphName="uni0302" x="143" y="207" flags="0x4"/>
    </TTGlyph>
    <TTGlyph name="hungarumlaut" xMin="118" yMin="547" xMax="542" yMax="749">
      <component glyphName="uni030B" x="307" y="0" flags="0x4"/>
    </TTGlyph>
    <TTGlyph name="hyphen" xMin="120" yMin="274" xMax="494" yMax="384">
      <contour>
        <pt x="120" y="274" on="1"/>
        <pt x="120" y="384" on="1"/>
        <pt x="494" y="384" on="1"/>
        <pt x="494" y="274" on="1"/>
      </contour>
    </TTGlyph>
    <TTGlyph name="i" xMin="104" yMin="0" xMax="541" yMax="740">
      <contour>
        <pt x="403" y="665" on="1"/>
        <pt x="403" y="631" on="0"/>
        <pt x="356" y="592" on="0"/>
        <pt x="314" y="592" on="1"/>
        <pt x="273" y="592" on="0"/>
        <pt x="227" y="631" on="0"/>
        <pt x="227" y="666" on="1"/>
        <pt x="227" y="699" on="0"/>
        <pt x="276" y="740" on="0"/>
        <pt x="315" y="740" on="1"/>
        <pt x="357" y="740" on="0"/>
        <pt x="403" y="701" on="0"/>
      </contour>
      <contour>
        <pt x="104" y="0" on="1"/>
        <pt x="104" y="95" on="1"/>
        <pt x="266" y="95" on="1"/>
        <pt x="266" y="376" on="1"/>
        <pt x="124" y="376" on="1"/>
        <pt x="124" y="471" on="1"/>
        <pt x="378" y="471" on="1"/>
        <pt x="378" y="95" on="1"/>
        <pt x="541" y="95" on="1"/>
        <pt x="541" y="0" on="1"/>
      </contour>
    </TTGlyph>
    <TTGlyph name="i.dot" xMin="104" yMin="0" xMax="541" yMax="700">
      <component glyphName="dotlessi" x="0" y="0" flags="0x204"/>
      <component glyphName="uni0307" x="319" y="0" flags="0x4"/>
    </TTGlyph>
    <TTGlyph name="iacute" xMin="104" yMin="0" xMax="541" yMax="752">
      <component glyphName="dotlessi" x="0" y="0" flags="0x204"/>
      <component glyphName="uni0301" x="319" y="0" flags="0x4"/>
    </TTGlyph>
    <TTGlyph name="ibreve" xMin="104" yMin="0" xMax="541" yMax="745">
      <component glyphName="dotlessi" x="0" y="0" flags="0x204"/>
      <component glyphName="uni0306" x="319" y="0" flags="0x4"/>
    </TTGlyph>
    <TTGlyph name="icircumflex" xMin="104" yMin="0" xMax="541" yMax="752">
      <component glyphName="dotlessi" x="0" y="0" flags="0x204"/>
      <component glyphName="uni0302" x="319" y="0" flags="0x4"/>
    </TTGlyph>
    <TTGlyph name="idieresis" xMin="104" yMin="0" xMax="541" yMax="693">
      <component glyphName="dotlessi" x="0" y="0" flags="0x204"/>
      <component glyphName="uni0308" x="319" y="0" flags="0x4"/>
    </TTGlyph>
    <TTGlyph name="igrave" xMin="104" yMin="0" xMax="541" yMax="752">
      <component glyphName="dotlessi" x="0" y="0" flags="0x204"/>
      <component glyphName="uni0300" x="319" y="0" flags="0x4"/>
    </TTGlyph>
    <TTGlyph name="imacron" xMin="104" yMin="0" xMax="541" yMax="666">
      <component glyphName="dotlessi" x="0" y="0" flags="0x204"/>
      <component glyphName="uni0304" x="319" y="0" flags="0x4"/>
    </TTGlyph>
    <TTGlyph name="iogonek" xMin="104" yMin="-234" xMax="541" yMax="740">
      <contour>
        <pt x="403" y="665" on="1"/>
        <pt x="403" y="631" on="0"/>
        <pt x="356" y="592" on="0"/>
        <pt x="314" y="592" on="1"/>
        <pt x="273" y="592" on="0"/>
        <pt x="227" y="631" on="0"/>
        <pt x="227" y="666" on="1"/>
        <pt x="227" y="699" on="0"/>
        <pt x="276" y="740" on="0"/>
        <pt x="315" y="740" on="1"/>
        <pt x="357" y="740" on="0"/>
        <pt x="403" y="701" on="0"/>
      </contour>
      <contour>
        <pt x="104" y="0" on="1"/>
        <pt x="104" y="95" on="1"/>
        <pt x="266" y="95" on="1"/>
        <pt x="266" y="376" on="1"/>
        <pt x="124" y="376" on="1"/>
        <pt x="124" y="471" on="1"/>
        <pt x="378" y="471" on="1"/>
        <pt x="378" y="95" on="1"/>
        <pt x="541" y="95" on="1"/>
        <pt x="541" y="0" on="1"/>
        <pt x="354" y="0" on="1"/>
        <pt x="323" y="-44" on="0"/>
        <pt x="294" y="-100" on="0"/>
        <pt x="294" y="-119" on="1"/>
        <pt x="294" y="-138" on="0"/>
        <pt x="314" y="-155" on="0"/>
        <pt x="337" y="-156" on="1"/>
        <pt x="404" y="-160" on="1"/>
        <pt x="396" y="-234" on="1"/>
        <pt x="300" y="-230" on="1"/>
        <pt x="252" y="-228" on="0"/>
        <pt x="208" y="-192" on="0"/>
        <pt x="208" y="-156" on="1"/>
        <pt x="208" y="-130" on="0"/>
        <pt x="249" y="-58" on="0"/>
        <pt x="297" y="0" on="1"/>
      </contour>
    </TTGlyph>
    <TTGlyph name="itilde" xMin="104" yMin="0" xMax="541" yMax="746">
      <component glyphName="dotlessi" x="0" y="0" flags="0x204"/>
      <component glyphName="uni0303" x="319" y="0" flags="0x4"/>
    </TTGlyph>
    <TTGlyph name="j" xMin="100" yMin="-237" xMax="464" yMax="736">
      <contour>
        <pt x="464" y="664" on="1"/>
        <pt x="464" y="630" on="0"/>
        <pt x="416" y="592" on="0"/>
        <pt x="375" y="592" on="1"/>
        <pt x="335" y="592" on="0"/>
        <pt x="289" y="630" on="0"/>
        <pt x="289" y="664" on="1"/>
        <pt x="289" y="696" on="0"/>
        <pt x="337" y="736" on="0"/>
        <pt x="377" y="736" on="1"/>
        <pt x="419" y="736" on="0"/>
        <pt x="464" y="699" on="0"/>
      </contour>
      <contour>
        <pt x="440" y="471" on="1"/>
        <pt x="440" y="-24" on="1"/>
        <pt x="440" y="-133" on="0"/>
        <pt x="352" y="-224" on="0"/>
        <pt x="237" y="-230" on="1"/>
        <pt x="104" y="-237" on="1"/>
        <pt x="100" y="-141" on="1"/>
        <pt x="229" y="-132" on="1"/>
        <pt x="284" y="-128" on="0"/>
        <pt x="328" y="-83" on="0"/>
        <pt x="328" y="-31" on="1"/>
        <pt x="328" y="376" on="1"/>
        <pt x="113" y="376" on="1"/>
        <pt x="113" y="471" on="1"/>
      </contour>
    </TTGlyph>
    <TTGlyph name="jcircumflex" xMin="100" yMin="-237" xMax="573" yMax="752">
      <component glyphName="uni0237" x="0" y="0" flags="0x204"/>
      <component glyphName="uni0302" x="387" y="0" flags="0x4"/>
    </TTGlyph>
    <TTGlyph name="k" xMin="98" yMin="0" xMax="570" yMax="710">
      <contour>
        <pt x="98" y="710" on="1"/>
        <pt x="210" y="710" on="1"/>
        <pt x="210" y="259" on="1"/>
        <pt x="427" y="471" on="1"/>
        <pt x="568" y="471" on="1"/>
        <pt x="568" y="469" on="1"/>
        <pt x="327" y="245" on="1"/>
        <pt x="570" y="2" on="1"/>
        <pt x="570" y="0" on="1"/>
        <pt x="423" y="0" on="1"/>
        <pt x="210" y="224" on="1"/>
        <pt x="210" y="0" on="1"/>
        <pt x="98" y="0" on="1"/>
      </contour>
    </TTGlyph>
    <TTGlyph name="l" xMin="58" yMin="-6" xMax="538" yMax="710">
      <contour>
        <pt x="230" y="182" on="1"/>
        <pt x="230" y="615" on="1"/>
        <pt x="58" y="615" on="1"/>
        <pt x="58" y="710" on="1"/>
        <pt x="341" y="710" on="1"/>
        <pt x="341" y="192" on="1"/>
        <pt x="341" y="142" on="0"/>
        <pt x="380" y="99" on="0"/>
        <pt x="429" y="96" on="1"/>
        <pt x="538" y="90" on="1"/>
        <pt x="533" y="-6" on="1"/>
        <pt x="409" y="0" on="1"/>
        <pt x="307" y="5" on="0"/>
        <pt x="230" y="84" on="0"/>
      </contour>
    </TTGlyph>
    <TTGlyph name="lacute" xMin="58" yMin="-6" xMax="538" yMax="1002">
      <component glyphName="l" x="0" y="0" flags="0x204"/>
      <component glyphName="uni0301" x="281" y="250" flags="0x4"/>
    </TTGlyph>
    <TTGlyph name="lcaron" xMin="58" yMin="-6" xMax="583" yMax="788">
      <component glyphName="l" x="0" y="0" flags="0x204"/>
      <component glyphName="uni0315" x="482" y="78" flags="0x4"/>
    </TTGlyph>
    <TTGlyph name="ldot" xMin="58" yMin="-6" xMax="680" yMax="710">
      <component glyphName="l" x="0" y="0" flags="0x204"/>
      <component glyphName="middotcat" x="301" y="0" flags="0x4"/>
    </TTGlyph>
    <TTGlyph name="less" xMin="64" yMin="67" xMax="541" yMax="575">
      <contour>
        <pt x="541" y="171" on="1"/>
        <pt x="541" y="67" on="1"/>
        <pt x="64" y="270" on="1"/>
        <pt x="64" y="373" on="1"/>
        <pt x="541" y="575" on="1"/>
        <pt x="541" y="470" on="1"/>
        <pt x="170" y="321" on="1"/>
      </contour>
    </TTGlyph>
    <TTGlyph name="lessequal" xMin="84" yMin="0" xMax="521" yMax="669">
      <contour>
        <pt x="521" y="303" on="1"/>
        <pt x="521" y="198" on="1"/>
        <pt x="84" y="384" on="1"/>
        <pt x="84" y="486" on="1"/>
        <pt x="521" y="669" on="1"/>
        <pt x="521" y="565" on="1"/>
        <pt x="191" y="434" on="1"/>
      </contour>
      <contour>
        <pt x="521" y="0" on="1"/>
        <pt x="84" y="0" on="1"/>
        <pt x="84" y="91" on="1"/>
        <pt x="521" y="91" on="1"/>
      </contour>
    </TTGlyph>
    <TTGlyph name="lslash" xMin="58" yMin="-6" xMax="538" yMax="710">
      <contour>
        <pt x="230" y="301" on="1"/>
        <pt x="87" y="217" on="1"/>
        <pt x="87" y="302" on="1"/>
        <pt x="230" y="386" on="1"/>
        <pt x="230" y="615" on="1"/>
        <pt x="58" y="615" on="1"/>
        <pt x="58" y="710" on="1"/>
        <pt x="341" y="710" on="1"/>
        <pt x="341" y="436" on="1"/>
        <pt x="508" y="535" on="1"/>
        <pt x="508" y="451" on="1"/>
        <pt x="341" y="351" on="1"/>
        <pt x="341" y="192" on="1"/>
        <pt x="341" y="142" on="0"/>
        <pt x="380" y="99" on="0"/>
        <pt x="429" y="96" on="1"/>
        <pt x="538" y="90" on="1"/>
        <pt x="533" y="-6" on="1"/>
        <pt x="409" y="0" on="1"/>
        <pt x="307" y="5" on="0"/>
        <pt x="230" y="84" on="0"/>
        <pt x="230" y="182" on="1"/>
      </contour>
    </TTGlyph>
    <TTGlyph name="m" xMin="47" yMin="0" xMax="569" yMax="475">
      <contour>
        <pt x="47" y="471" on="1"/>
        <pt x="127" y="471" on="1"/>
        <pt x="138" y="372" on="1"/>
        <pt x="151" y="372" on="1"/>
        <pt x="185" y="427" on="0"/>
        <pt x="245" y="475" on="0"/>
        <pt x="282" y="475" on="1"/>
        <pt x="319" y="475" on="0"/>
        <pt x="353" y="431" on="0"/>
        <pt x="353" y="384" on="1"/>
        <pt x="353" y="375" on="1"/>
        <pt x="369" y="375" on="1"/>
        <pt x="404" y="430" on="0"/>
        <pt x="458" y="475" on="0"/>
        <pt x="494" y="475" on="1"/>
        <pt x="533" y="475" on="0"/>
        <pt x="569" y="428" on="0"/>
        <pt x="569" y="376" on="1"/>
        <pt x="569" y="0" on="1"/>
        <pt x="471" y="0" on="1"/>
        <pt x="471" y="323" on="1"/>
        <pt x="471" y="342" on="0"/>
        <pt x="455" y="359" on="0"/>
        <pt x="438" y="359" on="1"/>
        <pt x="421" y="359" on="0"/>
        <pt x="383" y="331" on="0"/>
        <pt x="355" y="300" on="1"/>
        <pt x="355" y="0" on="1"/>
        <pt x="263" y="0" on="1"/>
        <pt x="263" y="325" on="1"/>
        <pt x="263" y="343" on="0"/>
        <pt x="247" y="359" on="0"/>
        <pt x="230" y="359" on="1"/>
        <pt x="213" y="359" on="0"/>
        <pt x="174" y="331" on="0"/>
        <pt x="146" y="299" on="1"/>
        <pt x="146" y="0" on="1"/>
        <pt x="47" y="0" on="1"/>
      </contour>
    </TTGlyph>
    <TTGlyph name="macron" xMin="139" yMin="587" xMax="475" yMax="666">
      <component glyphName="uni0304" x="307" y="0" flags="0x4"/>
    </TTGlyph>
    <TTGlyph name="middotcat" xMin="222" yMin="268" xMax="379" yMax="454">
      <contour>
        <pt x="379" y="361" on="1"/>
        <pt x="379" y="316" on="0"/>
        <pt x="338" y="268" on="0"/>
        <pt x="300" y="268" on="1"/>
        <pt x="262" y="268" on="0"/>
        <pt x="222" y="315" on="0"/>
        <pt x="222" y="360" on="1"/>
        <pt x="222" y="404" on="0"/>
        <pt x="264" y="454" on="0"/>
        <pt x="301" y="454" on="1"/>
        <pt x="340" y="454" on="0"/>
        <pt x="379" y="408" on="0"/>
      </contour>
    </TTGlyph>
    <TTGlyph name="middotcat.cap" xMin="160" yMin="282" xMax="317" yMax="468">
      <contour>
        <pt x="317" y="376" on="1"/>
        <pt x="317" y="331" on="0"/>
        <pt x="276" y="282" on="0"/>
        <pt x="238" y="282" on="1"/>
        <pt x="199" y="282" on="0"/>
        <pt x="160" y="329" on="0"/>
        <pt x="160" y="375" on="1"/>
        <pt x="160" y="419" on="0"/>
        <pt x="201" y="468" on="0"/>
        <pt x="238" y="468" on="1"/>
        <pt x="278" y="468" on="0"/>
        <pt x="317" y="422" on="0"/>
      </contour>
    </TTGlyph>
    <TTGlyph name="minus" xMin="66" yMin="283" xMax="547" yMax="374">
      <contour>
        <pt x="547" y="283" on="1"/>
        <pt x="66" y="283" on="1"/>
        <pt x="66" y="374" on="1"/>
        <pt x="547" y="374" on="1"/>
      </contour>
    </TTGlyph>
    <TTGlyph name="mu" xMin="84" yMin="-230" xMax="526" yMax="471">
      <contour>
        <pt x="251" y="-9" on="1"/>
        <pt x="230" y="-9" on="0"/>
        <pt x="192" y="7" on="0"/>
        <pt x="176" y="23" on="1"/>
        <pt x="201" y="-213" on="1"/>
        <pt x="201" y="-230" on="1"/>
        <pt x="84" y="-230" on="1"/>
        <pt x="84" y="471" on="1"/>
        <pt x="196" y="471" on="1"/>
        <pt x="196" y="166" on="1"/>
        <pt x="196" y="130" on="0"/>
        <pt x="227" y="96" on="0"/>
        <pt x="260" y="96" on="1"/>
        <pt x="288" y="96" on="0"/>
        <pt x="358" y="137" on="0"/>
        <pt x="414" y="187" on="1"/>
        <pt x="414" y="471" on="1"/>
        <pt x="526" y="471" on="1"/>
        <pt x="526" y="0" on="1"/>
        <pt x="427" y="0" on="1"/>
        <pt x="420" y="92" on="1"/>
        <pt x="359" y="32" on="0"/>
        <pt x="289" y="-9" on="0"/>
      </contour>
    </TTGlyph>
    <TTGlyph name="multiply" xMin="67" yMin="90" xMax="547" yMax="569">
      <contour>
        <pt x="305" y="265" on="1"/>
        <pt x="135" y="90" on="1"/>
        <pt x="67" y="158" on="1"/>
        <pt x="242" y="328" on="1"/>
        <pt x="68" y="496" on="1"/>
        <pt x="139" y="567" on="1"/>
        <pt x="308" y="394" on="1"/>
        <pt x="479" y="569" on="1"/>
        <pt x="547" y="502" on="1"/>
        <pt x="371" y="331" on="1"/>
        <pt x="546" y="162" on="1"/>
        <pt x="474" y="92" on="1"/>
      </contour>
    </TTGlyph>
    <TTGlyph name="n" xMin="88" yMin="0" xMax="530" yMax="479">
      <contour>
        <pt x="88" y="471" on="1"/>
        <pt x="184" y="471" on="1"/>
        <pt x="193" y="377" on="1"/>
        <pt x="255" y="433" on="0"/>
        <pt x="344" y="479" on="0"/>
        <pt x="391" y="479" on="1"/>
        <pt x="460" y="479" on="0"/>
        <pt x="530" y="402" on="0"/>
        <pt x="530" y="325" on="1"/>
        <pt x="530" y="0" on="1"/>
        <pt x="418" y="0" on="1"/>
        <pt x="418" y="305" on="1"/>
        <pt x="418" y="341" on="0"/>
        <pt x="387" y="375" on="0"/>
        <pt x="354" y="375" on="1"/>
        <pt x="326" y="375" on="0"/>
        <pt x="256" y="334" on="0"/>
        <pt x="200" y="284" on="1"/>
        <pt x="200" y="0" on="1"/>
        <pt x="88" y="0" on="1"/>
      </contour>
    </TTGlyph>
    <TTGlyph name="nacute" xMin="88" yMin="0" xMax="530" yMax="752">
      <component glyphName="n" x="0" y="0" flags="0x204"/>
      <component glyphName="uni0301" x="308" y="0" flags="0x4"/>
    </TTGlyph>
    <TTGlyph name="ncaron" xMin="88" yMin="0" xMax="530" yMax="752">
      <component glyphName="n" x="0" y="0" flags="0x204"/>
      <component glyphName="uni030C" x="308" y="0" flags="0x4"/>
    </TTGlyph>
    <TTGlyph name="nine" xMin="68" yMin="0" xMax="546" yMax="670">
      <contour>
        <pt x="546" y="430" on="1"/>
        <pt x="546" y="336" on="0"/>
        <pt x="465" y="176" on="0"/>
        <pt x="373" y="86" on="1"/>
        <pt x="285" y="0" on="1"/>
        <pt x="137" y="0" on="1"/>
        <pt x="136" y="2" on="1"/>
        <pt x="274" y="128" on="1"/>
        <pt x="305" y="156" on="0"/>
        <pt x="353" y="210" on="0"/>
        <pt x="371" y="237" on="1"/>
        <pt x="349" y="231" on="0"/>
        <pt x="306" y="225" on="0"/>
        <pt x="283" y="225" on="1"/>
        <pt x="182" y="225" on="0"/>
        <pt x="68" y="339" on="0"/>
        <pt x="68" y="441" on="1"/>
        <pt x="68" y="542" on="0"/>
        <pt x="205" y="670" on="0"/>
        <pt x="314" y="670" on="1"/>
        <pt x="418" y="670" on="0"/>
        <pt x="546" y="538" on="0"/>
      </contour>
      <contour>
        <pt x="412" y="318" on="1"/>
        <pt x="422" y="344" on="0"/>
        <pt x="432" y="398" on="0"/>
        <pt x="432" y="426" on="1"/>
        <pt x="432" y="495" on="0"/>
        <pt x="364" y="578" on="0"/>
        <pt x="309" y="578" on="1"/>
        <pt x="252" y="578" on="0"/>
        <pt x="183" y="502" on="0"/>
        <pt x="183" y="439" on="1"/>
        <pt x="183" y="375" on="0"/>
        <pt x="251" y="304" on="0"/>
        <pt x="313" y="304" on="1"/>
        <pt x="339" y="304" on="0"/>
        <pt x="388" y="311" on="0"/>
      </contour>
    </TTGlyph>
    <TTGlyph name="nine.den" xMin="153" yMin="0" xMax="459" yMax="395">
      <contour>
        <pt x="459" y="254" on="1"/>
        <pt x="459" y="203" on="0"/>
        <pt x="411" y="113" on="0"/>
        <pt x="349" y="50" on="1"/>
        <pt x="299" y="0" on="1"/>
        <pt x="200" y="0" on="1"/>
        <pt x="200" y="1" on="1"/>
        <pt x="280" y="76" on="1"/>
        <pt x="297" y="91" on="0"/>
        <pt x="325" y="122" on="0"/>
        <pt x="337" y="138" on="1"/>
        <pt x="326" y="135" on="0"/>
        <pt x="302" y="131" on="0"/>
        <pt x="290" y="131" on="1"/>
        <pt x="226" y="131" on="0"/>
        <pt x="153" y="198" on="0"/>
        <pt x="153" y="258" on="1"/>
        <pt x="153" y="319" on="0"/>
        <pt x="241" y="395" on="0"/>
        <pt x="311" y="395" on="1"/>
        <pt x="377" y="395" on="0"/>
        <pt x="459" y="317" on="0"/>
      </contour>
      <contour>
        <pt x="369" y="193" on="1"/>
        <pt x="375" y="207" on="0"/>
        <pt x="381" y="237" on="0"/>
        <pt x="381" y="251" on="1"/>
        <pt x="381" y="288" on="0"/>
        <pt x="341" y="331" on="0"/>
        <pt x="308" y="331" on="1"/>
        <pt x="273" y="331" on="0"/>
        <pt x="232" y="291" on="0"/>
        <pt x="232" y="257" on="1"/>
        <pt x="232" y="223" on="0"/>
        <pt x="273" y="184" on="0"/>
        <pt x="310" y="184" on="1"/>
        <pt x="327" y="184" on="0"/>
        <pt x="356" y="188" on="0"/>
      </contour>
    </TTGlyph>
    <TTGlyph name="nine.inf" xMin="153" yMin="-230" xMax="459" yMax="165">
      <component glyphName="nine.den" x="0" y="-230" flags="0x4"/>
    </TTGlyph>
    <TTGlyph name="nine.num" xMin="153" yMin="275" xMax="459" yMax="670">
      <component glyphName="nine.den" x="0" y="275" flags="0x4"/>
    </TTGlyph>
    <TTGlyph name="nine.sup" xMin="153" yMin="330" xMax="459" yMax="725">
      <component glyphName="nine.den" x="0" y="330" flags="0x4"/>
    </TTGlyph>
    <TTGlyph name="notequal" xMin="87" yMin="28" xMax="527" yMax="633">
      <contour>
        <pt x="192" y="179" on="1"/>
        <pt x="87" y="179" on="1"/>
        <pt x="87" y="270" on="1"/>
        <pt x="237" y="266" on="1"/>
        <pt x="272" y="334" on="1"/>
        <pt x="299" y="392" on="1"/>
        <pt x="87" y="387" on="1"/>
        <pt x="87" y="478" on="1"/>
        <pt x="339" y="478" on="1"/>
        <pt x="411" y="633" on="1"/>
        <pt x="501" y="633" on="1"/>
        <pt x="420" y="478" on="1"/>
        <pt x="527" y="478" on="1"/>
        <pt x="527" y="387" on="1"/>
        <pt x="375" y="391" on="1"/>
        <pt x="344" y="333" on="1"/>
        <pt x="313" y="265" on="1"/>
        <pt x="527" y="270" on="1"/>
        <pt x="527" y="179" on="1"/>
        <pt x="274" y="179" on="1"/>
        <pt x="206" y="28" on="1"/>
        <pt x="115" y="28" on="1"/>
      </contour>
    </TTGlyph>
    <TTGlyph name="ntilde" xMin="88" yMin="0" xMax="530" yMax="746">
      <component glyphName="n" x="0" y="0" flags="0x204"/>
      <component glyphName="uni0303" x="308" y="0" flags="0x4"/>
    </TTGlyph>
    <TTGlyph name="numbersign" xMin="37" yMin="-12" xMax="577" yMax="666">
      <contour>
        <pt x="148" y="158" on="1"/>
        <pt x="37" y="158" on="1"/>
        <pt x="37" y="263" on="1"/>
        <pt x="166" y="263" on="1"/>
        <pt x="190" y="398" on="1"/>
        <pt x="69" y="398" on="1"/>
        <pt x="69" y="503" on="1"/>
        <pt x="208" y="503" on="1"/>
        <pt x="237" y="666" on="1"/>
        <pt x="313" y="666" on="1"/>
        <pt x="283" y="502" on="1"/>
        <pt x="393" y="502" on="1"/>
        <pt x="423" y="666" on="1"/>
        <pt x="498" y="666" on="1"/>
        <pt x="469" y="503" on="1"/>
        <pt x="577" y="503" on="1"/>
        <pt x="577" y="398" on="1"/>
        <pt x="450" y="398" on="1"/>
        <pt x="426" y="263" on="1"/>
        <pt x="546" y="263" on="1"/>
        <pt x="546" y="158" on="1"/>
        <pt x="407" y="158" on="1"/>
        <pt x="377" y="-12" on="1"/>
        <pt x="302" y="-12" on="1"/>
        <pt x="333" y="159" on="1"/>
        <pt x="222" y="159" on="1"/>
        <pt x="192" y="-12" on="1"/>
        <pt x="118" y="-12" on="1"/>
      </contour>
      <contour>
        <pt x="223" y="225" on="1"/>
        <pt x="355" y="225" on="1"/>
        <pt x="393" y="434" on="1"/>
        <pt x="260" y="434" on="1"/>
      </contour>
    </TTGlyph>
    <TTGlyph name="o" xMin="56" yMin="-15" xMax="558" yMax="486">
      <contour>
        <pt x="558" y="235" on="1"/>
        <pt x="558" y="125" on="0"/>
        <pt x="416" y="-15" on="0"/>
        <pt x="305" y="-15" on="1"/>
        <pt x="194" y="-15" on="0"/>
        <pt x="56" y="124" on="0"/>
        <pt x="56" y="236" on="1"/>
        <pt x="56" y="345" on="0"/>
        <pt x="198" y="486" on="0"/>
        <pt x="309" y="486" on="1"/>
        <pt x="419" y="486" on="0"/>
        <pt x="558" y="346" on="0"/>
      </contour>
      <contour>
        <pt x="172" y="236" on="1"/>
        <pt x="172" y="162" on="0"/>
        <pt x="244" y="78" on="0"/>
        <pt x="307" y="78" on="1"/>
        <pt x="371" y="78" on="0"/>
        <pt x="442" y="160" on="0"/>
        <pt x="442" y="235" on="1"/>
        <pt x="442" y="308" on="0"/>
        <pt x="370" y="392" on="0"/>
        <pt x="307" y="392" on="1"/>
        <pt x="244" y="392" on="0"/>
        <pt x="172" y="309" on="0"/>
      </contour>
    </TTGlyph>
    <TTGlyph name="oacute" xMin="56" yMin="-15" xMax="558" yMax="757">
      <component glyphName="o" x="0" y="0" flags="0x204"/>
      <component glyphName="uni0301" x="308" y="5" flags="0x4"/>
    </TTGlyph>
    <TTGlyph name="obreve" xMin="56" yMin="-15" xMax="558" yMax="750">
      <component glyphName="o" x="0" y="0" flags="0x204"/>
      <component glyphName="uni0306" x="308" y="5" flags="0x4"/>
    </TTGlyph>
    <TTGlyph name="ocircumflex" xMin="56" yMin="-15" xMax="558" yMax="752">
      <component glyphName="o" x="0" y="0" flags="0x204"/>
      <component glyphName="uni0302" x="308" y="0" flags="0x4"/>
    </TTGlyph>
    <TTGlyph name="odieresis" xMin="56" yMin="-15" xMax="558" yMax="698">
      <component glyphName="o" x="0" y="0" flags="0x204"/>
      <component glyphName="uni0308" x="308" y="5" flags="0x4"/>
    </TTGlyph>
    <TTGlyph name="oe" xMin="21" yMin="-14" xMax="594" yMax="484">
      <contour>
        <pt x="307" y="69" on="1"/>
        <pt x="286" y="29" on="0"/>
        <pt x="226" y="-14" on="0"/>
        <pt x="191" y="-14" on="1"/>
        <pt x="115" y="-14" on="0"/>
        <pt x="21" y="124" on="0"/>
        <pt x="21" y="236" on="1"/>
        <pt x="21" y="344" on="0"/>
        <pt x="119" y="484" on="0"/>
        <pt x="195" y="484" on="1"/>
        <pt x="232" y="484" on="0"/>
        <pt x="293" y="435" on="0"/>
        <pt x="313" y="390" on="1"/>
        <pt x="337" y="435" on="0"/>
        <pt x="402" y="484" on="0"/>
        <pt x="439" y="484" on="1"/>
        <pt x="510" y="484" on="0"/>
        <pt x="594" y="355" on="0"/>
        <pt x="594" y="245" on="1"/>
        <pt x="594" y="233" on="0"/>
        <pt x="592" y="209" on="0"/>
        <pt x="590" y="197" on="1"/>
        <pt x="356" y="197" on="1"/>
        <pt x="361" y="134" on="0"/>
        <pt x="413" y="80" on="0"/>
        <pt x="472" y="77" on="1"/>
        <pt x="517" y="74" on="1"/>
        <pt x="513" y="-10" on="1"/>
        <pt x="447" y="-8" on="1"/>
        <pt x="397" y="-7" on="0"/>
        <pt x="327" y="31" on="0"/>
      </contour>
      <contour>
        <pt x="132" y="236" on="1"/>
        <pt x="132" y="159" on="0"/>
        <pt x="167" y="74" on="0"/>
        <pt x="199" y="74" on="1"/>
        <pt x="228" y="74" on="0"/>
        <pt x="261" y="158" on="0"/>
        <pt x="261" y="235" on="1"/>
        <pt x="261" y="310" on="0"/>
        <pt x="228" y="397" on="0"/>
        <pt x="199" y="397" on="1"/>
        <pt x="168" y="397" on="0"/>
        <pt x="132" y="311" on="0"/>
      </contour>
      <contour>
        <pt x="432" y="401" on="1"/>
        <pt x="403" y="401" on="0"/>
        <pt x="362" y="334" on="0"/>
        <pt x="357" y="276" on="1"/>
        <pt x="493" y="276" on="1"/>
        <pt x="491" y="335" on="0"/>
        <pt x="458" y="401" on="0"/>
      </contour>
    </TTGlyph>
    <TTGlyph name="ogonek" xMin="194" yMin="-234" xMax="389" yMax="13">
      <component glyphName="uni0328" x="307" y="0" flags="0x4"/>
    </TTGlyph>
    <TTGlyph name="ograve" xMin="56" yMin="-15" xMax="558" yMax="757">
      <component glyphName="o" x="0" y="0" flags="0x204"/>
      <component glyphName="uni0300" x="308" y="5" flags="0x4"/>
    </TTGlyph>
    <TTGlyph name="ohorn" xMin="56" yMin="-15" xMax="610" yMax="583">
      <contour>
        <pt x="488" y="407" on="1"/>
        <pt x="479" y="407" on="0"/>
        <pt x="457" y="409" on="0"/>
        <pt x="443" y="412" on="1"/>
        <pt x="441" y="405" on="1"/>
        <pt x="501" y="369" on="0"/>
        <pt x="558" y="281" on="0"/>
        <pt x="558" y="226" on="1"/>
        <pt x="558" y="120" on="0"/>
        <pt x="416" y="-15" on="0"/>
        <pt x="305" y="-15" on="1"/>
        <pt x="194" y="-15" on="0"/>
        <pt x="56" y="122" on="0"/>
        <pt x="56" y="233" on="1"/>
        <pt x="56" y="337" on="0"/>
        <pt x="198" y="471" on="0"/>
        <pt x="309" y="471" on="1"/>
        <pt x="423" y="471" on="1"/>
        <pt x="469" y="471" on="0"/>
        <pt x="503" y="516" on="0"/>
        <pt x="506" y="583" on="1"/>
        <pt x="610" y="583" on="1"/>
        <pt x="607" y="493" on="0"/>
        <pt x="548" y="407" on="0"/>
      </contour>
      <contour>
        <pt x="172" y="233" on="1"/>
        <pt x="172" y="160" on="0"/>
        <pt x="244" y="78" on="0"/>
        <pt x="307" y="78" on="1"/>
        <pt x="371" y="78" on="0"/>
        <pt x="442" y="159" on="0"/>
        <pt x="442" y="232" on="1"/>
        <pt x="442" y="304" on="0"/>
        <pt x="370" y="386" on="0"/>
        <pt x="307" y="386" on="1"/>
        <pt x="244" y="386" on="0"/>
        <pt x="172" y="305" on="0"/>
      </contour>
    </TTGlyph>
    <TTGlyph name="ohungarumlaut" xMin="56" yMin="-15" xMax="558" yMax="754">
      <component glyphName="o" x="0" y="0" flags="0x204"/>
      <component glyphName="uni030B" x="308" y="5" flags="0x4"/>
    </TTGlyph>
    <TTGlyph name="omacron" xMin="56" yMin="-15" xMax="558" yMax="671">
      <component glyphName="o" x="0" y="0" flags="0x204"/>
      <component glyphName="uni0304" x="308" y="5" flags="0x4"/>
    </TTGlyph>
    <TTGlyph name="one" xMin="105" yMin="0" xMax="533" yMax="666">
      <contour>
        <pt x="533" y="0" on="1"/>
        <pt x="106" y="0" on="1"/>
        <pt x="106" y="94" on="1"/>
        <pt x="269" y="94" on="1"/>
        <pt x="269" y="517" on="1"/>
        <pt x="105" y="434" on="1"/>
        <pt x="105" y="545" on="1"/>
        <pt x="345" y="666" on="1"/>
        <pt x="382" y="666" on="1"/>
        <pt x="382" y="94" on="1"/>
        <pt x="533" y="94" on="1"/>
      </contour>
    </TTGlyph>
    <TTGlyph name="one.den" xMin="177" yMin="0" xMax="453" yMax="380">
      <contour>
        <pt x="453" y="0" on="1"/>
        <pt x="177" y="0" on="1"/>
        <pt x="177" y="66" on="1"/>
        <pt x="280" y="66" on="1"/>
        <pt x="280" y="281" on="1"/>
        <pt x="177" y="233" on="1"/>
        <pt x="177" y="310" on="1"/>
        <pt x="328" y="380" on="1"/>
        <pt x="357" y="380" on="1"/>
        <pt x="357" y="66" on="1"/>
        <pt x="453" y="66" on="1"/>
      </contour>
    </TTGlyph>
    <TTGlyph name="one.inf" xMin="177" yMin="-230" xMax="453" yMax="150">
      <component glyphName="one.den" x="0" y="-230" flags="0x4"/>
    </TTGlyph>
    <TTGlyph name="one.num" xMin="177" yMin="275" xMax="453" yMax="655">
      <component glyphName="one.den" x="0" y="275" flags="0x4"/>
    </TTGlyph>
    <TTGlyph name="one.sup" xMin="177" yMin="330" xMax="453" yMax="710">
      <component glyphName="one.den" x="0" y="330" flags="0x4"/>
    </TTGlyph>
    <TTGlyph name="oneeighth" xMin="0" yMin="-245" xMax="614" yMax="655">
      <component glyphName="eight.den" x="133" y="-230" flags="0x4"/>
      <component glyphName="fracbar" x="0" y="0" flags="0x204"/>
      <component glyphName="one.den" x="-167" y="275" flags="0x4"/>
    </TTGlyph>
    <TTGlyph name="onefifth" xMin="0" yMin="-240" xMax="614" yMax="655">
      <component glyphName="five.den" x="143" y="-230" flags="0x4"/>
      <component glyphName="fracbar" x="0" y="0" flags="0x204"/>
      <component glyphName="one.den" x="-167" y="275" flags="0x4"/>
    </TTGlyph>
    <TTGlyph name="onehalf" xMin="0" yMin="-230" xMax="614" yMax="655">
      <component glyphName="one.den" x="-167" y="275" flags="0x4"/>
      <component glyphName="two.den" x="126" y="-230" flags="0x4"/>
      <component glyphName="fracbar" x="0" y="0" flags="0x204"/>
    </TTGlyph>
    <TTGlyph name="onequarter" xMin="0" yMin="-230" xMax="614" yMax="655">
      <component glyphName="four.den" x="96" y="-230" flags="0x4"/>
      <component glyphName="fracbar" x="0" y="0" flags="0x204"/>
      <component glyphName="one.den" x="-167" y="275" flags="0x4"/>
    </TTGlyph>
    <TTGlyph name="onesixth" xMin="0" yMin="-245" xMax="614" yMax="655">
      <component glyphName="six.den" x="106" y="-230" flags="0x4"/>
      <component glyphName="fracbar" x="0" y="0" flags="0x204"/>
      <component glyphName="one.den" x="-167" y="275" flags="0x4"/>
    </TTGlyph>
    <TTGlyph name="onethird" xMin="0" yMin="-240" xMax="614" yMax="655">
      <component glyphName="three.den" x="146" y="-230" flags="0x4"/>
      <component glyphName="fracbar" x="0" y="0" flags="0x204"/>
      <component glyphName="one.den" x="-167" y="275" flags="0x4"/>
    </TTGlyph>
    <TTGlyph name="ordfeminine" xMin="103" yMin="171" xMax="518" yMax="692">
      <contour>
        <pt x="459" y="573" on="1"/>
        <pt x="459" y="431" on="1"/>
        <pt x="459" y="412" on="0"/>
        <pt x="472" y="397" on="0"/>
        <pt x="487" y="396" on="1"/>
        <pt x="518" y="393" on="1"/>
        <pt x="512" y="328" on="1"/>
        <pt x="465" y="330" on="1"/>
        <pt x="430" y="331" on="0"/>
        <pt x="387" y="354" on="0"/>
        <pt x="378" y="377" on="1"/>
        <pt x="368" y="377" on="1"/>
        <pt x="336" y="351" on="0"/>
        <pt x="261" y="325" on="0"/>
        <pt x="218" y="325" on="1"/>
        <pt x="165" y="325" on="0"/>
        <pt x="103" y="379" on="0"/>
        <pt x="103" y="427" on="1"/>
        <pt x="103" y="482" on="0"/>
        <pt x="164" y="534" on="0"/>
        <pt x="236" y="541" on="1"/>
        <pt x="374" y="555" on="1"/>
        <pt x="374" y="573" on="1"/>
        <pt x="374" y="601" on="0"/>
        <pt x="333" y="621" on="0"/>
        <pt x="281" y="621" on="1"/>
        <pt x="260" y="621" on="0"/>
        <pt x="189" y="614" on="0"/>
        <pt x="146" y="608" on="1"/>
        <pt x="138" y="679" on="1"/>
        <pt x="183" y="685" on="0"/>
        <pt x="261" y="692" on="0"/>
        <pt x="285" y="692" on="1"/>
        <pt x="379" y="692" on="0"/>
        <pt x="459" y="638" on="0"/>
      </contour>
      <contour>
        <pt x="190" y="432" on="1"/>
        <pt x="190" y="413" on="0"/>
        <pt x="216" y="393" on="0"/>
        <pt x="240" y="393" on="1"/>
        <pt x="273" y="393" on="0"/>
        <pt x="336" y="418" on="0"/>
        <pt x="374" y="446" on="1"/>
        <pt x="374" y="499" on="1"/>
        <pt x="258" y="484" on="1"/>
        <pt x="221" y="480" on="0"/>
        <pt x="190" y="457" on="0"/>
      </contour>
      <contour>
        <pt x="122" y="171" on="1"/>
        <pt x="122" y="238" on="1"/>
        <pt x="504" y="238" on="1"/>
        <pt x="504" y="171" on="1"/>
      </contour>
    </TTGlyph>
    <TTGlyph name="ordmasculine" xMin="113" yMin="171" xMax="500" yMax="692">
      <contour>
        <pt x="499" y="509" on="1"/>
        <pt x="499" y="428" on="0"/>
        <pt x="389" y="324" on="0"/>
        <pt x="305" y="324" on="1"/>
        <pt x="221" y="324" on="0"/>
        <pt x="113" y="427" on="0"/>
        <pt x="113" y="508" on="1"/>
        <pt x="113" y="588" on="0"/>
        <pt x="223" y="692" on="0"/>
        <pt x="308" y="692" on="1"/>
        <pt x="391" y="692" on="0"/>
        <pt x="499" y="589" on="0"/>
      </contour>
      <contour>
        <pt x="202" y="508" on="1"/>
        <pt x="202" y="457" on="0"/>
        <pt x="258" y="398" on="0"/>
        <pt x="306" y="398" on="1"/>
        <pt x="354" y="398" on="0"/>
        <pt x="410" y="457" on="0"/>
        <pt x="410" y="508" on="1"/>
        <pt x="410" y="559" on="0"/>
        <pt x="354" y="618" on="0"/>
        <pt x="306" y="618" on="1"/>
        <pt x="258" y="618" on="0"/>
        <pt x="202" y="559" on="0"/>
      </contour>
      <contour>
        <pt x="122" y="171" on="1"/>
        <pt x="122" y="238" on="1"/>
        <pt x="500" y="238" on="1"/>
        <pt x="500" y="171" on="1"/>
      </contour>
    </TTGlyph>
    <TTGlyph name="oslash" xMin="29" yMin="-71" xMax="585" yMax="542">
      <contour>
        <pt x="558" y="235" on="1"/>
        <pt x="558" y="126" on="0"/>
        <pt x="416" y="-15" on="0"/>
        <pt x="305" y="-15" on="1"/>
        <pt x="277" y="-15" on="0"/>
        <pt x="219" y="0" on="0"/>
        <pt x="191" y="14" on="1"/>
        <pt x="136" y="-71" on="1"/>
        <pt x="29" y="-71" on="1"/>
        <pt x="131" y="59" on="1"/>
        <pt x="95" y="95" on="0"/>
        <pt x="56" y="187" on="0"/>
        <pt x="56" y="236" on="1"/>
        <pt x="56" y="345" on="0"/>
        <pt x="198" y="486" on="0"/>
        <pt x="309" y="486" on="1"/>
        <pt x="339" y="486" on="0"/>
        <pt x="395" y="471" on="0"/>
        <pt x="422" y="457" on="1"/>
        <pt x="477" y="542" on="1"/>
        <pt x="585" y="542" on="1"/>
        <pt x="484" y="410" on="1"/>
        <pt x="519" y="375" on="0"/>
        <pt x="558" y="284" on="0"/>
      </contour>
      <contour>
        <pt x="307" y="392" on="1"/>
        <pt x="244" y="392" on="0"/>
        <pt x="172" y="309" on="0"/>
        <pt x="172" y="236" on="1"/>
        <pt x="172" y="160" on="0"/>
        <pt x="242" y="78" on="0"/>
        <pt x="307" y="78" on="1"/>
        <pt x="370" y="78" on="0"/>
        <pt x="442" y="161" on="0"/>
        <pt x="442" y="235" on="1"/>
        <pt x="442" y="311" on="0"/>
        <pt x="372" y="392" on="0"/>
      </contour>
    </TTGlyph>
    <TTGlyph name="otilde" xMin="56" yMin="-15" xMax="558" yMax="751">
      <component glyphName="o" x="0" y="0" flags="0x204"/>
      <component glyphName="uni0303" x="308" y="5" flags="0x4"/>
    </TTGlyph>
    <TTGlyph name="p" xMin="85" yMin="-230" xMax="562" yMax="480">
      <contour>
        <pt x="197" y="-230" on="1"/>
        <pt x="85" y="-230" on="1"/>
        <pt x="85" y="471" on="1"/>
        <pt x="181" y="471" on="1"/>
        <pt x="190" y="399" on="1"/>
        <pt x="231" y="442" on="0"/>
        <pt x="310" y="480" on="0"/>
        <pt x="359" y="480" on="1"/>
        <pt x="447" y="480" on="0"/>
        <pt x="562" y="348" on="0"/>
        <pt x="562" y="244" on="1"/>
        <pt x="562" y="135" on="0"/>
        <pt x="432" y="-6" on="0"/>
        <pt x="334" y="-6" on="1"/>
        <pt x="294" y="-6" on="0"/>
        <pt x="229" y="20" on="0"/>
        <pt x="197" y="48" on="1"/>
      </contour>
      <contour>
        <pt x="446" y="237" on="1"/>
        <pt x="446" y="305" on="0"/>
        <pt x="374" y="388" on="0"/>
        <pt x="317" y="388" on="1"/>
        <pt x="286" y="388" on="0"/>
        <pt x="231" y="361" on="0"/>
        <pt x="197" y="330" on="1"/>
        <pt x="197" y="126" on="1"/>
        <pt x="224" y="105" on="0"/>
        <pt x="273" y="85" on="0"/>
        <pt x="299" y="85" on="1"/>
        <pt x="366" y="85" on="0"/>
        <pt x="446" y="169" on="0"/>
      </contour>
    </TTGlyph>
    <TTGlyph name="paragraph" xMin="65" yMin="0" xMax="528" yMax="686">
      <contour>
        <pt x="315" y="599" on="1"/>
        <pt x="315" y="273" on="1"/>
        <pt x="311" y="273" on="1"/>
        <pt x="192" y="273" on="0"/>
        <pt x="65" y="381" on="0"/>
        <pt x="65" y="481" on="1"/>
        <pt x="65" y="584" on="0"/>
        <pt x="192" y="686" on="0"/>
        <pt x="320" y="686" on="1"/>
        <pt x="528" y="686" on="1"/>
        <pt x="528" y="0" on="1"/>
        <pt x="416" y="0" on="1"/>
        <pt x="416" y="599" on="1"/>
      </contour>
    </TTGlyph>
    <TTGlyph name="parenleft" xMin="108" yMin="-149" xMax="537" yMax="807">
      <contour>
        <pt x="108" y="326" on="1"/>
        <pt x="108" y="465" on="0"/>
        <pt x="295" y="708" on="0"/>
        <pt x="479" y="807" on="1"/>
        <pt x="537" y="734" on="1"/>
        <pt x="376" y="647" on="0"/>
        <pt x="222" y="450" on="0"/>
        <pt x="222" y="329" on="1"/>
        <pt x="222" y="208" on="0"/>
        <pt x="376" y="11" on="0"/>
        <pt x="537" y="-76" on="1"/>
        <pt x="479" y="-149" on="1"/>
        <pt x="295" y="-50" on="0"/>
        <pt x="108" y="190" on="0"/>
      </contour>
    </TTGlyph>
    <TTGlyph name="parenright" xMin="77" yMin="-149" xMax="506" yMax="807">
      <contour>
        <pt x="506" y="332" on="1"/>
        <pt x="506" y="193" on="0"/>
        <pt x="319" y="-50" on="0"/>
        <pt x="135" y="-149" on="1"/>
        <pt x="77" y="-76" on="1"/>
        <pt x="238" y="11" on="0"/>
        <pt x="392" y="208" on="0"/>
        <pt x="392" y="329" on="1"/>
        <pt x="392" y="450" on="0"/>
        <pt x="238" y="647" on="0"/>
        <pt x="77" y="734" on="1"/>
        <pt x="135" y="807" on="1"/>
        <pt x="319" y="708" on="0"/>
        <pt x="506" y="468" on="0"/>
      </contour>
    </TTGlyph>
    <TTGlyph name="percent" xMin="21" yMin="-15" xMax="593" yMax="670">
      <contour>
        <pt x="188" y="317" on="1"/>
        <pt x="117" y="317" on="0"/>
        <pt x="42" y="409" on="0"/>
        <pt x="42" y="494" on="1"/>
        <pt x="42" y="579" on="0"/>
        <pt x="118" y="670" on="0"/>
        <pt x="189" y="670" on="1"/>
        <pt x="260" y="670" on="0"/>
        <pt x="337" y="579" on="0"/>
        <pt x="337" y="495" on="1"/>
        <pt x="337" y="410" on="0"/>
        <pt x="260" y="317" on="0"/>
      </contour>
      <contour>
        <pt x="593" y="654" on="1"/>
        <pt x="402" y="377" on="1"/>
        <pt x="357" y="377" on="1"/>
        <pt x="483" y="660" on="1"/>
        <pt x="593" y="660" on="1"/>
      </contour>
      <contour>
        <pt x="263" y="494" on="1"/>
        <pt x="263" y="549" on="0"/>
        <pt x="225" y="606" on="0"/>
        <pt x="188" y="606" on="1"/>
        <pt x="151" y="606" on="0"/>
        <pt x="115" y="551" on="0"/>
        <pt x="115" y="495" on="1"/>
        <pt x="115" y="438" on="0"/>
        <pt x="152" y="383" on="0"/>
        <pt x="189" y="383" on="1"/>
        <pt x="226" y="383" on="0"/>
        <pt x="263" y="438" on="0"/>
      </contour>
      <contour>
        <pt x="425" y="-15" on="1"/>
        <pt x="354" y="-15" on="0"/>
        <pt x="277" y="76" on="0"/>
        <pt x="277" y="160" on="1"/>
        <pt x="277" y="245" on="0"/>
        <pt x="354" y="338" on="0"/>
        <pt x="426" y="338" on="1"/>
        <pt x="497" y="338" on="0"/>
        <pt x="572" y="246" on="0"/>
        <pt x="572" y="161" on="1"/>
        <pt x="572" y="76" on="0"/>
        <pt x="496" y="-15" on="0"/>
      </contour>
      <contour>
        <pt x="351" y="161" on="1"/>
        <pt x="351" y="106" on="0"/>
        <pt x="389" y="49" on="0"/>
        <pt x="426" y="49" on="1"/>
        <pt x="463" y="49" on="0"/>
        <pt x="499" y="104" on="0"/>
        <pt x="499" y="160" on="1"/>
        <pt x="499" y="217" on="0"/>
        <pt x="462" y="272" on="0"/>
        <pt x="425" y="272" on="1"/>
        <pt x="388" y="272" on="0"/>
        <pt x="351" y="217" on="0"/>
      </contour>
      <contour>
        <pt x="21" y="1" on="1"/>
        <pt x="212" y="278" on="1"/>
        <pt x="257" y="278" on="1"/>
        <pt x="131" y="-5" on="1"/>
        <pt x="21" y="-5" on="1"/>
      </contour>
    </TTGlyph>
    <TTGlyph name="period" xMin="204" yMin="-15" xMax="410" yMax="172">
      <contour>
        <pt x="410" y="79" on="1"/>
        <pt x="410" y="34" on="0"/>
        <pt x="356" y="-15" on="0"/>
        <pt x="306" y="-15" on="1"/>
        <pt x="255" y="-15" on="0"/>
        <pt x="204" y="32" on="0"/>
        <pt x="204" y="78" on="1"/>
        <pt x="204" y="123" on="0"/>
        <pt x="258" y="172" on="0"/>
        <pt x="307" y="172" on="1"/>
        <pt x="359" y="172" on="0"/>
        <pt x="410" y="126" on="0"/>
      </contour>
    </TTGlyph>
    <TTGlyph name="periodcentered" xMin="204" yMin="239" xMax="410" yMax="426">
      <component glyphName="period" x="0" y="254" flags="0x4"/>
    </TTGlyph>
    <TTGlyph name="plus" xMin="66" yMin="83" xMax="548" yMax="573">
      <contour>
        <pt x="255" y="283" on="1"/>
        <pt x="66" y="283" on="1"/>
        <pt x="66" y="374" on="1"/>
        <pt x="255" y="374" on="1"/>
        <pt x="255" y="573" on="1"/>
        <pt x="358" y="573" on="1"/>
        <pt x="358" y="374" on="1"/>
        <pt x="548" y="374" on="1"/>
        <pt x="548" y="283" on="1"/>
        <pt x="358" y="283" on="1"/>
        <pt x="358" y="83" on="1"/>
        <pt x="255" y="83" on="1"/>
      </contour>
    </TTGlyph>
    <TTGlyph name="plusminus" xMin="66" yMin="0" xMax="547" yMax="655">
      <contour>
        <pt x="255" y="385" on="1"/>
        <pt x="66" y="385" on="1"/>
        <pt x="66" y="476" on="1"/>
        <pt x="255" y="476" on="1"/>
        <pt x="255" y="655" on="1"/>
        <pt x="358" y="655" on="1"/>
        <pt x="358" y="476" on="1"/>
        <pt x="547" y="476" on="1"/>
        <pt x="547" y="385" on="1"/>
        <pt x="358" y="385" on="1"/>
        <pt x="358" y="205" on="1"/>
        <pt x="255" y="205" on="1"/>
      </contour>
      <contour>
        <pt x="547" y="91" on="1"/>
        <pt x="547" y="0" on="1"/>
        <pt x="66" y="0" on="1"/>
        <pt x="66" y="91" on="1"/>
      </contour>
    </TTGlyph>
    <TTGlyph name="q" xMin="52" yMin="-230" xMax="529" yMax="479">
      <contour>
        <pt x="259" y="-11" on="1"/>
        <pt x="168" y="-11" on="0"/>
        <pt x="52" y="120" on="0"/>
        <pt x="52" y="226" on="1"/>
        <pt x="52" y="337" on="0"/>
        <pt x="197" y="479" on="0"/>
        <pt x="313" y="479" on="1"/>
        <pt x="350" y="479" on="0"/>
        <pt x="420" y="462" on="0"/>
        <pt x="453" y="445" on="1"/>
        <pt x="509" y="471" on="1"/>
        <pt x="529" y="471" on="1"/>
        <pt x="529" y="-230" on="1"/>
        <pt x="417" y="-230" on="1"/>
        <pt x="417" y="59" on="1"/>
        <pt x="381" y="23" on="0"/>
        <pt x="305" y="-11" on="0"/>
      </contour>
      <contour>
        <pt x="324" y="385" on="1"/>
        <pt x="254" y="385" on="0"/>
        <pt x="168" y="299" on="0"/>
        <pt x="168" y="232" on="1"/>
        <pt x="168" y="165" on="0"/>
        <pt x="240" y="82" on="0"/>
        <pt x="297" y="82" on="1"/>
        <pt x="328" y="82" on="0"/>
        <pt x="383" y="109" on="0"/>
        <pt x="417" y="140" on="1"/>
        <pt x="417" y="357" on="1"/>
        <pt x="392" y="371" on="0"/>
        <pt x="347" y="385" on="0"/>
      </contour>
    </TTGlyph>
    <TTGlyph name="question" xMin="64" yMin="-15" xMax="545" yMax="725">
      <contour>
        <pt x="293" y="258" on="1"/>
        <pt x="218" y="258" on="1"/>
        <pt x="209" y="299" on="0"/>
        <pt x="202" y="344" on="0"/>
        <pt x="202" y="359" on="1"/>
        <pt x="202" y="378" on="0"/>
        <pt x="226" y="403" on="0"/>
        <pt x="259" y="419" on="1"/>
        <pt x="341" y="459" on="1"/>
        <pt x="393" y="485" on="0"/>
        <pt x="430" y="521" on="0"/>
        <pt x="430" y="550" on="1"/>
        <pt x="430" y="590" on="0"/>
        <pt x="375" y="631" on="0"/>
        <pt x="321" y="631" on="1"/>
        <pt x="276" y="631" on="0"/>
        <pt x="164" y="607" on="0"/>
        <pt x="86" y="581" on="1"/>
        <pt x="64" y="678" on="1"/>
        <pt x="153" y="705" on="0"/>
        <pt x="268" y="725" on="0"/>
        <pt x="332" y="725" on="1"/>
        <pt x="437" y="725" on="0"/>
        <pt x="545" y="636" on="0"/>
        <pt x="545" y="550" on="1"/>
        <pt x="545" y="495" on="0"/>
        <pt x="491" y="425" on="0"/>
        <pt x="414" y="386" on="1"/>
        <pt x="339" y="350" on="1"/>
        <pt x="316" y="338" on="0"/>
        <pt x="302" y="311" on="0"/>
      </contour>
      <contour>
        <pt x="349" y="59" on="1"/>
        <pt x="349" y="21" on="0"/>
        <pt x="300" y="-15" on="0"/>
        <pt x="249" y="-15" on="1"/>
        <pt x="199" y="-15" on="0"/>
        <pt x="152" y="21" on="0"/>
        <pt x="152" y="60" on="1"/>
        <pt x="152" y="97" on="0"/>
        <pt x="202" y="135" on="0"/>
        <pt x="251" y="135" on="1"/>
        <pt x="302" y="135" on="0"/>
        <pt x="349" y="99" on="0"/>
      </contour>
    </TTGlyph>
    <TTGlyph name="questiondown" xMin="72" yMin="-15" xMax="553" yMax="725">
      <contour>
        <pt x="269" y="651" on="1"/>
        <pt x="269" y="689" on="0"/>
        <pt x="318" y="725" on="0"/>
        <pt x="368" y="725" on="1"/>
        <pt x="418" y="725" on="0"/>
        <pt x="465" y="689" on="0"/>
        <pt x="465" y="650" on="1"/>
        <pt x="465" y="613" on="0"/>
        <pt x="415" y="575" on="0"/>
        <pt x="366" y="575" on="1"/>
        <pt x="315" y="575" on="0"/>
        <pt x="269" y="611" on="0"/>
      </contour>
      <contour>
        <pt x="324" y="452" on="1"/>
        <pt x="399" y="452" on="1"/>
        <pt x="408" y="411" on="0"/>
        <pt x="415" y="366" on="0"/>
        <pt x="415" y="351" on="1"/>
        <pt x="415" y="332" on="0"/>
        <pt x="391" y="307" on="0"/>
        <pt x="358" y="291" on="1"/>
        <pt x="276" y="251" on="1"/>
        <pt x="224" y="225" on="0"/>
        <pt x="187" y="189" on="0"/>
        <pt x="187" y="160" on="1"/>
        <pt x="187" y="120" on="0"/>
        <pt x="242" y="79" on="0"/>
        <pt x="296" y="79" on="1"/>
        <pt x="341" y="79" on="0"/>
        <pt x="453" y="103" on="0"/>
        <pt x="531" y="129" on="1"/>
        <pt x="553" y="32" on="1"/>
        <pt x="464" y="5" on="0"/>
        <pt x="349" y="-15" on="0"/>
        <pt x="285" y="-15" on="1"/>
        <pt x="180" y="-15" on="0"/>
        <pt x="72" y="74" on="0"/>
        <pt x="72" y="160" on="1"/>
        <pt x="72" y="215" on="0"/>
        <pt x="126" y="285" on="0"/>
        <pt x="203" y="324" on="1"/>
        <pt x="278" y="360" on="1"/>
        <pt x="302" y="372" on="0"/>
        <pt x="316" y="401" on="0"/>
      </contour>
    </TTGlyph>
    <TTGlyph name="quotedbl" xMin="112" yMin="385" xMax="516" yMax="710">
      <contour>
        <pt x="396" y="385" on="1"/>
        <pt x="497" y="385" on="1"/>
        <pt x="516" y="710" on="1"/>
        <pt x="378" y="710" on="1"/>
      </contour>
      <contour>
        <pt x="131" y="385" on="1"/>
        <pt x="232" y="385" on="1"/>
        <pt x="251" y="710" on="1"/>
        <pt x="112" y="710" on="1"/>
      </contour>
    </TTGlyph>
    <TTGlyph name="quotedblbase" xMin="36" yMin="-160" xMax="565" yMax="145">
      <component glyphName="quotedblright" x="0" y="-565" flags="0x4"/>
    </TTGlyph>
    <TTGlyph name="quotedblleft" xMin="49" yMin="405" xMax="577" yMax="710">
      <contour>
        <pt x="230" y="710" on="1"/>
        <pt x="321" y="710" on="1"/>
        <pt x="321" y="708" on="1"/>
        <pt x="254" y="607" on="0"/>
        <pt x="209" y="496" on="0"/>
        <pt x="195" y="405" on="1"/>
        <pt x="49" y="405" on="1"/>
        <pt x="73" y="514" on="0"/>
        <pt x="148" y="641" on="0"/>
      </contour>
      <contour>
        <pt x="486" y="710" on="1"/>
        <pt x="577" y="710" on="1"/>
        <pt x="577" y="708" on="1"/>
        <pt x="512" y="609" on="0"/>
        <pt x="466" y="498" on="0"/>
        <pt x="452" y="405" on="1"/>
        <pt x="306" y="405" on="1"/>
        <pt x="330" y="515" on="0"/>
        <pt x="405" y="641" on="0"/>
      </contour>
    </TTGlyph>
    <TTGlyph name="quotedblright" xMin="36" yMin="405" xMax="565" yMax="710">
      <contour>
        <pt x="384" y="405" on="1"/>
        <pt x="293" y="405" on="1"/>
        <pt x="293" y="407" on="1"/>
        <pt x="359" y="506" on="0"/>
        <pt x="405" y="618" on="0"/>
        <pt x="419" y="710" on="1"/>
        <pt x="565" y="710" on="1"/>
        <pt x="541" y="600" on="0"/>
        <pt x="465" y="473" on="0"/>
      </contour>
      <contour>
        <pt x="128" y="405" on="1"/>
        <pt x="36" y="405" on="1"/>
        <pt x="36" y="407" on="1"/>
        <pt x="102" y="506" on="0"/>
        <pt x="148" y="618" on="0"/>
        <pt x="162" y="710" on="1"/>
        <pt x="308" y="710" on="1"/>
        <pt x="284" y="599" on="0"/>
        <pt x="209" y="473" on="0"/>
      </contour>
    </TTGlyph>
    <TTGlyph name="quoteleft" xMin="173" yMin="410" xMax="470" yMax="710">
      <contour>
        <pt x="365" y="710" on="1"/>
        <pt x="470" y="710" on="1"/>
        <pt x="470" y="708" on="1"/>
        <pt x="402" y="618" on="0"/>
        <pt x="350" y="494" on="0"/>
        <pt x="343" y="410" on="1"/>
        <pt x="173" y="410" on="1"/>
        <pt x="187" y="506" on="0"/>
        <pt x="272" y="641" on="0"/>
      </contour>
    </TTGlyph>
    <TTGlyph name="quoteright" xMin="144" yMin="410" xMax="441" yMax="710">
      <contour>
        <pt x="249" y="410" on="1"/>
        <pt x="144" y="410" on="1"/>
        <pt x="144" y="412" on="1"/>
        <pt x="212" y="502" on="0"/>
        <pt x="264" y="625" on="0"/>
        <pt x="271" y="710" on="1"/>
        <pt x="441" y="710" on="1"/>
        <pt x="427" y="613" on="0"/>
        <pt x="342" y="478" on="0"/>
      </contour>
    </TTGlyph>
    <TTGlyph name="quotesinglbase" xMin="144" yMin="-156" xMax="441" yMax="144">
      <component glyphName="quoteright" x="0" y="-566" flags="0x4"/>
    </TTGlyph>
    <TTGlyph name="quotesingle" xMin="232" yMin="385" xMax="382" yMax="710">
      <contour>
        <pt x="250" y="385" on="1"/>
        <pt x="364" y="385" on="1"/>
        <pt x="382" y="710" on="1"/>
        <pt x="232" y="710" on="1"/>
      </contour>
    </TTGlyph>
    <TTGlyph name="r" xMin="53" yMin="0" xMax="565" yMax="475">
      <contour>
        <pt x="53" y="0" on="1"/>
        <pt x="53" y="95" on="1"/>
        <pt x="166" y="95" on="1"/>
        <pt x="166" y="376" on="1"/>
        <pt x="73" y="376" on="1"/>
        <pt x="73" y="471" on="1"/>
        <pt x="265" y="471" on="1"/>
        <pt x="271" y="323" on="1"/>
        <pt x="330" y="402" on="0"/>
        <pt x="408" y="464" on="0"/>
        <pt x="464" y="468" on="1"/>
        <pt x="557" y="475" on="1"/>
        <pt x="565" y="362" on="1"/>
        <pt x="475" y="355" on="1"/>
        <pt x="441" y="352" on="0"/>
        <pt x="395" y="341" on="0"/>
        <pt x="374" y="326" on="1"/>
        <pt x="355" y="313" on="0"/>
        <pt x="311" y="268" on="0"/>
        <pt x="278" y="232" on="1"/>
        <pt x="278" y="95" on="1"/>
        <pt x="417" y="95" on="1"/>
        <pt x="417" y="0" on="1"/>
      </contour>
    </TTGlyph>
    <TTGlyph name="racute" xMin="53" yMin="0" xMax="565" yMax="752">
      <component glyphName="r" x="0" y="0" flags="0x204"/>
      <component glyphName="uni0301" x="306" y="0" flags="0x4"/>
    </TTGlyph>
    <TTGlyph name="rcaron" xMin="53" yMin="0" xMax="565" yMax="752">
      <component glyphName="r" x="0" y="0" flags="0x204"/>
      <component glyphName="uni030C" x="306" y="0" flags="0x4"/>
    </TTGlyph>
    <TTGlyph name="registered" xMin="68" yMin="208" xMax="546" yMax="725">
      <contour>
        <pt x="307" y="208" on="1"/>
        <pt x="198" y="208" on="0"/>
        <pt x="68" y="348" on="0"/>
        <pt x="68" y="465" on="1"/>
        <pt x="68" y="584" on="0"/>
        <pt x="197" y="725" on="0"/>
        <pt x="307" y="725" on="1"/>
        <pt x="417" y="725" on="0"/>
        <pt x="546" y="586" on="0"/>
        <pt x="546" y="467" on="1"/>
        <pt x="546" y="350" on="0"/>
        <pt x="415" y="208" on="0"/>
      </contour>
      <contour>
        <pt x="108" y="467" on="1"/>
        <pt x="108" y="364" on="0"/>
        <pt x="216" y="243" on="0"/>
        <pt x="307" y="243" on="1"/>
        <pt x="400" y="243" on="0"/>
        <pt x="507" y="362" on="0"/>
        <pt x="507" y="465" on="1"/>
        <pt x="507" y="569" on="0"/>
        <pt x="400" y="689" on="0"/>
        <pt x="307" y="689" on="1"/>
        <pt x="215" y="689" on="0"/>
        <pt x="108" y="570" on="0"/>
      </contour>
      <contour>
        <pt x="369" y="416" on="1"/>
        <pt x="424" y="345" on="1"/>
        <pt x="424" y="343" on="1"/>
        <pt x="356" y="343" on="1"/>
        <pt x="311" y="409" on="1"/>
        <pt x="299" y="426" on="0"/>
        <pt x="283" y="439" on="0"/>
        <pt x="271" y="442" on="1"/>
        <pt x="271" y="343" on="1"/>
        <pt x="217" y="343" on="1"/>
        <pt x="217" y="604" on="1"/>
        <pt x="323" y="604" on="1"/>
        <pt x="365" y="604" on="0"/>
        <pt x="410" y="566" on="0"/>
        <pt x="410" y="531" on="1"/>
        <pt x="410" y="497" on="0"/>
        <pt x="369" y="461" on="0"/>
        <pt x="325" y="454" on="1"/>
        <pt x="325" y="452" on="1"/>
        <pt x="341" y="445" on="0"/>
        <pt x="359" y="429" on="0"/>
      </contour>
      <contour>
        <pt x="355" y="526" on="1"/>
        <pt x="355" y="543" on="0"/>
        <pt x="334" y="560" on="0"/>
        <pt x="314" y="560" on="1"/>
        <pt x="271" y="560" on="1"/>
        <pt x="271" y="480" on="1"/>
        <pt x="283" y="481" on="1"/>
        <pt x="322" y="486" on="0"/>
        <pt x="355" y="506" on="0"/>
      </contour>
    </TTGlyph>
    <TTGlyph name="ring" xMin="158" yMin="547" xMax="456" yMax="807">
      <component glyphName="uni030A" x="307" y="0" flags="0x4"/>
    </TTGlyph>
    <TTGlyph name="s" xMin="87" yMin="-13" xMax="530" yMax="484">
      <contour>
        <pt x="530" y="136" on="1"/>
        <pt x="530" y="67" on="0"/>
        <pt x="403" y="-13" on="0"/>
        <pt x="291" y="-13" on="1"/>
        <pt x="240" y="-13" on="0"/>
        <pt x="145" y="-4" on="0"/>
        <pt x="87" y="6" on="1"/>
        <pt x="99" y="98" on="1"/>
        <pt x="154" y="88" on="0"/>
        <pt x="259" y="76" on="0"/>
        <pt x="294" y="76" on="1"/>
        <pt x="356" y="76" on="0"/>
        <pt x="416" y="103" on="0"/>
        <pt x="416" y="130" on="1"/>
        <pt x="416" y="152" on="0"/>
        <pt x="383" y="176" on="0"/>
        <pt x="341" y="186" on="1"/>
        <pt x="246" y="206" on="1"/>
        <pt x="164" y="224" on="0"/>
        <pt x="96" y="283" on="0"/>
        <pt x="96" y="342" on="1"/>
        <pt x="96" y="411" on="0"/>
        <pt x="213" y="484" on="0"/>
        <pt x="327" y="484" on="1"/>
        <pt x="363" y="484" on="0"/>
        <pt x="461" y="475" on="0"/>
        <pt x="506" y="467" on="1"/>
        <pt x="495" y="375" on="1"/>
        <pt x="445" y="384" on="0"/>
        <pt x="356" y="394" on="0"/>
        <pt x="324" y="394" on="1"/>
        <pt x="265" y="394" on="0"/>
        <pt x="210" y="373" on="0"/>
        <pt x="210" y="349" on="1"/>
        <pt x="210" y="328" on="0"/>
        <pt x="241" y="307" on="0"/>
        <pt x="283" y="296" on="1"/>
        <pt x="376" y="276" on="1"/>
        <pt x="461" y="257" on="0"/>
        <pt x="530" y="197" on="0"/>
      </contour>
    </TTGlyph>
    <TTGlyph name="sacute" xMin="87" yMin="-13" xMax="530" yMax="757">
      <component glyphName="s" x="0" y="0" flags="0x204"/>
      <component glyphName="uni0301" x="317" y="5" flags="0x4"/>
    </TTGlyph>
    <TTGlyph name="scaron" xMin="87" yMin="-13" xMax="530" yMax="757">
      <component glyphName="s" x="0" y="0" flags="0x204"/>
      <component glyphName="uni030C" x="317" y="5" flags="0x4"/>
    </TTGlyph>
    <TTGlyph name="scircumflex" xMin="87" yMin="-13" xMax="530" yMax="752">
      <component glyphName="s" x="0" y="0" flags="0x204"/>
      <component glyphName="uni0302" x="317" y="0" flags="0x4"/>
    </TTGlyph>
</ttFont>
